<svg width="720" height="380" viewBox="0 0 720 380" fill="none" xmlns="http://www.w3.org/2000/svg">
<g clip-path="url(#clip0_118_1791)">
<rect width="720" height="380" fill="#F4F0FF"/>
<path d="M199.039 55V35.232H202.175L209.959 47.356H208.363L216.119 35.232H219.283V55H214.887V42.652L215.671 42.848L210.603 50.744H207.691L202.651 42.848L203.407 42.652V55H199.039ZM228.73 55.308C227.479 55.308 226.369 55.056 225.398 54.552C224.446 54.0293 223.699 53.32 223.158 52.424C222.617 51.5093 222.346 50.464 222.346 49.288V41.392H226.63V49.232C226.63 49.6987 226.705 50.1 226.854 50.436C227.022 50.772 227.265 51.0333 227.582 51.22C227.899 51.4067 228.282 51.5 228.73 51.5C229.365 51.5 229.869 51.304 230.242 50.912C230.615 50.5013 230.802 49.9413 230.802 49.232V41.392H235.086V49.26C235.086 50.4547 234.815 51.5093 234.274 52.424C233.733 53.32 232.986 54.0293 232.034 54.552C231.082 55.056 229.981 55.308 228.73 55.308ZM237.776 55V34.672H242.06V55H237.776ZM247.008 55V35.764H251.292V55H247.008ZM243.928 45.032V41.392H254.372V45.032H243.928ZM256.26 55V41.392H260.544V55H256.26ZM258.416 39.516C257.744 39.516 257.184 39.292 256.736 38.844C256.307 38.3773 256.092 37.8173 256.092 37.164C256.092 36.492 256.307 35.932 256.736 35.484C257.184 35.036 257.744 34.812 258.416 34.812C259.088 34.812 259.639 35.036 260.068 35.484C260.497 35.932 260.712 36.492 260.712 37.164C260.712 37.8173 260.497 38.3773 260.068 38.844C259.639 39.292 259.088 39.516 258.416 39.516ZM271.401 55.28C270.486 55.28 269.646 55.1027 268.881 54.748C268.115 54.3933 267.49 53.908 267.005 53.292C266.519 52.6573 266.239 51.9387 266.165 51.136V45.396C266.239 44.5933 266.519 43.8653 267.005 43.212C267.49 42.5587 268.115 42.0453 268.881 41.672C269.646 41.2987 270.486 41.112 271.401 41.112C272.689 41.112 273.827 41.42 274.817 42.036C275.825 42.652 276.609 43.492 277.169 44.556C277.747 45.62 278.037 46.8333 278.037 48.196C278.037 49.5587 277.747 50.772 277.169 51.836C276.609 52.9 275.825 53.74 274.817 54.356C273.827 54.972 272.689 55.28 271.401 55.28ZM263.561 60.74V41.392H267.845V44.892L267.145 48.196L267.789 51.5V60.74H263.561ZM270.617 51.416C271.233 51.416 271.765 51.276 272.213 50.996C272.679 50.716 273.043 50.3333 273.305 49.848C273.566 49.3627 273.697 48.812 273.697 48.196C273.697 47.5613 273.566 47.0013 273.305 46.516C273.043 46.0307 272.679 45.6573 272.213 45.396C271.765 45.116 271.242 44.976 270.645 44.976C270.047 44.976 269.515 45.116 269.049 45.396C268.601 45.6573 268.246 46.0307 267.985 46.516C267.723 47.0013 267.593 47.5613 267.593 48.196C267.593 48.812 267.714 49.3627 267.957 49.848C268.218 50.3333 268.582 50.716 269.049 50.996C269.515 51.276 270.038 51.416 270.617 51.416ZM280.213 55V34.672H284.497V55H280.213ZM294.234 55.308C292.759 55.308 291.443 55.0093 290.286 54.412C289.147 53.796 288.251 52.9467 287.598 51.864C286.945 50.7813 286.618 49.5587 286.618 48.196C286.618 46.8333 286.935 45.62 287.57 44.556C288.223 43.4733 289.101 42.624 290.202 42.008C291.303 41.392 292.545 41.084 293.926 41.084C295.27 41.084 296.455 41.3733 297.482 41.952C298.509 42.5307 299.311 43.3333 299.89 44.36C300.487 45.3867 300.786 46.5627 300.786 47.888C300.786 48.1307 300.767 48.392 300.73 48.672C300.711 48.9333 300.665 49.2413 300.59 49.596L288.858 49.624V46.684L298.77 46.656L296.922 47.888C296.903 47.104 296.782 46.46 296.558 45.956C296.334 45.4333 295.998 45.0413 295.55 44.78C295.121 44.5 294.589 44.36 293.954 44.36C293.282 44.36 292.694 44.5187 292.19 44.836C291.705 45.1347 291.322 45.564 291.042 46.124C290.781 46.684 290.65 47.3653 290.65 48.168C290.65 48.9707 290.79 49.6613 291.07 50.24C291.369 50.8 291.779 51.2387 292.302 51.556C292.843 51.8547 293.478 52.004 294.206 52.004C294.878 52.004 295.485 51.892 296.026 51.668C296.567 51.4253 297.043 51.0707 297.454 50.604L299.806 52.956C299.134 53.74 298.322 54.328 297.37 54.72C296.418 55.112 295.373 55.308 294.234 55.308ZM312.984 55V35.512H317.38V55H312.984ZM306.796 39.068V35.232H323.568V39.068H306.796ZM325.631 55V41.392H329.915V55H325.631ZM327.787 39.516C327.115 39.516 326.555 39.292 326.107 38.844C325.678 38.3773 325.463 37.8173 325.463 37.164C325.463 36.492 325.678 35.932 326.107 35.484C326.555 35.036 327.115 34.812 327.787 34.812C328.459 34.812 329.01 35.036 329.439 35.484C329.868 35.932 330.083 36.492 330.083 37.164C330.083 37.8173 329.868 38.3773 329.439 38.844C329.01 39.292 328.459 39.516 327.787 39.516ZM332.932 55V41.392H337.216V55H332.932ZM341.64 55V47.048C341.64 46.3573 341.425 45.8253 340.996 45.452C340.585 45.06 340.072 44.864 339.456 44.864C339.027 44.864 338.644 44.9573 338.308 45.144C337.972 45.312 337.701 45.5547 337.496 45.872C337.309 46.1893 337.216 46.5813 337.216 47.048L335.564 46.32C335.564 45.2373 335.797 44.3133 336.264 43.548C336.731 42.764 337.365 42.1667 338.168 41.756C338.971 41.3267 339.876 41.112 340.884 41.112C341.836 41.112 342.685 41.3267 343.432 41.756C344.197 42.1853 344.804 42.7827 345.252 43.548C345.7 44.3133 345.924 45.228 345.924 46.292V55H341.64ZM350.348 55V47.048C350.348 46.3573 350.133 45.8253 349.704 45.452C349.293 45.06 348.78 44.864 348.164 44.864C347.735 44.864 347.352 44.9573 347.016 45.144C346.68 45.312 346.409 45.5547 346.204 45.872C346.017 46.1893 345.924 46.5813 345.924 47.048L343.46 46.712C343.497 45.5547 343.768 44.5653 344.272 43.744C344.795 42.904 345.476 42.26 346.316 41.812C347.175 41.3453 348.136 41.112 349.2 41.112C350.245 41.112 351.169 41.336 351.972 41.784C352.793 42.2133 353.437 42.8387 353.904 43.66C354.389 44.4627 354.632 45.4333 354.632 46.572V55H350.348ZM364.097 55.308C362.623 55.308 361.307 55.0093 360.149 54.412C359.011 53.796 358.115 52.9467 357.461 51.864C356.808 50.7813 356.481 49.5587 356.481 48.196C356.481 46.8333 356.799 45.62 357.433 44.556C358.087 43.4733 358.964 42.624 360.065 42.008C361.167 41.392 362.408 41.084 363.789 41.084C365.133 41.084 366.319 41.3733 367.345 41.952C368.372 42.5307 369.175 43.3333 369.753 44.36C370.351 45.3867 370.649 46.5627 370.649 47.888C370.649 48.1307 370.631 48.392 370.593 48.672C370.575 48.9333 370.528 49.2413 370.453 49.596L358.721 49.624V46.684L368.633 46.656L366.785 47.888C366.767 47.104 366.645 46.46 366.421 45.956C366.197 45.4333 365.861 45.0413 365.413 44.78C364.984 44.5 364.452 44.36 363.817 44.36C363.145 44.36 362.557 44.5187 362.053 44.836C361.568 45.1347 361.185 45.564 360.905 46.124C360.644 46.684 360.513 47.3653 360.513 48.168C360.513 48.9707 360.653 49.6613 360.933 50.24C361.232 50.8 361.643 51.2387 362.165 51.556C362.707 51.8547 363.341 52.004 364.069 52.004C364.741 52.004 365.348 51.892 365.889 51.668C366.431 51.4253 366.907 51.0707 367.317 50.604L369.669 52.956C368.997 53.74 368.185 54.328 367.233 54.72C366.281 55.112 365.236 55.308 364.097 55.308ZM377.673 55.336C376.87 55.336 376.077 55.2333 375.293 55.028C374.528 54.8227 373.809 54.5333 373.137 54.16C372.484 53.768 371.924 53.32 371.457 52.816L373.893 50.352C374.341 50.8373 374.873 51.22 375.489 51.5C376.105 51.7613 376.777 51.892 377.505 51.892C378.009 51.892 378.392 51.8173 378.653 51.668C378.933 51.5187 379.073 51.3133 379.073 51.052C379.073 50.716 378.905 50.464 378.569 50.296C378.252 50.1093 377.841 49.9507 377.337 49.82C376.833 49.6707 376.301 49.512 375.741 49.344C375.181 49.176 374.649 48.9427 374.145 48.644C373.641 48.3453 373.23 47.9347 372.913 47.412C372.596 46.8707 372.437 46.1893 372.437 45.368C372.437 44.4907 372.661 43.7347 373.109 43.1C373.557 42.4467 374.192 41.9333 375.013 41.56C375.834 41.1867 376.796 41 377.897 41C379.054 41 380.118 41.2053 381.089 41.616C382.078 42.008 382.881 42.596 383.497 43.38L381.061 45.844C380.632 45.34 380.146 44.9853 379.605 44.78C379.082 44.5747 378.569 44.472 378.065 44.472C377.58 44.472 377.216 44.5467 376.973 44.696C376.73 44.8267 376.609 45.0227 376.609 45.284C376.609 45.564 376.768 45.788 377.085 45.956C377.402 46.124 377.813 46.2733 378.317 46.404C378.821 46.5347 379.353 46.6933 379.913 46.88C380.473 47.0667 381.005 47.3187 381.509 47.636C382.013 47.9533 382.424 48.3827 382.741 48.924C383.058 49.4467 383.217 50.1373 383.217 50.996C383.217 52.3213 382.713 53.376 381.705 54.16C380.716 54.944 379.372 55.336 377.673 55.336ZM394.529 55V47.244C394.529 46.5347 394.305 45.9653 393.857 45.536C393.428 45.088 392.877 44.864 392.205 44.864C391.739 44.864 391.328 44.9667 390.973 45.172C390.619 45.3587 390.339 45.6387 390.133 46.012C389.928 46.3667 389.825 46.7773 389.825 47.244L388.173 46.432C388.173 45.368 388.397 44.4347 388.845 43.632C389.293 42.8293 389.919 42.2133 390.721 41.784C391.524 41.336 392.448 41.112 393.493 41.112C394.557 41.112 395.491 41.336 396.293 41.784C397.096 42.2133 397.712 42.82 398.141 43.604C398.589 44.3693 398.813 45.2653 398.813 46.292V55H394.529ZM385.541 55V34.672H389.825V55H385.541ZM408.285 55.308C406.81 55.308 405.494 55.0093 404.337 54.412C403.198 53.796 402.302 52.9467 401.649 51.864C400.995 50.7813 400.669 49.5587 400.669 48.196C400.669 46.8333 400.986 45.62 401.621 44.556C402.274 43.4733 403.151 42.624 404.253 42.008C405.354 41.392 406.595 41.084 407.977 41.084C409.321 41.084 410.506 41.3733 411.533 41.952C412.559 42.5307 413.362 43.3333 413.941 44.36C414.538 45.3867 414.837 46.5627 414.837 47.888C414.837 48.1307 414.818 48.392 414.781 48.672C414.762 48.9333 414.715 49.2413 414.641 49.596L402.909 49.624V46.684L412.821 46.656L410.973 47.888C410.954 47.104 410.833 46.46 410.609 45.956C410.385 45.4333 410.049 45.0413 409.601 44.78C409.171 44.5 408.639 44.36 408.005 44.36C407.333 44.36 406.745 44.5187 406.241 44.836C405.755 45.1347 405.373 45.564 405.093 46.124C404.831 46.684 404.701 47.3653 404.701 48.168C404.701 48.9707 404.841 49.6613 405.121 50.24C405.419 50.8 405.83 51.2387 406.353 51.556C406.894 51.8547 407.529 52.004 408.257 52.004C408.929 52.004 409.535 51.892 410.077 51.668C410.618 51.4253 411.094 51.0707 411.505 50.604L413.857 52.956C413.185 53.74 412.373 54.328 411.421 54.72C410.469 55.112 409.423 55.308 408.285 55.308ZM423.625 55.308C422.15 55.308 420.834 55.0093 419.677 54.412C418.538 53.796 417.642 52.9467 416.989 51.864C416.335 50.7813 416.009 49.5587 416.009 48.196C416.009 46.8333 416.326 45.62 416.961 44.556C417.614 43.4733 418.491 42.624 419.593 42.008C420.694 41.392 421.935 41.084 423.317 41.084C424.661 41.084 425.846 41.3733 426.873 41.952C427.899 42.5307 428.702 43.3333 429.281 44.36C429.878 45.3867 430.177 46.5627 430.177 47.888C430.177 48.1307 430.158 48.392 430.121 48.672C430.102 48.9333 430.055 49.2413 429.981 49.596L418.249 49.624V46.684L428.161 46.656L426.313 47.888C426.294 47.104 426.173 46.46 425.949 45.956C425.725 45.4333 425.389 45.0413 424.941 44.78C424.511 44.5 423.979 44.36 423.345 44.36C422.673 44.36 422.085 44.5187 421.581 44.836C421.095 45.1347 420.713 45.564 420.433 46.124C420.171 46.684 420.041 47.3653 420.041 48.168C420.041 48.9707 420.181 49.6613 420.461 50.24C420.759 50.8 421.17 51.2387 421.693 51.556C422.234 51.8547 422.869 52.004 423.597 52.004C424.269 52.004 424.875 51.892 425.417 51.668C425.958 51.4253 426.434 51.0707 426.845 50.604L429.197 52.956C428.525 53.74 427.713 54.328 426.761 54.72C425.809 55.112 424.763 55.308 423.625 55.308ZM433.876 55V35.764H438.16V55H433.876ZM430.796 45.032V41.392H441.24V45.032H430.796ZM455.011 55L447.395 35.232H452.099L457.895 51.22H455.963L461.843 35.232H466.491L458.791 55H455.011ZM468.42 55V41.392H472.704V55H468.42ZM470.576 39.516C469.904 39.516 469.344 39.292 468.896 38.844C468.467 38.3773 468.252 37.8173 468.252 37.164C468.252 36.492 468.467 35.932 468.896 35.484C469.344 35.036 469.904 34.812 470.576 34.812C471.248 34.812 471.799 35.036 472.228 35.484C472.658 35.932 472.872 36.492 472.872 37.164C472.872 37.8173 472.658 38.3773 472.228 38.844C471.799 39.292 471.248 39.516 470.576 39.516ZM482.441 55.308C480.966 55.308 479.65 55.0093 478.493 54.412C477.354 53.796 476.458 52.9467 475.805 51.864C475.152 50.7813 474.825 49.5587 474.825 48.196C474.825 46.8333 475.142 45.62 475.777 44.556C476.43 43.4733 477.308 42.624 478.409 42.008C479.51 41.392 480.752 41.084 482.133 41.084C483.477 41.084 484.662 41.3733 485.689 41.952C486.716 42.5307 487.518 43.3333 488.097 44.36C488.694 45.3867 488.993 46.5627 488.993 47.888C488.993 48.1307 488.974 48.392 488.937 48.672C488.918 48.9333 488.872 49.2413 488.797 49.596L477.065 49.624V46.684L486.977 46.656L485.129 47.888C485.11 47.104 484.989 46.46 484.765 45.956C484.541 45.4333 484.205 45.0413 483.757 44.78C483.328 44.5 482.796 44.36 482.161 44.36C481.489 44.36 480.901 44.5187 480.397 44.836C479.912 45.1347 479.529 45.564 479.249 46.124C478.988 46.684 478.857 47.3653 478.857 48.168C478.857 48.9707 478.997 49.6613 479.277 50.24C479.576 50.8 479.986 51.2387 480.509 51.556C481.05 51.8547 481.685 52.004 482.413 52.004C483.085 52.004 483.692 51.892 484.233 51.668C484.774 51.4253 485.25 51.0707 485.661 50.604L488.013 52.956C487.341 53.74 486.529 54.328 485.577 54.72C484.625 55.112 483.58 55.308 482.441 55.308ZM494.229 55L489.525 41.392H493.725L496.637 51.276L495.405 51.304L498.625 41.392H502.097L505.345 51.304L504.085 51.276L507.025 41.392H511.225L506.521 55H503.021L499.857 45.592H500.921L497.701 55H494.229ZM517.509 55.336C516.706 55.336 515.913 55.2333 515.129 55.028C514.364 54.8227 513.645 54.5333 512.973 54.16C512.32 53.768 511.76 53.32 511.293 52.816L513.729 50.352C514.177 50.8373 514.709 51.22 515.325 51.5C515.941 51.7613 516.613 51.892 517.341 51.892C517.845 51.892 518.228 51.8173 518.489 51.668C518.769 51.5187 518.909 51.3133 518.909 51.052C518.909 50.716 518.741 50.464 518.405 50.296C518.088 50.1093 517.677 49.9507 517.173 49.82C516.669 49.6707 516.137 49.512 515.577 49.344C515.017 49.176 514.485 48.9427 513.981 48.644C513.477 48.3453 513.066 47.9347 512.749 47.412C512.432 46.8707 512.273 46.1893 512.273 45.368C512.273 44.4907 512.497 43.7347 512.945 43.1C513.393 42.4467 514.028 41.9333 514.849 41.56C515.67 41.1867 516.632 41 517.733 41C518.89 41 519.954 41.2053 520.925 41.616C521.914 42.008 522.717 42.596 523.333 43.38L520.897 45.844C520.468 45.34 519.982 44.9853 519.441 44.78C518.918 44.5747 518.405 44.472 517.901 44.472C517.416 44.472 517.052 44.5467 516.809 44.696C516.566 44.8267 516.445 45.0227 516.445 45.284C516.445 45.564 516.604 45.788 516.921 45.956C517.238 46.124 517.649 46.2733 518.153 46.404C518.657 46.5347 519.189 46.6933 519.749 46.88C520.309 47.0667 520.841 47.3187 521.345 47.636C521.849 47.9533 522.26 48.3827 522.577 48.924C522.894 49.4467 523.053 50.1373 523.053 50.996C523.053 52.3213 522.549 53.376 521.541 54.16C520.552 54.944 519.208 55.336 517.509 55.336Z" fill="#0897FF"/>
<g clip-path="url(#clip1_118_1791)">
<rect x="48" y="90" width="624" height="438" rx="20" fill="white"/>
<rect x="66.5" y="190.5" width="587" height="79" fill="white"/>
<rect x="66.5" y="190.5" width="587" height="79" stroke="#ECECEC"/>
<rect x="397" y="221" width="235" height="18" rx="9" fill="#ECECEC"/>
<rect x="139" y="219" width="52" height="22" rx="11" fill="#DFFAFF"/>
<path d="M152.232 235.12C149.412 235.12 147.516 233.284 147.516 230.536C147.516 227.812 149.4 226 152.22 226C153.672 226 154.848 226.48 155.724 227.428L154.656 228.508C154.152 227.86 153.3 227.404 152.244 227.404C150.456 227.404 149.268 228.664 149.268 230.548C149.268 232.456 150.48 233.716 152.268 233.716C153.468 233.716 154.296 233.176 154.86 232.312L156 233.332C155.148 234.496 153.852 235.12 152.232 235.12ZM161.219 235.12C158.423 235.12 156.551 233.296 156.551 230.56C156.551 227.824 158.423 226 161.219 226C164.003 226 165.875 227.824 165.875 230.56C165.875 233.296 164.003 235.12 161.219 235.12ZM161.219 233.716C162.959 233.716 164.123 232.456 164.123 230.56C164.123 228.664 162.959 227.404 161.219 227.404C159.479 227.404 158.303 228.664 158.303 230.56C158.303 232.456 159.479 233.716 161.219 233.716ZM172.983 235L170.955 231.736H169.143V235H167.451V226.12H171.171C173.043 226.12 174.279 227.248 174.279 228.928C174.279 230.08 173.667 230.968 172.635 231.412L174.975 235H172.983ZM169.143 227.524V230.332H170.859C171.867 230.332 172.539 229.768 172.539 228.928C172.539 228.088 171.915 227.524 170.979 227.524H169.143ZM177.92 233.596H182.36V235H176.228V226.12H182.264V227.524H177.92V229.804H181.88V231.196H177.92V233.596Z" fill="#0DAECE"/>
<rect x="72" y="221" width="61" height="18" rx="9" fill="#ECECEC"/>
<rect x="84.5" y="221" width="36" height="18" rx="9" fill="#ECECEC"/>
<rect width="34" height="30" transform="translate(277 215)" fill="#DFFAFF"/>
<path d="M285.504 235V233.932L288.252 230.956C288.72 230.44 289.716 229.432 289.716 228.508C289.716 227.848 289.248 227.404 288.564 227.404C287.808 227.404 287.316 227.944 287.316 228.736L285.6 228.58C285.6 227.032 286.764 226 288.516 226C290.268 226 291.42 226.936 291.42 228.376C291.42 229.636 290.556 230.656 289.368 231.904L287.712 233.632L291.528 233.596V235H285.504ZM293.745 235.12C293.157 235.12 292.677 234.64 292.677 234.052C292.677 233.464 293.157 232.984 293.745 232.984C294.333 232.984 294.813 233.464 294.813 234.052C294.813 234.64 294.333 235.12 293.745 235.12ZM299.13 235.12C297.102 235.12 295.746 233.296 295.746 230.56C295.746 227.824 297.102 226 299.13 226C301.158 226 302.502 227.824 302.502 230.56C302.502 233.296 301.158 235.12 299.13 235.12ZM299.13 233.716C300.114 233.716 300.762 232.456 300.762 230.56C300.762 228.664 300.114 227.404 299.13 227.404C298.146 227.404 297.498 228.664 297.498 230.56C297.498 232.456 298.146 233.716 299.13 233.716Z" fill="#0DAECE"/>
<g clip-path="url(#clip2_118_1791)">
<rect x="66.5" y="270.5" width="587" height="79" fill="white"/>
<rect x="66.5" y="270.5" width="587" height="79" stroke="#ECECEC"/>
<rect x="397" y="301" width="235" height="18" rx="9" fill="#ECECEC"/>
<rect x="115" y="299" width="76" height="22" rx="11" fill="#F8F3FF"/>
<path d="M126.864 315.12C125.64 315.12 124.5 314.736 123.708 314.004L124.344 312.864C125.1 313.488 125.94 313.716 126.756 313.716C127.872 313.716 128.52 313.332 128.52 312.648C128.52 311.928 127.776 311.616 126.66 311.304L126.156 311.16C124.692 310.764 123.6 310.152 123.6 308.7C123.6 307.08 124.908 306 126.888 306C128.028 306 129.036 306.336 129.888 307.02L129.132 308.196C128.472 307.668 127.764 307.404 126.9 307.404C125.964 307.404 125.352 307.8 125.352 308.424C125.352 309.132 126.06 309.384 126.936 309.636L127.452 309.78C128.82 310.152 130.272 310.896 130.272 312.492C130.272 314.064 128.904 315.12 126.864 315.12ZM135.653 315.12C133.313 315.12 131.753 313.728 131.753 311.64V306.12H133.445V311.568C133.445 312.852 134.333 313.716 135.653 313.716C136.961 313.716 137.837 312.852 137.837 311.568V306.12H139.529V311.64C139.529 313.728 137.981 315.12 135.653 315.12ZM145.129 306.12C147.001 306.12 148.237 307.272 148.237 308.988C148.237 310.776 146.977 311.976 145.069 311.976H143.221V315H141.529V306.12H145.129ZM144.949 310.572C145.909 310.572 146.497 309.96 146.497 309.048C146.497 308.136 145.885 307.524 144.949 307.524H143.221V310.572H144.949ZM153.226 306.12C155.098 306.12 156.334 307.272 156.334 308.988C156.334 310.776 155.074 311.976 153.166 311.976H151.318V315H149.626V306.12H153.226ZM153.046 310.572C154.006 310.572 154.594 309.96 154.594 309.048C154.594 308.136 153.982 307.524 153.046 307.524H151.318V310.572H153.046ZM161.852 315.12C159.056 315.12 157.184 313.296 157.184 310.56C157.184 307.824 159.056 306 161.852 306C164.636 306 166.508 307.824 166.508 310.56C166.508 313.296 164.636 315.12 161.852 315.12ZM161.852 313.716C163.592 313.716 164.756 312.456 164.756 310.56C164.756 308.664 163.592 307.404 161.852 307.404C160.112 307.404 158.936 308.664 158.936 310.56C158.936 312.456 160.112 313.716 161.852 313.716ZM173.615 315L171.587 311.736H169.775V315H168.083V306.12H171.803C173.675 306.12 174.911 307.248 174.911 308.928C174.911 310.08 174.299 310.968 173.267 311.412L175.607 315H173.615ZM169.775 307.524V310.332H171.491C172.499 310.332 173.171 309.768 173.171 308.928C173.171 308.088 172.547 307.524 171.611 307.524H169.775ZM182.819 306.12V307.524H180.107V315H178.415V307.524H175.715V306.12H182.819Z" fill="#9747FF"/>
<rect x="72" y="301" width="36" height="18" rx="9" fill="#ECECEC"/>
<rect width="33" height="30" transform="translate(277 296)" fill="#F8F3FF"/>
<path d="M287.64 316V309.292L285.912 310.516L285.072 309.316L288.048 307.12H289.332V316H287.64ZM292.011 316.12C291.423 316.12 290.943 315.64 290.943 315.052C290.943 314.464 291.423 313.984 292.011 313.984C292.599 313.984 293.079 314.464 293.079 315.052C293.079 315.64 292.599 316.12 292.011 316.12ZM297.396 316.12C295.368 316.12 294.012 314.296 294.012 311.56C294.012 308.824 295.368 307 297.396 307C299.424 307 300.768 308.824 300.768 311.56C300.768 314.296 299.424 316.12 297.396 316.12ZM297.396 314.716C298.38 314.716 299.028 313.456 299.028 311.56C299.028 309.664 298.38 308.404 297.396 308.404C296.412 308.404 295.764 309.664 295.764 311.56C295.764 313.456 296.412 314.716 297.396 314.716Z" fill="#9747FF"/>
</g>
<path d="M99.09 173H97.116L96.71 165.93L93.546 173H92.454L89.29 165.958L88.884 173H86.91L87.61 162.584H89.78L93 169.766L96.22 162.584H98.39L99.09 173ZM106.048 173.14C102.786 173.14 100.602 171.012 100.602 167.82C100.602 164.628 102.786 162.5 106.048 162.5C109.296 162.5 111.48 164.628 111.48 167.82C111.48 171.012 109.296 173.14 106.048 173.14ZM106.048 171.502C108.078 171.502 109.436 170.032 109.436 167.82C109.436 165.608 108.078 164.138 106.048 164.138C104.018 164.138 102.646 165.608 102.646 167.82C102.646 170.032 104.018 171.502 106.048 171.502ZM113.318 173V162.64H114.55L121.074 169.654L121.032 162.64H123.006V173H121.788L115.264 165.986L115.292 173H113.318Z" fill="#8A8B92"/>
<path d="M186.498 162.64V164.278H183.334V173H181.36V164.278H178.21V162.64H186.498ZM192.365 173.14C189.635 173.14 187.815 171.516 187.815 169.08V162.64H189.789V168.996C189.789 170.494 190.825 171.502 192.365 171.502C193.891 171.502 194.913 170.494 194.913 168.996V162.64H196.887V169.08C196.887 171.516 195.081 173.14 192.365 173.14ZM201.194 171.362H206.374V173H199.22V162.64H206.262V164.278H201.194V166.938H205.814V168.562H201.194V171.362Z" fill="#472AC4"/>
<path d="M274.79 162.64H276.89L273.32 173H271.486L268.966 165.426L266.46 173H264.626L261.042 162.64H263.156L265.648 170.354L268.042 162.64H269.89L272.312 170.354L274.79 162.64ZM280.134 171.362H285.314V173H278.16V162.64H285.202V164.278H280.134V166.938H284.754V168.562H280.134V171.362ZM291.339 162.64C294.405 162.64 296.449 164.712 296.449 167.82C296.449 170.928 294.405 173 291.339 173H287.265V162.64H291.339ZM291.339 171.362C293.173 171.362 294.391 169.948 294.391 167.82C294.391 165.692 293.173 164.278 291.339 164.278H289.239V171.362H291.339Z" fill="#8A8B92"/>
<path d="M359.498 162.64V164.278H356.334V173H354.36V164.278H351.21V162.64H359.498ZM368.459 162.64H370.433V173H368.459V168.534H362.915V173H360.941V162.64H362.915V166.91H368.459V162.64ZM377.314 173.14C374.584 173.14 372.764 171.516 372.764 169.08V162.64H374.738V168.996C374.738 170.494 375.774 171.502 377.314 171.502C378.84 171.502 379.862 170.494 379.862 168.996V162.64H381.836V169.08C381.836 171.516 380.03 173.14 377.314 173.14Z" fill="#8A8B92"/>
<path d="M443.77 164.278H439.206V167.218H443.126V168.842H439.206V173H437.232V162.64H443.77V164.278ZM451.93 173L449.564 169.192H447.45V173H445.476V162.64H449.816C452 162.64 453.442 163.956 453.442 165.916C453.442 167.26 452.728 168.296 451.524 168.814L454.254 173H451.93ZM447.45 164.278V167.554H449.452C450.628 167.554 451.412 166.896 451.412 165.916C451.412 164.936 450.684 164.278 449.592 164.278H447.45ZM455.716 173V162.64H457.69V173H455.716Z" fill="#8A8B92"/>
<path d="M516.508 173.14C515.08 173.14 513.75 172.692 512.826 171.838L513.568 170.508C514.45 171.236 515.43 171.502 516.382 171.502C517.684 171.502 518.44 171.054 518.44 170.256C518.44 169.416 517.572 169.052 516.27 168.688L515.682 168.52C513.974 168.058 512.7 167.344 512.7 165.65C512.7 163.76 514.226 162.5 516.536 162.5C517.866 162.5 519.042 162.892 520.036 163.69L519.154 165.062C518.384 164.446 517.558 164.138 516.55 164.138C515.458 164.138 514.744 164.6 514.744 165.328C514.744 166.154 515.57 166.448 516.592 166.742L517.194 166.91C518.79 167.344 520.484 168.212 520.484 170.074C520.484 171.908 518.888 173.14 516.508 173.14ZM529.467 173L528.627 170.942H523.853L523.013 173H520.899L525.323 162.64H527.157L531.581 173H529.467ZM524.525 169.304H527.969L526.247 165.09L524.525 169.304ZM539.01 162.64V164.278H535.846V173H533.872V164.278H530.722V162.64H539.01Z" fill="#8A8B92"/>
<path d="M597.508 173.14C596.08 173.14 594.75 172.692 593.826 171.838L594.568 170.508C595.45 171.236 596.43 171.502 597.382 171.502C598.684 171.502 599.44 171.054 599.44 170.256C599.44 169.416 598.572 169.052 597.27 168.688L596.682 168.52C594.974 168.058 593.7 167.344 593.7 165.65C593.7 163.76 595.226 162.5 597.536 162.5C598.866 162.5 600.042 162.892 601.036 163.69L600.154 165.062C599.384 164.446 598.558 164.138 597.55 164.138C596.458 164.138 595.744 164.6 595.744 165.328C595.744 166.154 596.57 166.448 597.592 166.742L598.194 166.91C599.79 167.344 601.484 168.212 601.484 170.074C601.484 171.908 599.888 173.14 597.508 173.14ZM607.761 173.14C605.031 173.14 603.211 171.516 603.211 169.08V162.64H605.185V168.996C605.185 170.494 606.221 171.502 607.761 171.502C609.287 171.502 610.309 170.494 610.309 168.996V162.64H612.283V169.08C612.283 171.516 610.477 173.14 607.761 173.14ZM614.617 173V162.64H615.849L622.373 169.654L622.331 162.64H624.305V173H623.087L616.563 165.986L616.591 173H614.617Z" fill="#8A8B92"/>
<rect x="422" y="108" width="64" height="33" rx="5" fill="#472AC4"/>
<path d="M445.306 119.64C448.372 119.64 450.416 121.712 450.416 124.82C450.416 127.928 448.372 130 445.306 130H441.232V119.64H445.306ZM445.306 128.362C447.14 128.362 448.358 126.948 448.358 124.82C448.358 122.692 447.14 121.278 445.306 121.278H443.206V128.362H445.306ZM454.954 122.314C456.886 122.314 458.188 123.476 458.188 125.254V130H456.354L456.312 128.922C455.808 129.706 454.94 130.14 454.016 130.14C452.448 130.14 451.398 129.202 451.398 127.802C451.398 126.346 452.686 125.394 454.618 125.394C455.136 125.394 455.71 125.45 456.284 125.562V125.422C456.284 124.414 455.612 123.812 454.464 123.812C453.75 123.812 453.176 124.022 452.7 124.414L451.874 123.294C452.686 122.636 453.638 122.314 454.954 122.314ZM454.562 128.782C455.444 128.782 456.27 128.082 456.284 126.85C455.794 126.752 455.29 126.696 454.856 126.696C453.96 126.696 453.386 127.116 453.386 127.76C453.386 128.376 453.792 128.782 454.562 128.782ZM460.968 133.22C460.534 133.22 460.128 133.136 459.848 133.01L460.044 131.456C460.212 131.54 460.408 131.582 460.646 131.582C461.262 131.582 461.514 131.204 461.808 130.63L462.186 129.832L458.952 122.454H461.038L463.166 127.774L465.154 122.454H467.226L463.67 130.868C463.068 132.324 462.424 133.22 460.968 133.22Z" fill="white"/>
<rect x="503.5" y="108.5" width="63" height="32" rx="4.5" stroke="#472AC4"/>
<path d="M528.29 119.64H530.39L526.82 130H524.986L522.466 122.426L519.96 130H518.126L514.542 119.64H516.656L519.148 127.354L521.542 119.64H523.39L525.812 127.354L528.29 119.64ZM537.781 126.108C537.781 126.374 537.753 126.682 537.725 126.906H532.265C532.405 127.97 532.965 128.642 534.071 128.642C534.841 128.642 535.471 128.292 535.919 127.746L537.389 128.488C536.717 129.496 535.527 130.14 534.099 130.14C531.789 130.14 530.249 128.6 530.249 126.276C530.249 123.896 531.747 122.314 534.015 122.314C536.269 122.314 537.781 123.826 537.781 126.108ZM534.015 123.812C533.007 123.812 532.419 124.47 532.265 125.618H535.779C535.639 124.47 535.037 123.812 534.015 123.812ZM546.353 126.108C546.353 126.374 546.325 126.682 546.297 126.906H540.837C540.977 127.97 541.537 128.642 542.643 128.642C543.413 128.642 544.043 128.292 544.491 127.746L545.961 128.488C545.289 129.496 544.099 130.14 542.671 130.14C540.361 130.14 538.821 128.6 538.821 126.276C538.821 123.896 540.319 122.314 542.587 122.314C544.841 122.314 546.353 123.826 546.353 126.108ZM542.587 123.812C541.579 123.812 540.991 124.47 540.837 125.618H544.351C544.211 124.47 543.609 123.812 542.587 123.812ZM553.05 130L550.362 126.822H549.718V130H547.814V119.08H549.718V125.254H550.376L552.868 122.454H555.276L551.93 126.024L555.458 130H553.05Z" fill="#5D5C64"/>
<rect x="584.5" y="108.5" width="63" height="32" rx="4.5" stroke="#472AC4"/>
<path d="M605.09 130H603.116L602.71 122.93L599.546 130H598.454L595.29 122.958L594.884 130H592.91L593.61 119.584H595.78L599 126.766L602.22 119.584H604.39L605.09 130ZM610.578 130.14C608.156 130.14 606.532 128.572 606.532 126.22C606.532 123.882 608.156 122.314 610.578 122.314C612.986 122.314 614.61 123.882 614.61 126.22C614.61 128.572 612.986 130.14 610.578 130.14ZM610.578 128.502C611.81 128.502 612.636 127.592 612.636 126.22C612.636 124.848 611.81 123.938 610.578 123.938C609.332 123.938 608.506 124.848 608.506 126.22C608.506 127.592 609.332 128.502 610.578 128.502ZM620.438 122.314C622.244 122.314 623.448 123.49 623.448 125.254V130H621.544V125.562C621.544 124.582 620.844 123.938 619.78 123.938C618.716 123.938 618.016 124.582 618.016 125.562V130H616.112V122.454H617.946L617.974 123.406C618.548 122.692 619.43 122.314 620.438 122.314ZM628.676 128.502C629.11 128.502 629.544 128.432 629.978 128.25V129.79C629.404 130.028 628.732 130.14 628.06 130.14C626.674 130.14 625.736 129.188 625.736 127.76V124.008H624.49V122.454H625.736V120.242H627.64V122.454H629.866V124.008H627.64V127.368C627.64 128.054 628.06 128.502 628.676 128.502ZM635.573 122.314C637.379 122.314 638.583 123.49 638.583 125.254V130H636.679V125.562C636.679 124.582 635.979 123.938 634.915 123.938C633.851 123.938 633.151 124.582 633.151 125.562V130H631.247V119.08H633.151V123.364C633.725 122.664 634.593 122.314 635.573 122.314Z" fill="#5D5C64"/>
</g>
<rect x="49" y="91" width="622" height="436" rx="19" stroke="url(#paint0_linear_118_1791)" stroke-width="2"/>
<path d="M671.066 349.371C671.588 347.381 674.412 347.381 674.934 349.371L676.03 353.544C676.213 354.242 676.758 354.787 677.456 354.97L681.629 356.066C683.619 356.588 683.619 359.412 681.629 359.934L677.456 361.03C676.758 361.213 676.213 361.758 676.03 362.456L674.934 366.629C674.412 368.619 671.588 368.619 671.066 366.629L669.97 362.456C669.787 361.758 669.242 361.213 668.544 361.03L664.371 359.934C662.381 359.412 662.381 356.588 664.371 356.066L668.544 354.97C669.242 354.787 669.787 354.242 669.97 353.544L671.066 349.371Z" fill="#D5AA02"/>
<path d="M93.2916 312.922C62.3278 311.873 56.5001 283.111 19.8131 283.111C-4.89647 283.112 -14 301.905 -14 301.905V342.732C-14 342.732 74.6108 389.242 131 342.732C180.5 301.905 265.68 341.748 248.702 318.754C231.724 295.76 203.154 285.034 174.573 283.111C140.826 280.841 127.096 314.067 93.2916 312.922Z" fill="url(#paint1_linear_118_1791)" fill-opacity="0.2"/>
<path d="M564.59 342.731C540.813 342.731 520 380 520 380H720C720 380 706.23 329 678.033 329C649.836 329 665.574 361.692 623.607 361.692C589.508 361.692 594.754 342.731 564.59 342.731Z" fill="url(#paint2_linear_118_1791)" fill-opacity="0.2"/>
<path d="M44.63 177.429C45.493 174.594 49.507 174.594 50.37 177.429L52.0511 182.952C52.3422 183.909 53.0909 184.658 54.0475 184.949L59.5706 186.63C62.4059 187.493 62.4059 191.507 59.5706 192.37L54.0475 194.051C53.0909 194.342 52.3422 195.091 52.0511 196.048L50.37 201.571C49.507 204.406 45.493 204.406 44.63 201.571L42.9489 196.048C42.6578 195.091 41.9091 194.342 40.9525 194.051L35.4294 192.37C32.5941 191.507 32.5941 187.493 35.4294 186.63L40.9525 184.949C41.9091 184.658 42.6578 183.909 42.9489 182.952L44.63 177.429Z" fill="#FFDB49"/>
</g>
<defs>
<linearGradient id="paint0_linear_118_1791" x1="360" y1="90" x2="360" y2="528" gradientUnits="userSpaceOnUse">
<stop stop-color="#AD94FF"/>
<stop offset="1" stop-color="#0897FF"/>
</linearGradient>
<linearGradient id="paint1_linear_118_1791" x1="118.452" y1="283" x2="118.452" y2="363.403" gradientUnits="userSpaceOnUse">
<stop stop-color="#472AC4"/>
<stop offset="1" stop-color="#472AC4" stop-opacity="0.1"/>
</linearGradient>
<linearGradient id="paint2_linear_118_1791" x1="620.328" y1="329" x2="620.328" y2="380" gradientUnits="userSpaceOnUse">
<stop stop-color="#472AC4"/>
<stop offset="1" stop-color="#472AC4" stop-opacity="0.1"/>
</linearGradient>
<clipPath id="clip0_118_1791">
<rect width="720" height="380" fill="white"/>
</clipPath>
<clipPath id="clip1_118_1791">
<rect x="48" y="90" width="624" height="438" rx="20" fill="white"/>
</clipPath>
<clipPath id="clip2_118_1791">
<rect width="588" height="80" fill="white" transform="translate(66 270)"/>
</clipPath>
</defs>
</svg>
