<svg width="720" height="380" viewBox="0 0 720 380" fill="none" xmlns="http://www.w3.org/2000/svg">
<g clip-path="url(#clip0_116_57)">
<rect width="720" height="380" fill="#F4F0FF"/>
<g clip-path="url(#clip1_116_57)">
<rect x="48" y="90" width="624" height="438" rx="20" fill="white"/>
<g clip-path="url(#clip2_116_57)">
<rect x="66.5" y="190.5" width="83" height="79" fill="white"/>
<rect x="66.5" y="190.5" width="83" height="79" stroke="#ECECEC"/>
<rect x="151" y="191" width="82" height="78" fill="white"/>
<rect x="151" y="191" width="82" height="78" stroke="#472AC4" stroke-width="2"/>
<rect width="34" height="30" transform="translate(155 216)" fill="#DFFAFF"/>
<path d="M163.504 236V234.932L166.252 231.956C166.72 231.44 167.716 230.432 167.716 229.508C167.716 228.848 167.248 228.404 166.564 228.404C165.808 228.404 165.316 228.944 165.316 229.736L163.6 229.58C163.6 228.032 164.764 227 166.516 227C168.268 227 169.42 227.936 169.42 229.376C169.42 230.636 168.556 231.656 167.368 232.904L165.712 234.632L169.528 234.596V236H163.504ZM171.745 236.12C171.157 236.12 170.677 235.64 170.677 235.052C170.677 234.464 171.157 233.984 171.745 233.984C172.333 233.984 172.813 234.464 172.813 235.052C172.813 235.64 172.333 236.12 171.745 236.12ZM177.13 236.12C175.102 236.12 173.746 234.296 173.746 231.56C173.746 228.824 175.102 227 177.13 227C179.158 227 180.502 228.824 180.502 231.56C180.502 234.296 179.158 236.12 177.13 236.12ZM177.13 234.716C178.114 234.716 178.762 233.456 178.762 231.56C178.762 229.664 178.114 228.404 177.13 228.404C176.146 228.404 175.498 229.664 175.498 231.56C175.498 233.456 176.146 234.716 177.13 234.716Z" fill="#0DAECE"/>
<rect width="33" height="30" transform="translate(195 216)" fill="#F8F3FF"/>
<path d="M205.64 236V229.292L203.912 230.516L203.072 229.316L206.048 227.12H207.332V236H205.64ZM210.011 236.12C209.423 236.12 208.943 235.64 208.943 235.052C208.943 234.464 209.423 233.984 210.011 233.984C210.599 233.984 211.079 234.464 211.079 235.052C211.079 235.64 210.599 236.12 210.011 236.12ZM215.396 236.12C213.368 236.12 212.012 234.296 212.012 231.56C212.012 228.824 213.368 227 215.396 227C217.424 227 218.768 228.824 218.768 231.56C218.768 234.296 217.424 236.12 215.396 236.12ZM215.396 234.716C216.38 234.716 217.028 233.456 217.028 231.56C217.028 229.664 216.38 228.404 215.396 228.404C214.412 228.404 213.764 229.664 213.764 231.56C213.764 233.456 214.412 234.716 215.396 234.716Z" fill="#9747FF"/>
<rect x="234.5" y="190.5" width="83" height="79" fill="white"/>
<rect x="234.5" y="190.5" width="83" height="79" stroke="#ECECEC"/>
<rect x="318.5" y="190.5" width="83" height="79" fill="white"/>
<rect x="318.5" y="190.5" width="83" height="79" stroke="#ECECEC"/>
<rect width="35" height="33" transform="translate(343 214)" fill="#F8F3FF"/>
<path d="M354.08 236V228.174L352.064 229.602L351.084 228.202L354.556 225.64H356.054V236H354.08ZM359.179 236.14C358.493 236.14 357.933 235.58 357.933 234.894C357.933 234.208 358.493 233.648 359.179 233.648C359.865 233.648 360.425 234.208 360.425 234.894C360.425 235.58 359.865 236.14 359.179 236.14ZM365.461 236.14C363.095 236.14 361.513 234.012 361.513 230.82C361.513 227.628 363.095 225.5 365.461 225.5C367.827 225.5 369.395 227.628 369.395 230.82C369.395 234.012 367.827 236.14 365.461 236.14ZM365.461 234.502C366.609 234.502 367.365 233.032 367.365 230.82C367.365 228.608 366.609 227.138 365.461 227.138C364.313 227.138 363.557 228.608 363.557 230.82C363.557 233.032 364.313 234.502 365.461 234.502Z" fill="#9747FF"/>
<rect x="402.5" y="190.5" width="83" height="79" fill="white"/>
<rect x="402.5" y="190.5" width="83" height="79" stroke="#ECECEC"/>
<rect width="35" height="33" transform="translate(427 214)" fill="#DFFAFF"/>
<path d="M438.08 236V228.174L436.064 229.602L435.084 228.202L438.556 225.64H440.054V236H438.08ZM443.179 236.14C442.493 236.14 441.933 235.58 441.933 234.894C441.933 234.208 442.493 233.648 443.179 233.648C443.865 233.648 444.425 234.208 444.425 234.894C444.425 235.58 443.865 236.14 443.179 236.14ZM449.461 236.14C447.095 236.14 445.513 234.012 445.513 230.82C445.513 227.628 447.095 225.5 449.461 225.5C451.827 225.5 453.395 227.628 453.395 230.82C453.395 234.012 451.827 236.14 449.461 236.14ZM449.461 234.502C450.609 234.502 451.365 233.032 451.365 230.82C451.365 228.608 450.609 227.138 449.461 227.138C448.313 227.138 447.557 228.608 447.557 230.82C447.557 233.032 448.313 234.502 449.461 234.502Z" fill="#0DAECE"/>
<rect x="486.5" y="190.5" width="83" height="79" fill="white"/>
<rect x="486.5" y="190.5" width="83" height="79" stroke="#ECECEC"/>
<rect x="570.5" y="190.5" width="83" height="79" fill="white"/>
<rect x="570.5" y="190.5" width="83" height="79" stroke="#ECECEC"/>
<g clip-path="url(#clip3_116_57)">
<rect x="66.5" y="270.5" width="83" height="79" fill="white"/>
<rect x="66.5" y="270.5" width="83" height="79" stroke="#ECECEC"/>
<rect width="37" height="33" transform="translate(90 293)" fill="#F8F3FF"/>
<path d="M102.34 308.714C104.272 308.756 105.546 310.002 105.546 311.822C105.546 313.81 104.034 315.14 101.598 315.14C100.324 315.14 99.106 314.762 98.434 314.104L99.176 312.662C99.68 313.194 100.478 313.502 101.374 313.502C102.69 313.502 103.502 312.83 103.502 311.836C103.502 310.842 102.718 310.212 101.528 310.212C100.996 310.212 100.534 310.324 100.114 310.548L99.582 309.554L102.438 306.278H98.91V304.64H105.014V305.872L102.34 308.714ZM108.052 315.14C107.366 315.14 106.806 314.58 106.806 313.894C106.806 313.208 107.366 312.648 108.052 312.648C108.738 312.648 109.298 313.208 109.298 313.894C109.298 314.58 108.738 315.14 108.052 315.14ZM114.335 315.14C111.969 315.14 110.387 313.012 110.387 309.82C110.387 306.628 111.969 304.5 114.335 304.5C116.701 304.5 118.269 306.628 118.269 309.82C118.269 313.012 116.701 315.14 114.335 315.14ZM114.335 313.502C115.483 313.502 116.239 312.032 116.239 309.82C116.239 307.608 115.483 306.138 114.335 306.138C113.187 306.138 112.431 307.608 112.431 309.82C112.431 312.032 113.187 313.502 114.335 313.502Z" fill="#9747FF"/>
<rect x="150.5" y="270.5" width="83" height="79" fill="white"/>
<rect x="150.5" y="270.5" width="83" height="79" stroke="#ECECEC"/>
<rect x="234.5" y="270.5" width="83" height="79" fill="white"/>
<rect x="234.5" y="270.5" width="83" height="79" stroke="#ECECEC"/>
<rect width="35" height="33" transform="translate(259 294)" fill="#DFFAFF"/>
<path d="M270.08 316V308.174L268.064 309.602L267.084 308.202L270.556 305.64H272.054V316H270.08ZM275.179 316.14C274.493 316.14 273.933 315.58 273.933 314.894C273.933 314.208 274.493 313.648 275.179 313.648C275.865 313.648 276.425 314.208 276.425 314.894C276.425 315.58 275.865 316.14 275.179 316.14ZM281.461 316.14C279.095 316.14 277.513 314.012 277.513 310.82C277.513 307.628 279.095 305.5 281.461 305.5C283.827 305.5 285.395 307.628 285.395 310.82C285.395 314.012 283.827 316.14 281.461 316.14ZM281.461 314.502C282.609 314.502 283.365 313.032 283.365 310.82C283.365 308.608 282.609 307.138 281.461 307.138C280.313 307.138 279.557 308.608 279.557 310.82C279.557 313.032 280.313 314.502 281.461 314.502Z" fill="#0DAECE"/>
<rect x="318.5" y="270.5" width="83" height="79" fill="white"/>
<rect x="318.5" y="270.5" width="83" height="79" stroke="#ECECEC"/>
<rect x="402.5" y="270.5" width="83" height="79" fill="white"/>
<rect x="402.5" y="270.5" width="83" height="79" stroke="#ECECEC"/>
<rect x="486.5" y="270.5" width="83" height="79" fill="white"/>
<rect x="486.5" y="270.5" width="83" height="79" stroke="#ECECEC"/>
<rect x="570.5" y="270.5" width="83" height="79" fill="white"/>
<rect x="570.5" y="270.5" width="83" height="79" stroke="#ECECEC"/>
</g>
<rect x="66.5" y="350.5" width="83" height="79" fill="white"/>
<rect x="66.5" y="350.5" width="83" height="79" stroke="#ECECEC"/>
<rect width="35" height="33" transform="translate(91 374)" fill="#DFFAFF"/>
<rect x="150.5" y="350.5" width="83" height="79" fill="white"/>
<rect x="150.5" y="350.5" width="83" height="79" stroke="#ECECEC"/>
<rect x="234.5" y="350.5" width="83" height="79" fill="white"/>
<rect x="234.5" y="350.5" width="83" height="79" stroke="#ECECEC"/>
<rect x="318.5" y="350.5" width="83" height="79" fill="white"/>
<rect x="318.5" y="350.5" width="83" height="79" stroke="#ECECEC"/>
<rect width="37" height="33" transform="translate(342 374)" fill="#F8F3FF"/>
<rect x="402.5" y="350.5" width="83" height="79" fill="white"/>
<rect x="402.5" y="350.5" width="83" height="79" stroke="#ECECEC"/>
<rect x="486.5" y="350.5" width="83" height="79" fill="white"/>
<rect x="486.5" y="350.5" width="83" height="79" stroke="#ECECEC"/>
<rect x="570.5" y="350.5" width="83" height="79" fill="white"/>
<rect x="570.5" y="350.5" width="83" height="79" stroke="#ECECEC"/>
</g>
<path d="M99.09 173H97.116L96.71 165.93L93.546 173H92.454L89.29 165.958L88.884 173H86.91L87.61 162.584H89.78L93 169.766L96.22 162.584H98.39L99.09 173ZM106.048 173.14C102.786 173.14 100.602 171.012 100.602 167.82C100.602 164.628 102.786 162.5 106.048 162.5C109.296 162.5 111.48 164.628 111.48 167.82C111.48 171.012 109.296 173.14 106.048 173.14ZM106.048 171.502C108.078 171.502 109.436 170.032 109.436 167.82C109.436 165.608 108.078 164.138 106.048 164.138C104.018 164.138 102.646 165.608 102.646 167.82C102.646 170.032 104.018 171.502 106.048 171.502ZM113.318 173V162.64H114.55L121.074 169.654L121.032 162.64H123.006V173H121.788L115.264 165.986L115.292 173H113.318Z" fill="#8A8B92"/>
<path d="M186.498 162.64V164.278H183.334V173H181.36V164.278H178.21V162.64H186.498ZM192.365 173.14C189.635 173.14 187.815 171.516 187.815 169.08V162.64H189.789V168.996C189.789 170.494 190.825 171.502 192.365 171.502C193.891 171.502 194.913 170.494 194.913 168.996V162.64H196.887V169.08C196.887 171.516 195.081 173.14 192.365 173.14ZM201.194 171.362H206.374V173H199.22V162.64H206.262V164.278H201.194V166.938H205.814V168.562H201.194V171.362Z" fill="#472AC4"/>
<path d="M274.79 162.64H276.89L273.32 173H271.486L268.966 165.426L266.46 173H264.626L261.042 162.64H263.156L265.648 170.354L268.042 162.64H269.89L272.312 170.354L274.79 162.64ZM280.134 171.362H285.314V173H278.16V162.64H285.202V164.278H280.134V166.938H284.754V168.562H280.134V171.362ZM291.339 162.64C294.405 162.64 296.449 164.712 296.449 167.82C296.449 170.928 294.405 173 291.339 173H287.265V162.64H291.339ZM291.339 171.362C293.173 171.362 294.391 169.948 294.391 167.82C294.391 165.692 293.173 164.278 291.339 164.278H289.239V171.362H291.339Z" fill="#8A8B92"/>
<path d="M359.498 162.64V164.278H356.334V173H354.36V164.278H351.21V162.64H359.498ZM368.459 162.64H370.433V173H368.459V168.534H362.915V173H360.941V162.64H362.915V166.91H368.459V162.64ZM377.314 173.14C374.584 173.14 372.764 171.516 372.764 169.08V162.64H374.738V168.996C374.738 170.494 375.774 171.502 377.314 171.502C378.84 171.502 379.862 170.494 379.862 168.996V162.64H381.836V169.08C381.836 171.516 380.03 173.14 377.314 173.14Z" fill="#8A8B92"/>
<path d="M443.77 164.278H439.206V167.218H443.126V168.842H439.206V173H437.232V162.64H443.77V164.278ZM451.93 173L449.564 169.192H447.45V173H445.476V162.64H449.816C452 162.64 453.442 163.956 453.442 165.916C453.442 167.26 452.728 168.296 451.524 168.814L454.254 173H451.93ZM447.45 164.278V167.554H449.452C450.628 167.554 451.412 166.896 451.412 165.916C451.412 164.936 450.684 164.278 449.592 164.278H447.45ZM455.716 173V162.64H457.69V173H455.716Z" fill="#8A8B92"/>
<path d="M516.508 173.14C515.08 173.14 513.75 172.692 512.826 171.838L513.568 170.508C514.45 171.236 515.43 171.502 516.382 171.502C517.684 171.502 518.44 171.054 518.44 170.256C518.44 169.416 517.572 169.052 516.27 168.688L515.682 168.52C513.974 168.058 512.7 167.344 512.7 165.65C512.7 163.76 514.226 162.5 516.536 162.5C517.866 162.5 519.042 162.892 520.036 163.69L519.154 165.062C518.384 164.446 517.558 164.138 516.55 164.138C515.458 164.138 514.744 164.6 514.744 165.328C514.744 166.154 515.57 166.448 516.592 166.742L517.194 166.91C518.79 167.344 520.484 168.212 520.484 170.074C520.484 171.908 518.888 173.14 516.508 173.14ZM529.467 173L528.627 170.942H523.853L523.013 173H520.899L525.323 162.64H527.157L531.581 173H529.467ZM524.525 169.304H527.969L526.247 165.09L524.525 169.304ZM539.01 162.64V164.278H535.846V173H533.872V164.278H530.722V162.64H539.01Z" fill="#8A8B92"/>
<path d="M597.508 173.14C596.08 173.14 594.75 172.692 593.826 171.838L594.568 170.508C595.45 171.236 596.43 171.502 597.382 171.502C598.684 171.502 599.44 171.054 599.44 170.256C599.44 169.416 598.572 169.052 597.27 168.688L596.682 168.52C594.974 168.058 593.7 167.344 593.7 165.65C593.7 163.76 595.226 162.5 597.536 162.5C598.866 162.5 600.042 162.892 601.036 163.69L600.154 165.062C599.384 164.446 598.558 164.138 597.55 164.138C596.458 164.138 595.744 164.6 595.744 165.328C595.744 166.154 596.57 166.448 597.592 166.742L598.194 166.91C599.79 167.344 601.484 168.212 601.484 170.074C601.484 171.908 599.888 173.14 597.508 173.14ZM607.761 173.14C605.031 173.14 603.211 171.516 603.211 169.08V162.64H605.185V168.996C605.185 170.494 606.221 171.502 607.761 171.502C609.287 171.502 610.309 170.494 610.309 168.996V162.64H612.283V169.08C612.283 171.516 610.477 173.14 607.761 173.14ZM614.617 173V162.64H615.849L622.373 169.654L622.331 162.64H624.305V173H623.087L616.563 165.986L616.591 173H614.617Z" fill="#8A8B92"/>
<rect x="422.5" y="108.5" width="63" height="32" rx="4.5" stroke="#472AC4"/>
<path d="M445.306 119.64C448.372 119.64 450.416 121.712 450.416 124.82C450.416 127.928 448.372 130 445.306 130H441.232V119.64H445.306ZM445.306 128.362C447.14 128.362 448.358 126.948 448.358 124.82C448.358 122.692 447.14 121.278 445.306 121.278H443.206V128.362H445.306ZM454.954 122.314C456.886 122.314 458.188 123.476 458.188 125.254V130H456.354L456.312 128.922C455.808 129.706 454.94 130.14 454.016 130.14C452.448 130.14 451.398 129.202 451.398 127.802C451.398 126.346 452.686 125.394 454.618 125.394C455.136 125.394 455.71 125.45 456.284 125.562V125.422C456.284 124.414 455.612 123.812 454.464 123.812C453.75 123.812 453.176 124.022 452.7 124.414L451.874 123.294C452.686 122.636 453.638 122.314 454.954 122.314ZM454.562 128.782C455.444 128.782 456.27 128.082 456.284 126.85C455.794 126.752 455.29 126.696 454.856 126.696C453.96 126.696 453.386 127.116 453.386 127.76C453.386 128.376 453.792 128.782 454.562 128.782ZM460.968 133.22C460.534 133.22 460.128 133.136 459.848 133.01L460.044 131.456C460.212 131.54 460.408 131.582 460.646 131.582C461.262 131.582 461.514 131.204 461.808 130.63L462.186 129.832L458.952 122.454H461.038L463.166 127.774L465.154 122.454H467.226L463.67 130.868C463.068 132.324 462.424 133.22 460.968 133.22Z" fill="#5D5C64"/>
<rect x="503.5" y="108.5" width="63" height="32" rx="4.5" stroke="#472AC4"/>
<path d="M528.29 119.64H530.39L526.82 130H524.986L522.466 122.426L519.96 130H518.126L514.542 119.64H516.656L519.148 127.354L521.542 119.64H523.39L525.812 127.354L528.29 119.64ZM537.781 126.108C537.781 126.374 537.753 126.682 537.725 126.906H532.265C532.405 127.97 532.965 128.642 534.071 128.642C534.841 128.642 535.471 128.292 535.919 127.746L537.389 128.488C536.717 129.496 535.527 130.14 534.099 130.14C531.789 130.14 530.249 128.6 530.249 126.276C530.249 123.896 531.747 122.314 534.015 122.314C536.269 122.314 537.781 123.826 537.781 126.108ZM534.015 123.812C533.007 123.812 532.419 124.47 532.265 125.618H535.779C535.639 124.47 535.037 123.812 534.015 123.812ZM546.353 126.108C546.353 126.374 546.325 126.682 546.297 126.906H540.837C540.977 127.97 541.537 128.642 542.643 128.642C543.413 128.642 544.043 128.292 544.491 127.746L545.961 128.488C545.289 129.496 544.099 130.14 542.671 130.14C540.361 130.14 538.821 128.6 538.821 126.276C538.821 123.896 540.319 122.314 542.587 122.314C544.841 122.314 546.353 123.826 546.353 126.108ZM542.587 123.812C541.579 123.812 540.991 124.47 540.837 125.618H544.351C544.211 124.47 543.609 123.812 542.587 123.812ZM553.05 130L550.362 126.822H549.718V130H547.814V119.08H549.718V125.254H550.376L552.868 122.454H555.276L551.93 126.024L555.458 130H553.05Z" fill="#5D5C64"/>
<rect x="584" y="108" width="64" height="33" rx="5" fill="#472AC4"/>
<path d="M605.09 130H603.116L602.71 122.93L599.546 130H598.454L595.29 122.958L594.884 130H592.91L593.61 119.584H595.78L599 126.766L602.22 119.584H604.39L605.09 130ZM610.578 130.14C608.156 130.14 606.532 128.572 606.532 126.22C606.532 123.882 608.156 122.314 610.578 122.314C612.986 122.314 614.61 123.882 614.61 126.22C614.61 128.572 612.986 130.14 610.578 130.14ZM610.578 128.502C611.81 128.502 612.636 127.592 612.636 126.22C612.636 124.848 611.81 123.938 610.578 123.938C609.332 123.938 608.506 124.848 608.506 126.22C608.506 127.592 609.332 128.502 610.578 128.502ZM620.438 122.314C622.244 122.314 623.448 123.49 623.448 125.254V130H621.544V125.562C621.544 124.582 620.844 123.938 619.78 123.938C618.716 123.938 618.016 124.582 618.016 125.562V130H616.112V122.454H617.946L617.974 123.406C618.548 122.692 619.43 122.314 620.438 122.314ZM628.676 128.502C629.11 128.502 629.544 128.432 629.978 128.25V129.79C629.404 130.028 628.732 130.14 628.06 130.14C626.674 130.14 625.736 129.188 625.736 127.76V124.008H624.49V122.454H625.736V120.242H627.64V122.454H629.866V124.008H627.64V127.368C627.64 128.054 628.06 128.502 628.676 128.502ZM635.573 122.314C637.379 122.314 638.583 123.49 638.583 125.254V130H636.679V125.562C636.679 124.582 635.979 123.938 634.915 123.938C633.851 123.938 633.151 124.582 633.151 125.562V130H631.247V119.08H633.151V123.364C633.725 122.664 634.593 122.314 635.573 122.314Z" fill="white"/>
<g filter="url(#filter0_d_116_57)">
<rect width="186" height="320" transform="translate(486 190)" fill="white"/>
<path d="M506.526 224L505.686 221.942H500.912L500.072 224H497.958L502.382 213.64H504.216L508.64 224H506.526ZM501.584 220.304H505.028L503.306 216.09L501.584 220.304ZM514.041 213.64C516.225 213.64 517.667 214.984 517.667 216.986C517.667 219.072 516.197 220.472 513.971 220.472H511.815V224H509.841V213.64H514.041ZM513.831 218.834C514.951 218.834 515.637 218.12 515.637 217.056C515.637 215.992 514.923 215.278 513.831 215.278H511.815V218.834H513.831ZM525.743 224L523.377 220.192H521.263V224H519.289V213.64H523.629C525.813 213.64 527.255 214.956 527.255 216.916C527.255 218.26 526.541 219.296 525.337 219.814L528.067 224H525.743ZM521.263 215.278V218.554H523.265C524.441 218.554 525.225 217.896 525.225 216.916C525.225 215.936 524.497 215.278 523.405 215.278H521.263ZM534.836 224V216.174L532.82 217.602L531.84 216.202L535.312 213.64H536.81V224H534.836Z" fill="#472AC4"/>
<rect x="498" y="251" width="162" height="28" rx="5" fill="#DFFAFF"/>
<path d="M510.36 269.1C508.01 269.1 506.43 267.57 506.43 265.28C506.43 263.01 508 261.5 510.35 261.5C511.56 261.5 512.54 261.9 513.27 262.69L512.38 263.59C511.96 263.05 511.25 262.67 510.37 262.67C508.88 262.67 507.89 263.72 507.89 265.29C507.89 266.88 508.9 267.93 510.39 267.93C511.39 267.93 512.08 267.48 512.55 266.76L513.5 267.61C512.79 268.58 511.71 269.1 510.36 269.1ZM516.916 269.1C515.186 269.1 514.026 267.98 514.026 266.3C514.026 264.63 515.186 263.51 516.916 263.51C518.636 263.51 519.796 264.63 519.796 266.3C519.796 267.98 518.636 269.1 516.916 269.1ZM516.916 267.93C517.796 267.93 518.386 267.28 518.386 266.3C518.386 265.32 517.796 264.67 516.916 264.67C516.026 264.67 515.436 265.32 515.436 266.3C515.436 267.28 516.026 267.93 516.916 267.93ZM522.2 264.33C522.63 263.8 523.31 263.51 524.18 263.51L524.09 264.76C522.97 264.76 522.23 265.3 522.23 266.11V269H520.87V263.61H522.18L522.2 264.33ZM529.788 266.22C529.788 266.41 529.768 266.63 529.748 266.79H525.848C525.948 267.55 526.348 268.03 527.138 268.03C527.688 268.03 528.138 267.78 528.458 267.39L529.508 267.92C529.028 268.64 528.178 269.1 527.158 269.1C525.508 269.1 524.408 268 524.408 266.34C524.408 264.64 525.478 263.51 527.098 263.51C528.708 263.51 529.788 264.59 529.788 266.22ZM527.098 264.58C526.378 264.58 525.958 265.05 525.848 265.87H528.358C528.258 265.05 527.828 264.58 527.098 264.58ZM538.369 269L537.769 267.53H534.359L533.759 269H532.249L535.409 261.6H536.719L539.879 269H538.369ZM534.839 266.36H537.299L536.069 263.35L534.839 266.36ZM543.029 269.1C541.309 269.1 540.159 267.98 540.159 266.3C540.159 264.63 541.319 263.51 543.059 263.51C543.779 263.51 544.409 263.74 544.909 264.13L544.139 265.05C543.859 264.81 543.529 264.67 543.079 264.67C542.179 264.67 541.569 265.32 541.569 266.3C541.569 267.28 542.169 267.93 543.089 267.93C543.589 267.93 543.999 267.78 544.309 267.45L545.079 268.35C544.569 268.86 543.839 269.1 543.029 269.1ZM548.428 267.93C548.738 267.93 549.048 267.88 549.358 267.75V268.85C548.948 269.02 548.468 269.1 547.988 269.1C546.998 269.1 546.328 268.42 546.328 267.4V264.72H545.438V263.61H546.328V262.03H547.688V263.61H549.278V264.72H547.688V267.12C547.688 267.61 547.988 267.93 548.428 267.93ZM550.954 262.73C550.484 262.73 550.144 262.4 550.144 261.93C550.144 261.46 550.484 261.12 550.954 261.12C551.424 261.12 551.754 261.46 551.754 261.93C551.754 262.4 551.424 262.73 550.954 262.73ZM550.274 269V263.61H551.634V269H550.274ZM554.668 269L552.388 263.61H553.878L555.348 267.45L556.808 263.61H558.298L556.028 269H554.668ZM559.734 262.73C559.264 262.73 558.924 262.4 558.924 261.93C558.924 261.46 559.264 261.12 559.734 261.12C560.204 261.12 560.534 261.46 560.534 261.93C560.534 262.4 560.204 262.73 559.734 262.73ZM559.054 269V263.61H560.414V269H559.054ZM564.277 267.93C564.587 267.93 564.897 267.88 565.207 267.75V268.85C564.797 269.02 564.317 269.1 563.837 269.1C562.847 269.1 562.177 268.42 562.177 267.4V264.72H561.287V263.61H562.177V262.03H563.537V263.61H565.127V264.72H563.537V267.12C563.537 267.61 563.837 267.93 564.277 267.93ZM566.885 271.3C566.575 271.3 566.285 271.24 566.085 271.15L566.225 270.04C566.345 270.1 566.485 270.13 566.655 270.13C567.095 270.13 567.275 269.86 567.485 269.45L567.755 268.88L565.445 263.61H566.935L568.455 267.41L569.875 263.61H571.355L568.815 269.62C568.385 270.66 567.925 271.3 566.885 271.3Z" fill="#0DAECE"/>
<path d="M582.42 269V268.11L584.71 265.63C585.1 265.2 585.93 264.36 585.93 263.59C585.93 263.04 585.54 262.67 584.97 262.67C584.34 262.67 583.93 263.12 583.93 263.78L582.5 263.65C582.5 262.36 583.47 261.5 584.93 261.5C586.39 261.5 587.35 262.28 587.35 263.48C587.35 264.53 586.63 265.38 585.64 266.42L584.26 267.86L587.44 267.83V269H582.42ZM589.288 269.1C588.798 269.1 588.398 268.7 588.398 268.21C588.398 267.72 588.798 267.32 589.288 267.32C589.778 267.32 590.178 267.72 590.178 268.21C590.178 268.7 589.778 269.1 589.288 269.1ZM593.775 269.1C592.085 269.1 590.955 267.58 590.955 265.3C590.955 263.02 592.085 261.5 593.775 261.5C595.465 261.5 596.585 263.02 596.585 265.3C596.585 267.58 595.465 269.1 593.775 269.1ZM593.775 267.93C594.595 267.93 595.135 266.88 595.135 265.3C595.135 263.72 594.595 262.67 593.775 262.67C592.955 262.67 592.415 263.72 592.415 265.3C592.415 266.88 592.955 267.93 593.775 267.93Z" fill="#0DAECE"/>
<rect x="498" y="295" width="162" height="28" rx="5" fill="#F8F3FF"/>
<path d="M509.22 313.1C508.2 313.1 507.25 312.78 506.59 312.17L507.12 311.22C507.75 311.74 508.45 311.93 509.13 311.93C510.06 311.93 510.6 311.61 510.6 311.04C510.6 310.44 509.98 310.18 509.05 309.92L508.63 309.8C507.41 309.47 506.5 308.96 506.5 307.75C506.5 306.4 507.59 305.5 509.24 305.5C510.19 305.5 511.03 305.78 511.74 306.35L511.11 307.33C510.56 306.89 509.97 306.67 509.25 306.67C508.47 306.67 507.96 307 507.96 307.52C507.96 308.11 508.55 308.32 509.28 308.53L509.71 308.65C510.85 308.96 512.06 309.58 512.06 310.91C512.06 312.22 510.92 313.1 509.22 313.1ZM516.804 307.61H518.164V313H516.854L516.834 312.34C516.444 312.84 515.854 313.1 515.174 313.1C513.954 313.1 513.124 312.26 513.124 310.99V307.61H514.484V310.78C514.484 311.47 514.954 311.93 515.654 311.93C516.344 311.93 516.804 311.47 516.804 310.78V307.61ZM522.692 307.51C524.142 307.51 525.272 308.61 525.272 310.28C525.272 311.97 524.142 313.1 522.692 313.1C521.872 313.1 521.282 312.77 520.902 312.22V315.2H519.542V307.61H520.852L520.882 308.42C521.262 307.85 521.862 307.51 522.692 307.51ZM522.382 311.93C523.262 311.93 523.862 311.28 523.862 310.29C523.862 309.32 523.262 308.67 522.382 308.67C521.492 308.67 520.902 309.32 520.902 310.3C520.902 311.28 521.492 311.93 522.382 311.93ZM529.488 307.51C530.938 307.51 532.068 308.61 532.068 310.28C532.068 311.97 530.938 313.1 529.488 313.1C528.668 313.1 528.078 312.77 527.698 312.22V315.2H526.338V307.61H527.648L527.678 308.42C528.058 307.85 528.658 307.51 529.488 307.51ZM529.178 311.93C530.058 311.93 530.658 311.28 530.658 310.29C530.658 309.32 530.058 308.67 529.178 308.67C528.288 308.67 527.698 309.32 527.698 310.3C527.698 311.28 528.288 311.93 529.178 311.93ZM535.715 313.1C533.985 313.1 532.825 311.98 532.825 310.3C532.825 308.63 533.985 307.51 535.715 307.51C537.435 307.51 538.595 308.63 538.595 310.3C538.595 311.98 537.435 313.1 535.715 313.1ZM535.715 311.93C536.595 311.93 537.185 311.28 537.185 310.3C537.185 309.32 536.595 308.67 535.715 308.67C534.825 308.67 534.235 309.32 534.235 310.3C534.235 311.28 534.825 311.93 535.715 311.93ZM540.999 308.33C541.429 307.8 542.109 307.51 542.979 307.51L542.889 308.76C541.769 308.76 541.029 309.3 541.029 310.11V313H539.669V307.61H540.979L540.999 308.33ZM546.231 311.93C546.541 311.93 546.851 311.88 547.161 311.75V312.85C546.751 313.02 546.271 313.1 545.791 313.1C544.801 313.1 544.131 312.42 544.131 311.4V308.72H543.241V307.61H544.131V306.03H545.491V307.61H547.081V308.72H545.491V311.12C545.491 311.61 545.791 311.93 546.231 311.93ZM555.606 313L555.006 311.53H551.596L550.996 313H549.486L552.646 305.6H553.956L557.116 313H555.606ZM552.076 310.36H554.536L553.306 307.35L552.076 310.36ZM560.266 313.1C558.546 313.1 557.396 311.98 557.396 310.3C557.396 308.63 558.556 307.51 560.296 307.51C561.016 307.51 561.646 307.74 562.146 308.13L561.376 309.05C561.096 308.81 560.766 308.67 560.316 308.67C559.416 308.67 558.806 309.32 558.806 310.3C558.806 311.28 559.406 311.93 560.326 311.93C560.826 311.93 561.236 311.78 561.546 311.45L562.316 312.35C561.806 312.86 561.076 313.1 560.266 313.1ZM565.664 311.93C565.974 311.93 566.284 311.88 566.594 311.75V312.85C566.184 313.02 565.704 313.1 565.224 313.1C564.234 313.1 563.564 312.42 563.564 311.4V308.72H562.674V307.61H563.564V306.03H564.924V307.61H566.514V308.72H564.924V311.12C564.924 311.61 565.224 311.93 565.664 311.93ZM568.191 306.73C567.721 306.73 567.381 306.4 567.381 305.93C567.381 305.46 567.721 305.12 568.191 305.12C568.661 305.12 568.991 305.46 568.991 305.93C568.991 306.4 568.661 306.73 568.191 306.73ZM567.511 313V307.61H568.871V313H567.511ZM571.904 313L569.624 307.61H571.114L572.584 311.45L574.044 307.61H575.534L573.264 313H571.904ZM576.97 306.73C576.5 306.73 576.16 306.4 576.16 305.93C576.16 305.46 576.5 305.12 576.97 305.12C577.44 305.12 577.77 305.46 577.77 305.93C577.77 306.4 577.44 306.73 576.97 306.73ZM576.29 313V307.61H577.65V313H576.29ZM581.514 311.93C581.824 311.93 582.134 311.88 582.444 311.75V312.85C582.034 313.02 581.554 313.1 581.074 313.1C580.084 313.1 579.414 312.42 579.414 311.4V308.72H578.524V307.61H579.414V306.03H580.774V307.61H582.364V308.72H580.774V311.12C580.774 311.61 581.074 311.93 581.514 311.93ZM584.121 315.3C583.811 315.3 583.521 315.24 583.321 315.15L583.461 314.04C583.581 314.1 583.721 314.13 583.891 314.13C584.331 314.13 584.511 313.86 584.721 313.45L584.991 312.88L582.681 307.61H584.171L585.691 311.41L587.111 307.61H588.591L586.051 313.62C585.621 314.66 585.161 315.3 584.121 315.3Z" fill="#9747FF"/>
<path d="M601.2 313V307.41L599.76 308.43L599.06 307.43L601.54 305.6H602.61V313H601.2ZM604.842 313.1C604.352 313.1 603.952 312.7 603.952 312.21C603.952 311.72 604.352 311.32 604.842 311.32C605.332 311.32 605.732 311.72 605.732 312.21C605.732 312.7 605.332 313.1 604.842 313.1ZM609.33 313.1C607.64 313.1 606.51 311.58 606.51 309.3C606.51 307.02 607.64 305.5 609.33 305.5C611.02 305.5 612.14 307.02 612.14 309.3C612.14 311.58 611.02 313.1 609.33 313.1ZM609.33 311.93C610.15 311.93 610.69 310.88 610.69 309.3C610.69 307.72 610.15 306.67 609.33 306.67C608.51 306.67 607.97 307.72 607.97 309.3C607.97 310.88 608.51 311.93 609.33 311.93Z" fill="#9747FF"/>
<rect x="498" y="339" width="116" height="32" rx="16" fill="#472AC4"/>
<mask id="mask0_116_57" style="mask-type:alpha" maskUnits="userSpaceOnUse" x="506" y="347" width="16" height="16">
<rect x="506" y="347" width="16" height="16" fill="#D9D9D9"/>
</mask>
<g mask="url(#mask0_116_57)">
<path d="M513.333 355.667H509.333V354.333H513.333V350.333H514.666V354.333H518.666V355.667H514.666V359.667H513.333V355.667Z" fill="white"/>
</g>
<path d="M532.09 359L531.49 357.53H528.08L527.48 359H525.97L529.13 351.6H530.44L533.6 359H532.09ZM528.56 356.36H531.02L529.79 353.35L528.56 356.36ZM538.26 351.2H539.62V359H538.31L538.28 358.19C537.9 358.76 537.3 359.1 536.47 359.1C535.01 359.1 533.89 357.99 533.89 356.33C533.89 354.64 535.01 353.51 536.47 353.51C537.29 353.51 537.88 353.84 538.26 354.39V351.2ZM536.78 357.93C537.66 357.93 538.26 357.28 538.26 356.3C538.26 355.33 537.66 354.67 536.78 354.67C535.89 354.67 535.3 355.33 535.3 356.31C535.3 357.28 535.89 357.93 536.78 357.93ZM545.057 351.2H546.417V359H545.107L545.077 358.19C544.697 358.76 544.097 359.1 543.267 359.1C541.807 359.1 540.687 357.99 540.687 356.33C540.687 354.64 541.807 353.51 543.267 353.51C544.087 353.51 544.677 353.84 545.057 354.39V351.2ZM543.577 357.93C544.457 357.93 545.057 357.28 545.057 356.3C545.057 355.33 544.457 354.67 543.577 354.67C542.687 354.67 542.097 355.33 542.097 356.31C542.097 357.28 542.687 357.93 543.577 357.93ZM555.064 359L553.374 356.28H551.864V359H550.454V351.6H553.554C555.114 351.6 556.144 352.54 556.144 353.94C556.144 354.9 555.634 355.64 554.774 356.01L556.724 359H555.064ZM551.864 352.77V355.11H553.294C554.134 355.11 554.694 354.64 554.694 353.94C554.694 353.24 554.174 352.77 553.394 352.77H551.864ZM563.279 357.93C563.589 357.93 563.899 357.88 564.219 357.75V358.85C563.809 359.02 563.319 359.1 562.839 359.1C562.209 359.1 561.709 358.82 561.429 358.36C560.979 358.84 560.339 359.1 559.619 359.1C558.269 359.1 557.339 358.24 557.339 356.96C557.339 356.06 557.859 355.36 558.719 355C558.089 354.68 557.719 354.12 557.719 353.42C557.719 352.27 558.699 351.5 560.159 351.5C561.589 351.5 562.549 352.29 562.549 353.45V354.5H564.139V355.56H562.549V357.12C562.549 357.61 562.839 357.93 563.279 357.93ZM560.159 352.67C559.539 352.67 559.139 353.03 559.139 353.57C559.139 354.12 559.539 354.5 560.159 354.5H561.189V353.59C561.189 353.03 560.779 352.67 560.159 352.67ZM559.959 357.93C560.609 357.93 561.189 357.6 561.189 356.79V355.56H560.159C559.309 355.56 558.749 356.04 558.749 356.76C558.749 357.46 559.239 357.93 559.959 357.93ZM568.452 351.6C570.642 351.6 572.102 353.08 572.102 355.3C572.102 357.52 570.642 359 568.452 359H565.542V351.6H568.452ZM568.452 357.83C569.762 357.83 570.632 356.82 570.632 355.3C570.632 353.78 569.762 352.77 568.452 352.77H566.952V357.83H568.452ZM581.264 351.6H582.674V359H581.264V355.81H577.304V359H575.894V351.6H577.304V354.65H581.264V351.6ZM586.79 359.1C585.06 359.1 583.9 357.98 583.9 356.3C583.9 354.63 585.06 353.51 586.79 353.51C588.51 353.51 589.67 354.63 589.67 356.3C589.67 357.98 588.51 359.1 586.79 359.1ZM586.79 357.93C587.67 357.93 588.26 357.28 588.26 356.3C588.26 355.32 587.67 354.67 586.79 354.67C585.9 354.67 585.31 355.32 585.31 356.3C585.31 357.28 585.9 357.93 586.79 357.93ZM594.353 353.61H595.713V359H594.403L594.383 358.34C593.993 358.84 593.403 359.1 592.723 359.1C591.503 359.1 590.673 358.26 590.673 356.99V353.61H592.033V356.78C592.033 357.47 592.503 357.93 593.203 357.93C593.893 357.93 594.353 357.47 594.353 356.78V353.61ZM598.42 354.33C598.85 353.8 599.53 353.51 600.4 353.51L600.31 354.76C599.19 354.76 598.45 355.3 598.45 356.11V359H597.09V353.61H598.4L598.42 354.33ZM602.914 359.1C602.094 359.1 601.364 358.89 600.874 358.46L601.384 357.64C601.894 357.94 602.404 358.04 602.934 358.04C603.434 358.04 603.774 357.83 603.774 357.5C603.774 357.17 603.394 356.99 602.854 356.85L602.404 356.73C601.494 356.49 600.874 356.14 600.874 355.29C600.874 354.22 601.714 353.51 602.994 353.51C603.804 353.51 604.494 353.68 605.024 354.04L604.454 354.93C604.024 354.69 603.564 354.58 603.084 354.58C602.594 354.58 602.254 354.76 602.254 355.07C602.254 355.39 602.594 355.54 603.064 355.66L603.514 355.79C604.434 356.03 605.164 356.45 605.164 357.4C605.164 358.42 604.264 359.1 602.914 359.1Z" fill="white"/>
</g>
</g>
<rect x="48.5" y="90.5" width="623" height="437" rx="19.5" stroke="url(#paint0_linear_116_57)"/>
<path d="M199.039 55V35.232H202.175L209.959 47.356H208.363L216.119 35.232H219.283V55H214.887V42.652L215.671 42.848L210.603 50.744H207.691L202.651 42.848L203.407 42.652V55H199.039ZM228.73 55.308C227.479 55.308 226.369 55.056 225.398 54.552C224.446 54.0293 223.699 53.32 223.158 52.424C222.617 51.5093 222.346 50.464 222.346 49.288V41.392H226.63V49.232C226.63 49.6987 226.705 50.1 226.854 50.436C227.022 50.772 227.265 51.0333 227.582 51.22C227.899 51.4067 228.282 51.5 228.73 51.5C229.365 51.5 229.869 51.304 230.242 50.912C230.615 50.5013 230.802 49.9413 230.802 49.232V41.392H235.086V49.26C235.086 50.4547 234.815 51.5093 234.274 52.424C233.733 53.32 232.986 54.0293 232.034 54.552C231.082 55.056 229.981 55.308 228.73 55.308ZM237.776 55V34.672H242.06V55H237.776ZM247.008 55V35.764H251.292V55H247.008ZM243.928 45.032V41.392H254.372V45.032H243.928ZM256.26 55V41.392H260.544V55H256.26ZM258.416 39.516C257.744 39.516 257.184 39.292 256.736 38.844C256.307 38.3773 256.092 37.8173 256.092 37.164C256.092 36.492 256.307 35.932 256.736 35.484C257.184 35.036 257.744 34.812 258.416 34.812C259.088 34.812 259.639 35.036 260.068 35.484C260.497 35.932 260.712 36.492 260.712 37.164C260.712 37.8173 260.497 38.3773 260.068 38.844C259.639 39.292 259.088 39.516 258.416 39.516ZM271.401 55.28C270.486 55.28 269.646 55.1027 268.881 54.748C268.115 54.3933 267.49 53.908 267.005 53.292C266.519 52.6573 266.239 51.9387 266.165 51.136V45.396C266.239 44.5933 266.519 43.8653 267.005 43.212C267.49 42.5587 268.115 42.0453 268.881 41.672C269.646 41.2987 270.486 41.112 271.401 41.112C272.689 41.112 273.827 41.42 274.817 42.036C275.825 42.652 276.609 43.492 277.169 44.556C277.747 45.62 278.037 46.8333 278.037 48.196C278.037 49.5587 277.747 50.772 277.169 51.836C276.609 52.9 275.825 53.74 274.817 54.356C273.827 54.972 272.689 55.28 271.401 55.28ZM263.561 60.74V41.392H267.845V44.892L267.145 48.196L267.789 51.5V60.74H263.561ZM270.617 51.416C271.233 51.416 271.765 51.276 272.213 50.996C272.679 50.716 273.043 50.3333 273.305 49.848C273.566 49.3627 273.697 48.812 273.697 48.196C273.697 47.5613 273.566 47.0013 273.305 46.516C273.043 46.0307 272.679 45.6573 272.213 45.396C271.765 45.116 271.242 44.976 270.645 44.976C270.047 44.976 269.515 45.116 269.049 45.396C268.601 45.6573 268.246 46.0307 267.985 46.516C267.723 47.0013 267.593 47.5613 267.593 48.196C267.593 48.812 267.714 49.3627 267.957 49.848C268.218 50.3333 268.582 50.716 269.049 50.996C269.515 51.276 270.038 51.416 270.617 51.416ZM280.213 55V34.672H284.497V55H280.213ZM294.234 55.308C292.759 55.308 291.443 55.0093 290.286 54.412C289.147 53.796 288.251 52.9467 287.598 51.864C286.945 50.7813 286.618 49.5587 286.618 48.196C286.618 46.8333 286.935 45.62 287.57 44.556C288.223 43.4733 289.101 42.624 290.202 42.008C291.303 41.392 292.545 41.084 293.926 41.084C295.27 41.084 296.455 41.3733 297.482 41.952C298.509 42.5307 299.311 43.3333 299.89 44.36C300.487 45.3867 300.786 46.5627 300.786 47.888C300.786 48.1307 300.767 48.392 300.73 48.672C300.711 48.9333 300.665 49.2413 300.59 49.596L288.858 49.624V46.684L298.77 46.656L296.922 47.888C296.903 47.104 296.782 46.46 296.558 45.956C296.334 45.4333 295.998 45.0413 295.55 44.78C295.121 44.5 294.589 44.36 293.954 44.36C293.282 44.36 292.694 44.5187 292.19 44.836C291.705 45.1347 291.322 45.564 291.042 46.124C290.781 46.684 290.65 47.3653 290.65 48.168C290.65 48.9707 290.79 49.6613 291.07 50.24C291.369 50.8 291.779 51.2387 292.302 51.556C292.843 51.8547 293.478 52.004 294.206 52.004C294.878 52.004 295.485 51.892 296.026 51.668C296.567 51.4253 297.043 51.0707 297.454 50.604L299.806 52.956C299.134 53.74 298.322 54.328 297.37 54.72C296.418 55.112 295.373 55.308 294.234 55.308ZM312.984 55V35.512H317.38V55H312.984ZM306.796 39.068V35.232H323.568V39.068H306.796ZM325.631 55V41.392H329.915V55H325.631ZM327.787 39.516C327.115 39.516 326.555 39.292 326.107 38.844C325.678 38.3773 325.463 37.8173 325.463 37.164C325.463 36.492 325.678 35.932 326.107 35.484C326.555 35.036 327.115 34.812 327.787 34.812C328.459 34.812 329.01 35.036 329.439 35.484C329.868 35.932 330.083 36.492 330.083 37.164C330.083 37.8173 329.868 38.3773 329.439 38.844C329.01 39.292 328.459 39.516 327.787 39.516ZM332.932 55V41.392H337.216V55H332.932ZM341.64 55V47.048C341.64 46.3573 341.425 45.8253 340.996 45.452C340.585 45.06 340.072 44.864 339.456 44.864C339.027 44.864 338.644 44.9573 338.308 45.144C337.972 45.312 337.701 45.5547 337.496 45.872C337.309 46.1893 337.216 46.5813 337.216 47.048L335.564 46.32C335.564 45.2373 335.797 44.3133 336.264 43.548C336.731 42.764 337.365 42.1667 338.168 41.756C338.971 41.3267 339.876 41.112 340.884 41.112C341.836 41.112 342.685 41.3267 343.432 41.756C344.197 42.1853 344.804 42.7827 345.252 43.548C345.7 44.3133 345.924 45.228 345.924 46.292V55H341.64ZM350.348 55V47.048C350.348 46.3573 350.133 45.8253 349.704 45.452C349.293 45.06 348.78 44.864 348.164 44.864C347.735 44.864 347.352 44.9573 347.016 45.144C346.68 45.312 346.409 45.5547 346.204 45.872C346.017 46.1893 345.924 46.5813 345.924 47.048L343.46 46.712C343.497 45.5547 343.768 44.5653 344.272 43.744C344.795 42.904 345.476 42.26 346.316 41.812C347.175 41.3453 348.136 41.112 349.2 41.112C350.245 41.112 351.169 41.336 351.972 41.784C352.793 42.2133 353.437 42.8387 353.904 43.66C354.389 44.4627 354.632 45.4333 354.632 46.572V55H350.348ZM364.097 55.308C362.623 55.308 361.307 55.0093 360.149 54.412C359.011 53.796 358.115 52.9467 357.461 51.864C356.808 50.7813 356.481 49.5587 356.481 48.196C356.481 46.8333 356.799 45.62 357.433 44.556C358.087 43.4733 358.964 42.624 360.065 42.008C361.167 41.392 362.408 41.084 363.789 41.084C365.133 41.084 366.319 41.3733 367.345 41.952C368.372 42.5307 369.175 43.3333 369.753 44.36C370.351 45.3867 370.649 46.5627 370.649 47.888C370.649 48.1307 370.631 48.392 370.593 48.672C370.575 48.9333 370.528 49.2413 370.453 49.596L358.721 49.624V46.684L368.633 46.656L366.785 47.888C366.767 47.104 366.645 46.46 366.421 45.956C366.197 45.4333 365.861 45.0413 365.413 44.78C364.984 44.5 364.452 44.36 363.817 44.36C363.145 44.36 362.557 44.5187 362.053 44.836C361.568 45.1347 361.185 45.564 360.905 46.124C360.644 46.684 360.513 47.3653 360.513 48.168C360.513 48.9707 360.653 49.6613 360.933 50.24C361.232 50.8 361.643 51.2387 362.165 51.556C362.707 51.8547 363.341 52.004 364.069 52.004C364.741 52.004 365.348 51.892 365.889 51.668C366.431 51.4253 366.907 51.0707 367.317 50.604L369.669 52.956C368.997 53.74 368.185 54.328 367.233 54.72C366.281 55.112 365.236 55.308 364.097 55.308ZM377.673 55.336C376.87 55.336 376.077 55.2333 375.293 55.028C374.528 54.8227 373.809 54.5333 373.137 54.16C372.484 53.768 371.924 53.32 371.457 52.816L373.893 50.352C374.341 50.8373 374.873 51.22 375.489 51.5C376.105 51.7613 376.777 51.892 377.505 51.892C378.009 51.892 378.392 51.8173 378.653 51.668C378.933 51.5187 379.073 51.3133 379.073 51.052C379.073 50.716 378.905 50.464 378.569 50.296C378.252 50.1093 377.841 49.9507 377.337 49.82C376.833 49.6707 376.301 49.512 375.741 49.344C375.181 49.176 374.649 48.9427 374.145 48.644C373.641 48.3453 373.23 47.9347 372.913 47.412C372.596 46.8707 372.437 46.1893 372.437 45.368C372.437 44.4907 372.661 43.7347 373.109 43.1C373.557 42.4467 374.192 41.9333 375.013 41.56C375.834 41.1867 376.796 41 377.897 41C379.054 41 380.118 41.2053 381.089 41.616C382.078 42.008 382.881 42.596 383.497 43.38L381.061 45.844C380.632 45.34 380.146 44.9853 379.605 44.78C379.082 44.5747 378.569 44.472 378.065 44.472C377.58 44.472 377.216 44.5467 376.973 44.696C376.73 44.8267 376.609 45.0227 376.609 45.284C376.609 45.564 376.768 45.788 377.085 45.956C377.402 46.124 377.813 46.2733 378.317 46.404C378.821 46.5347 379.353 46.6933 379.913 46.88C380.473 47.0667 381.005 47.3187 381.509 47.636C382.013 47.9533 382.424 48.3827 382.741 48.924C383.058 49.4467 383.217 50.1373 383.217 50.996C383.217 52.3213 382.713 53.376 381.705 54.16C380.716 54.944 379.372 55.336 377.673 55.336ZM394.529 55V47.244C394.529 46.5347 394.305 45.9653 393.857 45.536C393.428 45.088 392.877 44.864 392.205 44.864C391.739 44.864 391.328 44.9667 390.973 45.172C390.619 45.3587 390.339 45.6387 390.133 46.012C389.928 46.3667 389.825 46.7773 389.825 47.244L388.173 46.432C388.173 45.368 388.397 44.4347 388.845 43.632C389.293 42.8293 389.919 42.2133 390.721 41.784C391.524 41.336 392.448 41.112 393.493 41.112C394.557 41.112 395.491 41.336 396.293 41.784C397.096 42.2133 397.712 42.82 398.141 43.604C398.589 44.3693 398.813 45.2653 398.813 46.292V55H394.529ZM385.541 55V34.672H389.825V55H385.541ZM408.285 55.308C406.81 55.308 405.494 55.0093 404.337 54.412C403.198 53.796 402.302 52.9467 401.649 51.864C400.995 50.7813 400.669 49.5587 400.669 48.196C400.669 46.8333 400.986 45.62 401.621 44.556C402.274 43.4733 403.151 42.624 404.253 42.008C405.354 41.392 406.595 41.084 407.977 41.084C409.321 41.084 410.506 41.3733 411.533 41.952C412.559 42.5307 413.362 43.3333 413.941 44.36C414.538 45.3867 414.837 46.5627 414.837 47.888C414.837 48.1307 414.818 48.392 414.781 48.672C414.762 48.9333 414.715 49.2413 414.641 49.596L402.909 49.624V46.684L412.821 46.656L410.973 47.888C410.954 47.104 410.833 46.46 410.609 45.956C410.385 45.4333 410.049 45.0413 409.601 44.78C409.171 44.5 408.639 44.36 408.005 44.36C407.333 44.36 406.745 44.5187 406.241 44.836C405.755 45.1347 405.373 45.564 405.093 46.124C404.831 46.684 404.701 47.3653 404.701 48.168C404.701 48.9707 404.841 49.6613 405.121 50.24C405.419 50.8 405.83 51.2387 406.353 51.556C406.894 51.8547 407.529 52.004 408.257 52.004C408.929 52.004 409.535 51.892 410.077 51.668C410.618 51.4253 411.094 51.0707 411.505 50.604L413.857 52.956C413.185 53.74 412.373 54.328 411.421 54.72C410.469 55.112 409.423 55.308 408.285 55.308ZM423.625 55.308C422.15 55.308 420.834 55.0093 419.677 54.412C418.538 53.796 417.642 52.9467 416.989 51.864C416.335 50.7813 416.009 49.5587 416.009 48.196C416.009 46.8333 416.326 45.62 416.961 44.556C417.614 43.4733 418.491 42.624 419.593 42.008C420.694 41.392 421.935 41.084 423.317 41.084C424.661 41.084 425.846 41.3733 426.873 41.952C427.899 42.5307 428.702 43.3333 429.281 44.36C429.878 45.3867 430.177 46.5627 430.177 47.888C430.177 48.1307 430.158 48.392 430.121 48.672C430.102 48.9333 430.055 49.2413 429.981 49.596L418.249 49.624V46.684L428.161 46.656L426.313 47.888C426.294 47.104 426.173 46.46 425.949 45.956C425.725 45.4333 425.389 45.0413 424.941 44.78C424.511 44.5 423.979 44.36 423.345 44.36C422.673 44.36 422.085 44.5187 421.581 44.836C421.095 45.1347 420.713 45.564 420.433 46.124C420.171 46.684 420.041 47.3653 420.041 48.168C420.041 48.9707 420.181 49.6613 420.461 50.24C420.759 50.8 421.17 51.2387 421.693 51.556C422.234 51.8547 422.869 52.004 423.597 52.004C424.269 52.004 424.875 51.892 425.417 51.668C425.958 51.4253 426.434 51.0707 426.845 50.604L429.197 52.956C428.525 53.74 427.713 54.328 426.761 54.72C425.809 55.112 424.763 55.308 423.625 55.308ZM433.876 55V35.764H438.16V55H433.876ZM430.796 45.032V41.392H441.24V45.032H430.796ZM455.011 55L447.395 35.232H452.099L457.895 51.22H455.963L461.843 35.232H466.491L458.791 55H455.011ZM468.42 55V41.392H472.704V55H468.42ZM470.576 39.516C469.904 39.516 469.344 39.292 468.896 38.844C468.467 38.3773 468.252 37.8173 468.252 37.164C468.252 36.492 468.467 35.932 468.896 35.484C469.344 35.036 469.904 34.812 470.576 34.812C471.248 34.812 471.799 35.036 472.228 35.484C472.658 35.932 472.872 36.492 472.872 37.164C472.872 37.8173 472.658 38.3773 472.228 38.844C471.799 39.292 471.248 39.516 470.576 39.516ZM482.441 55.308C480.966 55.308 479.65 55.0093 478.493 54.412C477.354 53.796 476.458 52.9467 475.805 51.864C475.152 50.7813 474.825 49.5587 474.825 48.196C474.825 46.8333 475.142 45.62 475.777 44.556C476.43 43.4733 477.308 42.624 478.409 42.008C479.51 41.392 480.752 41.084 482.133 41.084C483.477 41.084 484.662 41.3733 485.689 41.952C486.716 42.5307 487.518 43.3333 488.097 44.36C488.694 45.3867 488.993 46.5627 488.993 47.888C488.993 48.1307 488.974 48.392 488.937 48.672C488.918 48.9333 488.872 49.2413 488.797 49.596L477.065 49.624V46.684L486.977 46.656L485.129 47.888C485.11 47.104 484.989 46.46 484.765 45.956C484.541 45.4333 484.205 45.0413 483.757 44.78C483.328 44.5 482.796 44.36 482.161 44.36C481.489 44.36 480.901 44.5187 480.397 44.836C479.912 45.1347 479.529 45.564 479.249 46.124C478.988 46.684 478.857 47.3653 478.857 48.168C478.857 48.9707 478.997 49.6613 479.277 50.24C479.576 50.8 479.986 51.2387 480.509 51.556C481.05 51.8547 481.685 52.004 482.413 52.004C483.085 52.004 483.692 51.892 484.233 51.668C484.774 51.4253 485.25 51.0707 485.661 50.604L488.013 52.956C487.341 53.74 486.529 54.328 485.577 54.72C484.625 55.112 483.58 55.308 482.441 55.308ZM494.229 55L489.525 41.392H493.725L496.637 51.276L495.405 51.304L498.625 41.392H502.097L505.345 51.304L504.085 51.276L507.025 41.392H511.225L506.521 55H503.021L499.857 45.592H500.921L497.701 55H494.229ZM517.509 55.336C516.706 55.336 515.913 55.2333 515.129 55.028C514.364 54.8227 513.645 54.5333 512.973 54.16C512.32 53.768 511.76 53.32 511.293 52.816L513.729 50.352C514.177 50.8373 514.709 51.22 515.325 51.5C515.941 51.7613 516.613 51.892 517.341 51.892C517.845 51.892 518.228 51.8173 518.489 51.668C518.769 51.5187 518.909 51.3133 518.909 51.052C518.909 50.716 518.741 50.464 518.405 50.296C518.088 50.1093 517.677 49.9507 517.173 49.82C516.669 49.6707 516.137 49.512 515.577 49.344C515.017 49.176 514.485 48.9427 513.981 48.644C513.477 48.3453 513.066 47.9347 512.749 47.412C512.432 46.8707 512.273 46.1893 512.273 45.368C512.273 44.4907 512.497 43.7347 512.945 43.1C513.393 42.4467 514.028 41.9333 514.849 41.56C515.67 41.1867 516.632 41 517.733 41C518.89 41 519.954 41.2053 520.925 41.616C521.914 42.008 522.717 42.596 523.333 43.38L520.897 45.844C520.468 45.34 519.982 44.9853 519.441 44.78C518.918 44.5747 518.405 44.472 517.901 44.472C517.416 44.472 517.052 44.5467 516.809 44.696C516.566 44.8267 516.445 45.0227 516.445 45.284C516.445 45.564 516.604 45.788 516.921 45.956C517.238 46.124 517.649 46.2733 518.153 46.404C518.657 46.5347 519.189 46.6933 519.749 46.88C520.309 47.0667 520.841 47.3187 521.345 47.636C521.849 47.9533 522.26 48.3827 522.577 48.924C522.894 49.4467 523.053 50.1373 523.053 50.996C523.053 52.3213 522.549 53.376 521.541 54.16C520.552 54.944 519.208 55.336 517.509 55.336Z" fill="#0897FF"/>
<path d="M671.066 329.371C671.588 327.381 674.412 327.381 674.934 329.371L676.03 333.544C676.213 334.242 676.758 334.787 677.456 334.97L681.629 336.066C683.619 336.588 683.619 339.412 681.629 339.934L677.456 341.03C676.758 341.213 676.213 341.758 676.03 342.456L674.934 346.629C674.412 348.619 671.588 348.619 671.066 346.629L669.97 342.456C669.787 341.758 669.242 341.213 668.544 341.03L664.371 339.934C662.381 339.412 662.381 336.588 664.371 336.066L668.544 334.97C669.242 334.787 669.787 334.242 669.97 333.544L671.066 329.371Z" fill="#D5AA02"/>
<path d="M60.2916 312.922C29.3278 311.873 23.5001 283.111 -13.1869 283.111C-37.8965 283.112 -47 301.905 -47 301.905V342.732C-47 342.732 41.6108 389.242 98 342.732C147.5 301.905 232.68 341.748 215.702 318.754C198.724 295.76 170.154 285.034 141.573 283.111C107.826 280.841 94.0956 314.067 60.2916 312.922Z" fill="url(#paint1_linear_116_57)" fill-opacity="0.2"/>
<path d="M592.59 342.731C568.813 342.731 548 380 548 380H748C748 380 734.23 329 706.033 329C677.836 329 693.574 361.692 651.607 361.692C617.508 361.692 622.754 342.731 592.59 342.731Z" fill="url(#paint2_linear_116_57)" fill-opacity="0.2"/>
<path d="M45.63 177.429C46.493 174.594 50.507 174.594 51.37 177.429L53.0511 182.952C53.3422 183.909 54.0909 184.658 55.0475 184.949L60.5706 186.63C63.4059 187.493 63.4059 191.507 60.5706 192.37L55.0475 194.051C54.0909 194.342 53.3422 195.091 53.0511 196.048L51.37 201.571C50.507 204.406 46.493 204.406 45.63 201.571L43.9489 196.048C43.6578 195.091 42.9091 194.342 41.9525 194.051L36.4294 192.37C33.5941 191.507 33.5941 187.493 36.4294 186.63L41.9525 184.949C42.9091 184.658 43.6578 183.909 43.9489 182.952L45.63 177.429Z" fill="#FFDB49"/>
</g>
<defs>
<filter id="filter0_d_116_57" x="480" y="188" width="198" height="332" filterUnits="userSpaceOnUse" color-interpolation-filters="sRGB">
<feFlood flood-opacity="0" result="BackgroundImageFix"/>
<feColorMatrix in="SourceAlpha" type="matrix" values="0 0 0 0 0 0 0 0 0 0 0 0 0 0 0 0 0 0 127 0" result="hardAlpha"/>
<feOffset dy="4"/>
<feGaussianBlur stdDeviation="3"/>
<feComposite in2="hardAlpha" operator="out"/>
<feColorMatrix type="matrix" values="0 0 0 0 0 0 0 0 0 0 0 0 0 0 0 0 0 0 0.25 0"/>
<feBlend mode="normal" in2="BackgroundImageFix" result="effect1_dropShadow_116_57"/>
<feBlend mode="normal" in="SourceGraphic" in2="effect1_dropShadow_116_57" result="shape"/>
</filter>
<linearGradient id="paint0_linear_116_57" x1="69" y1="99" x2="672" y2="256" gradientUnits="userSpaceOnUse">
<stop stop-color="#AD94FF"/>
<stop offset="1" stop-color="#0897FF"/>
</linearGradient>
<linearGradient id="paint1_linear_116_57" x1="85.4524" y1="283" x2="85.4524" y2="363.403" gradientUnits="userSpaceOnUse">
<stop stop-color="#472AC4"/>
<stop offset="1" stop-color="#472AC4" stop-opacity="0.1"/>
</linearGradient>
<linearGradient id="paint2_linear_116_57" x1="648.328" y1="329" x2="648.328" y2="380" gradientUnits="userSpaceOnUse">
<stop stop-color="#472AC4"/>
<stop offset="1" stop-color="#472AC4" stop-opacity="0.1"/>
</linearGradient>
<clipPath id="clip0_116_57">
<rect width="720" height="380" fill="white"/>
</clipPath>
<clipPath id="clip1_116_57">
<rect x="48" y="90" width="624" height="438" rx="20" fill="white"/>
</clipPath>
<clipPath id="clip2_116_57">
<rect width="588" height="320" fill="white" transform="translate(66 190)"/>
</clipPath>
<clipPath id="clip3_116_57">
<rect width="588" height="80" fill="white" transform="translate(66 270)"/>
</clipPath>
</defs>
</svg>
