<svg width="345" height="328" viewBox="0 0 345 328" fill="none" xmlns="http://www.w3.org/2000/svg">
<rect width="345" height="706" rx="20" fill="white"/>
<path d="M0 16C0 7.16344 7.16344 0 16 0H329C337.837 0 345 7.16344 345 16V151H0V16Z" fill="#262628"/>
<rect x="16" y="39" width="313" height="96" rx="10" fill="#EFFFF3"/>
<g opacity="0.4">
<mask id="mask0_130_590" style="mask-type:alpha" maskUnits="userSpaceOnUse" x="226" y="39" width="96" height="96">
<rect x="226" y="39" width="96" height="96" fill="#D9D9D9"/>
</mask>
<g mask="url(#mask0_130_590)">
<path d="M283 124.6C281.467 126.133 279.567 126.9 277.3 126.9C275.033 126.9 273.133 126.133 271.6 124.6L236.4 89.4C235.667 88.6667 235.084 87.8 234.652 86.8C234.217 85.8 234 84.7333 234 83.6V55C234 52.8 234.784 50.916 236.352 49.348C237.917 47.7827 239.8 47 242 47H270.6C271.733 47 272.8 47.216 273.8 47.648C274.8 48.0827 275.667 48.6667 276.4 49.4L311.6 84.7C313.133 86.2333 313.9 88.116 313.9 90.348C313.9 92.5827 313.133 94.4667 311.6 96L283 124.6ZM277.3 119L305.9 90.4L270.6 55H242V83.6L277.3 119ZM252 71C253.667 71 255.083 70.416 256.248 69.248C257.416 68.0827 258 66.6667 258 65C258 63.3333 257.416 61.9173 256.248 60.752C255.083 59.584 253.667 59 252 59C250.333 59 248.917 59.584 247.752 60.752C246.584 61.9173 246 63.3333 246 65C246 66.6667 246.584 68.0827 247.752 69.248C248.917 70.416 250.333 71 252 71Z" fill="#CBE5D7"/>
</g>
</g>
<path d="M29.2642 70V55.4545H35.0028C36.1061 55.4545 37.0459 55.6652 37.8224 56.0866C38.599 56.5033 39.1908 57.0833 39.598 57.8267C40.0099 58.5653 40.2159 59.4176 40.2159 60.3835C40.2159 61.3494 40.0076 62.2017 39.5909 62.9403C39.1742 63.679 38.5705 64.2543 37.7798 64.6662C36.9938 65.0781 36.0421 65.2841 34.9247 65.2841H31.267V62.8196H34.4276C35.0194 62.8196 35.5071 62.7178 35.8906 62.5142C36.2789 62.3059 36.5677 62.0194 36.7571 61.6548C36.9512 61.2855 37.0483 60.8617 37.0483 60.3835C37.0483 59.9006 36.9512 59.4792 36.7571 59.1193C36.5677 58.7547 36.2789 58.473 35.8906 58.2741C35.5024 58.0705 35.0099 57.9688 34.4134 57.9688H32.3395V70H29.2642ZM45.1822 55.4545V70H42.1566V55.4545H45.1822ZM50.7166 70.206C50.0206 70.206 49.4003 70.0852 48.8558 69.8438C48.3113 69.5975 47.8804 69.2353 47.5632 68.7571C47.2507 68.2741 47.0945 67.6728 47.0945 66.9531C47.0945 66.3471 47.2057 65.8381 47.4283 65.4261C47.6508 65.0142 47.9538 64.6828 48.3374 64.4318C48.7209 64.1809 49.1565 63.9915 49.6442 63.8636C50.1366 63.7358 50.6527 63.6458 51.1925 63.5938C51.8269 63.5275 52.3383 63.4659 52.7266 63.4091C53.1148 63.3475 53.3965 63.2576 53.5717 63.1392C53.7469 63.0208 53.8345 62.8456 53.8345 62.6136V62.571C53.8345 62.1212 53.6925 61.7732 53.4084 61.527C53.129 61.2808 52.7313 61.1577 52.2152 61.1577C51.6707 61.1577 51.2375 61.2784 50.9155 61.5199C50.5935 61.7566 50.3804 62.0549 50.2763 62.4148L47.478 62.1875C47.62 61.5246 47.8994 60.9517 48.3161 60.4688C48.7327 59.9811 49.2701 59.607 49.9283 59.3466C50.5911 59.0814 51.3582 58.9489 52.2294 58.9489C52.8355 58.9489 53.4155 59.0199 53.9695 59.1619C54.5282 59.304 55.023 59.5241 55.4538 59.8224C55.8894 60.1207 56.2327 60.5043 56.4837 60.973C56.7346 61.437 56.8601 61.9934 56.8601 62.642V70H53.9908V68.4872H53.9055C53.7304 68.8281 53.496 69.1288 53.2024 69.3892C52.9089 69.6449 52.5561 69.8461 52.1442 69.9929C51.7322 70.1349 51.2564 70.206 50.7166 70.206ZM51.5831 68.1179C52.0282 68.1179 52.4212 68.0303 52.7621 67.8551C53.103 67.6752 53.3705 67.4337 53.5646 67.1307C53.7588 66.8277 53.8558 66.4844 53.8558 66.1009V64.9432C53.7611 65.0047 53.6309 65.0616 53.4652 65.1136C53.3042 65.161 53.1219 65.206 52.9183 65.2486C52.7147 65.2865 52.5111 65.322 52.3075 65.3551C52.1039 65.3835 51.9193 65.4096 51.7536 65.4332C51.3984 65.4853 51.0883 65.5682 50.8232 65.6818C50.558 65.7955 50.352 65.9493 50.2053 66.1435C50.0585 66.3329 49.9851 66.5696 49.9851 66.8537C49.9851 67.2656 50.1342 67.5805 50.4325 67.7983C50.7356 68.0114 51.1191 68.1179 51.5831 68.1179ZM64.1364 70.2131C63.0189 70.2131 62.0578 69.9763 61.2528 69.5028C60.4527 69.0246 59.8371 68.3617 59.4062 67.5142C58.9801 66.6667 58.767 65.6913 58.767 64.5881C58.767 63.4706 58.9825 62.4905 59.4134 61.6477C59.849 60.8002 60.4669 60.1397 61.267 59.6662C62.0672 59.188 63.0189 58.9489 64.1222 58.9489C65.0739 58.9489 65.9072 59.1217 66.6222 59.4673C67.3371 59.813 67.9029 60.2983 68.3196 60.9233C68.7363 61.5483 68.9659 62.2822 69.0085 63.125H66.1534C66.0729 62.5805 65.8598 62.1425 65.5142 61.8111C65.1733 61.4749 64.7259 61.3068 64.1719 61.3068C63.7031 61.3068 63.2936 61.4347 62.9432 61.6903C62.5975 61.9413 62.3277 62.3082 62.1335 62.7912C61.9394 63.2741 61.8423 63.8589 61.8423 64.5455C61.8423 65.2415 61.937 65.8333 62.1264 66.321C62.3205 66.8087 62.5928 67.1804 62.9432 67.4361C63.2936 67.6918 63.7031 67.8196 64.1719 67.8196C64.5175 67.8196 64.8277 67.7486 65.1023 67.6065C65.3816 67.4645 65.6113 67.2585 65.7912 66.9886C65.9759 66.714 66.0966 66.3849 66.1534 66.0014H69.0085C68.9612 66.8348 68.7339 67.5687 68.3267 68.2031C67.9242 68.8329 67.3679 69.3253 66.6577 69.6804C65.9474 70.0355 65.107 70.2131 64.1364 70.2131ZM75.9173 70.2131C74.7951 70.2131 73.8292 69.9858 73.0195 69.5312C72.2146 69.072 71.5943 68.4233 71.1587 67.5852C70.7231 66.7424 70.5053 65.7457 70.5053 64.5952C70.5053 63.473 70.7231 62.4882 71.1587 61.6406C71.5943 60.7931 72.2075 60.1326 72.9982 59.6591C73.7937 59.1856 74.7264 58.9489 75.7965 58.9489C76.5162 58.9489 77.1862 59.0649 77.8065 59.2969C78.4315 59.5241 78.976 59.8674 79.44 60.3267C79.9087 60.786 80.2733 61.3636 80.5337 62.0597C80.7942 62.7509 80.9244 63.5606 80.9244 64.4886V65.3196H71.7127V63.4446H78.0763C78.0763 63.009 77.9817 62.6231 77.7923 62.2869C77.6029 61.9508 77.3401 61.688 77.0039 61.4986C76.6725 61.3045 76.2866 61.2074 75.8462 61.2074C75.387 61.2074 74.9798 61.3139 74.6246 61.527C74.2743 61.7353 73.9996 62.017 73.8008 62.3722C73.6019 62.7225 73.5001 63.1132 73.4954 63.544V65.3267C73.4954 65.8665 73.5948 66.3329 73.7937 66.7259C73.9973 67.1188 74.2837 67.4219 74.6531 67.6349C75.0224 67.848 75.4603 67.9545 75.967 67.9545C76.3031 67.9545 76.6109 67.9072 76.8903 67.8125C77.1696 67.7178 77.4087 67.5758 77.6076 67.3864C77.8065 67.197 77.958 66.965 78.0621 66.6903L80.8604 66.875C80.7184 67.5473 80.4272 68.1345 79.9869 68.6364C79.5513 69.1335 78.9878 69.5218 78.2965 69.8011C77.61 70.0758 76.8169 70.2131 75.9173 70.2131ZM100.951 62.7273C100.951 64.3134 100.65 65.6629 100.049 66.7756C99.4524 67.8883 98.638 68.7382 97.6058 69.3253C96.5784 69.9077 95.4231 70.1989 94.1399 70.1989C92.8473 70.1989 91.6873 69.9053 90.6598 69.3182C89.6323 68.7311 88.8203 67.8812 88.2237 66.7685C87.6271 65.6558 87.3288 64.3087 87.3288 62.7273C87.3288 61.1411 87.6271 59.7917 88.2237 58.679C88.8203 57.5663 89.6323 56.7187 90.6598 56.1364C91.6873 55.5492 92.8473 55.2557 94.1399 55.2557C95.4231 55.2557 96.5784 55.5492 97.6058 56.1364C98.638 56.7187 99.4524 57.5663 100.049 58.679C100.65 59.7917 100.951 61.1411 100.951 62.7273ZM97.8331 62.7273C97.8331 61.6998 97.6792 60.8333 97.3714 60.1278C97.0684 59.4223 96.6399 58.8873 96.0859 58.5227C95.532 58.1581 94.8833 57.9759 94.1399 57.9759C93.3965 57.9759 92.7479 58.1581 92.1939 58.5227C91.6399 58.8873 91.209 59.4223 90.9013 60.1278C90.5982 60.8333 90.4467 61.6998 90.4467 62.7273C90.4467 63.7547 90.5982 64.6212 90.9013 65.3267C91.209 66.0322 91.6399 66.5672 92.1939 66.9318C92.7479 67.2964 93.3965 67.4787 94.1399 67.4787C94.8833 67.4787 95.532 67.2964 96.0859 66.9318C96.6399 66.5672 97.0684 66.0322 97.3714 65.3267C97.6792 64.6212 97.8331 63.7547 97.8331 62.7273ZM103.172 70V59.0909H106.105V60.9943H106.219C106.418 60.3172 106.752 59.8059 107.221 59.4602C107.689 59.1098 108.229 58.9347 108.84 58.9347C108.991 58.9347 109.155 58.9441 109.33 58.9631C109.505 58.982 109.659 59.008 109.792 59.0412V61.7259C109.65 61.6832 109.453 61.6454 109.202 61.6122C108.951 61.5791 108.721 61.5625 108.513 61.5625C108.068 61.5625 107.67 61.6596 107.32 61.8537C106.974 62.0431 106.7 62.3082 106.496 62.6491C106.297 62.9901 106.198 63.383 106.198 63.8281V70H103.172ZM114.868 70.1776C114.039 70.1776 113.289 69.9645 112.616 69.5384C111.949 69.1075 111.419 68.4754 111.026 67.642C110.637 66.804 110.443 65.7765 110.443 64.5597C110.443 63.3097 110.644 62.2704 111.047 61.4418C111.449 60.6084 111.984 59.9858 112.652 59.5739C113.324 59.1572 114.061 58.9489 114.861 58.9489C115.472 58.9489 115.981 59.053 116.388 59.2614C116.8 59.465 117.131 59.7206 117.382 60.0284C117.638 60.3314 117.832 60.6297 117.964 60.9233H118.057V55.4545H121.075V70H118.092V68.2528H117.964C117.822 68.5559 117.621 68.8565 117.361 69.1548C117.105 69.4484 116.771 69.6922 116.359 69.8864C115.952 70.0805 115.455 70.1776 114.868 70.1776ZM115.827 67.7699C116.314 67.7699 116.726 67.6373 117.062 67.3722C117.403 67.1023 117.664 66.7259 117.844 66.2429C118.028 65.7599 118.121 65.1941 118.121 64.5455C118.121 63.8968 118.031 63.3333 117.851 62.8551C117.671 62.3769 117.411 62.0076 117.07 61.7472C116.729 61.4867 116.314 61.3565 115.827 61.3565C115.33 61.3565 114.911 61.4915 114.57 61.7614C114.229 62.0312 113.971 62.4053 113.795 62.8835C113.62 63.3617 113.533 63.9157 113.533 64.5455C113.533 65.1799 113.62 65.741 113.795 66.2287C113.975 66.7116 114.233 67.0904 114.57 67.3651C114.911 67.6349 115.33 67.7699 115.827 67.7699ZM128.534 70.2131C127.412 70.2131 126.446 69.9858 125.637 69.5312C124.832 69.072 124.212 68.4233 123.776 67.5852C123.34 66.7424 123.123 65.7457 123.123 64.5952C123.123 63.473 123.34 62.4882 123.776 61.6406C124.212 60.7931 124.825 60.1326 125.615 59.6591C126.411 59.1856 127.344 58.9489 128.414 58.9489C129.133 58.9489 129.803 59.0649 130.424 59.2969C131.049 59.5241 131.593 59.8674 132.057 60.3267C132.526 60.786 132.891 61.3636 133.151 62.0597C133.411 62.7509 133.542 63.5606 133.542 64.4886V65.3196H124.33V63.4446H130.694C130.694 63.009 130.599 62.6231 130.409 62.2869C130.22 61.9508 129.957 61.688 129.621 61.4986C129.29 61.3045 128.904 61.2074 128.463 61.2074C128.004 61.2074 127.597 61.3139 127.242 61.527C126.891 61.7353 126.617 62.017 126.418 62.3722C126.219 62.7225 126.117 63.1132 126.113 63.544V65.3267C126.113 65.8665 126.212 66.3329 126.411 66.7259C126.614 67.1188 126.901 67.4219 127.27 67.6349C127.64 67.848 128.078 67.9545 128.584 67.9545C128.92 67.9545 129.228 67.9072 129.507 67.8125C129.787 67.7178 130.026 67.5758 130.225 67.3864C130.424 67.197 130.575 66.965 130.679 66.6903L133.478 66.875C133.336 67.5473 133.044 68.1345 132.604 68.6364C132.168 69.1335 131.605 69.5218 130.914 69.8011C130.227 70.0758 129.434 70.2131 128.534 70.2131ZM135.516 70V59.0909H138.449V60.9943H138.563C138.762 60.3172 139.096 59.8059 139.564 59.4602C140.033 59.1098 140.573 58.9347 141.184 58.9347C141.335 58.9347 141.498 58.9441 141.674 58.9631C141.849 58.982 142.003 59.008 142.135 59.0412V61.7259C141.993 61.6832 141.797 61.6454 141.546 61.6122C141.295 61.5791 141.065 61.5625 140.857 61.5625C140.412 61.5625 140.014 61.6596 139.664 61.8537C139.318 62.0431 139.043 62.3082 138.84 62.6491C138.641 62.9901 138.542 63.383 138.542 63.8281V70H135.516Z" fill="#00A54F"/>
<rect x="293" y="99" width="24" height="24" rx="12" transform="rotate(-90 293 99)" fill="#00A54F"/>
<mask id="mask1_130_590" style="mask-type:alpha" maskUnits="userSpaceOnUse" x="293" y="75" width="24" height="24">
<rect x="293" y="99" width="24" height="24" transform="rotate(-90 293 99)" fill="#D9D9D9"/>
</mask>
<g mask="url(#mask1_130_590)">
<path d="M308.375 87L302.375 93L300.975 91.6L305.575 87L300.975 82.4L302.375 81L308.375 87Z" fill="white"/>
</g>
<rect x="28" y="87" width="118" height="12" rx="6" fill="#D9D9D9"/>
<rect x="28" y="107" width="87" height="12" rx="6" fill="#D9D9D9"/>
<path d="M19.017 182H16.3807L20.3977 170.364H23.5682L27.5795 182H24.9432L22.0284 173.023H21.9375L19.017 182ZM18.8523 177.426H25.0795V179.347H18.8523V177.426ZM32.4716 182.17C31.5777 182.17 30.8087 181.981 30.1648 181.602C29.5246 181.22 29.0322 180.689 28.6875 180.011C28.3466 179.333 28.1761 178.553 28.1761 177.67C28.1761 176.777 28.3485 175.992 28.6932 175.318C29.0417 174.64 29.536 174.112 30.1761 173.733C30.8163 173.35 31.5777 173.159 32.4602 173.159C33.2216 173.159 33.8883 173.297 34.4602 173.574C35.0322 173.85 35.4848 174.239 35.8182 174.739C36.1515 175.239 36.3352 175.826 36.3693 176.5H34.0852C34.0208 176.064 33.8504 175.714 33.5739 175.449C33.3011 175.18 32.9432 175.045 32.5 175.045C32.125 175.045 31.7973 175.148 31.517 175.352C31.2405 175.553 31.0246 175.847 30.8693 176.233C30.714 176.619 30.6364 177.087 30.6364 177.636C30.6364 178.193 30.7121 178.667 30.8636 179.057C31.0189 179.447 31.2367 179.744 31.517 179.949C31.7973 180.153 32.125 180.256 32.5 180.256C32.7765 180.256 33.0246 180.199 33.2443 180.085C33.4678 179.972 33.6515 179.807 33.7955 179.591C33.9432 179.371 34.0398 179.108 34.0852 178.801H36.3693C36.3314 179.468 36.1496 180.055 35.8239 180.562C35.5019 181.066 35.0568 181.46 34.4886 181.744C33.9205 182.028 33.2481 182.17 32.4716 182.17ZM42.5611 173.273V175.091H37.3054V173.273H42.5611ZM38.4986 171.182H40.919V179.318C40.919 179.542 40.9531 179.716 41.0213 179.841C41.0895 179.962 41.1842 180.047 41.3054 180.097C41.4304 180.146 41.5743 180.17 41.7372 180.17C41.8509 180.17 41.9645 180.161 42.0781 180.142C42.1918 180.119 42.2789 180.102 42.3395 180.091L42.7202 181.892C42.599 181.93 42.4285 181.973 42.2088 182.023C41.9891 182.076 41.7221 182.108 41.4077 182.119C40.8243 182.142 40.313 182.064 39.8736 181.886C39.438 181.708 39.099 181.432 38.8565 181.057C38.6141 180.682 38.4948 180.208 38.4986 179.636V171.182ZM44.1378 182V173.273H46.5582V182H44.1378ZM45.3537 172.148C44.9938 172.148 44.6851 172.028 44.4276 171.79C44.1738 171.547 44.0469 171.258 44.0469 170.92C44.0469 170.587 44.1738 170.301 44.4276 170.062C44.6851 169.82 44.9938 169.699 45.3537 169.699C45.7135 169.699 46.0204 169.82 46.2741 170.062C46.5317 170.301 46.6605 170.587 46.6605 170.92C46.6605 171.258 46.5317 171.547 46.2741 171.79C46.0204 172.028 45.7135 172.148 45.3537 172.148ZM56.6335 173.273L53.5824 182H50.8551L47.804 173.273H50.3608L52.1733 179.517H52.2642L54.071 173.273H56.6335ZM61.5682 182.17C60.6705 182.17 59.8977 181.989 59.25 181.625C58.6061 181.258 58.1098 180.739 57.7614 180.068C57.4129 179.394 57.2386 178.597 57.2386 177.676C57.2386 176.778 57.4129 175.991 57.7614 175.312C58.1098 174.634 58.6004 174.106 59.233 173.727C59.8693 173.348 60.6155 173.159 61.4716 173.159C62.0473 173.159 62.5833 173.252 63.0795 173.438C63.5795 173.619 64.0152 173.894 64.3864 174.261C64.7614 174.629 65.053 175.091 65.2614 175.648C65.4697 176.201 65.5739 176.848 65.5739 177.591V178.256H58.2045V176.756H63.2955C63.2955 176.407 63.2197 176.098 63.0682 175.83C62.9167 175.561 62.7064 175.35 62.4375 175.199C62.1723 175.044 61.8636 174.966 61.5114 174.966C61.1439 174.966 60.8182 175.051 60.5341 175.222C60.2538 175.388 60.0341 175.614 59.875 175.898C59.7159 176.178 59.6345 176.491 59.6307 176.835V178.261C59.6307 178.693 59.7102 179.066 59.8693 179.381C60.0322 179.695 60.2614 179.938 60.5568 180.108C60.8523 180.278 61.2027 180.364 61.608 180.364C61.8769 180.364 62.1231 180.326 62.3466 180.25C62.5701 180.174 62.7614 180.061 62.9205 179.909C63.0795 179.758 63.2008 179.572 63.2841 179.352L65.5227 179.5C65.4091 180.038 65.1761 180.508 64.8239 180.909C64.4754 181.307 64.0246 181.617 63.4716 181.841C62.9223 182.061 62.2879 182.17 61.5682 182.17ZM81.5952 176.182C81.5952 177.451 81.3546 178.53 80.8736 179.42C80.3963 180.311 79.7448 180.991 78.919 181.46C78.0971 181.926 77.1728 182.159 76.1463 182.159C75.1122 182.159 74.1842 181.924 73.3622 181.455C72.5402 180.985 71.8906 180.305 71.4134 179.415C70.9361 178.525 70.6974 177.447 70.6974 176.182C70.6974 174.913 70.9361 173.833 71.4134 172.943C71.8906 172.053 72.5402 171.375 73.3622 170.909C74.1842 170.439 75.1122 170.205 76.1463 170.205C77.1728 170.205 78.0971 170.439 78.919 170.909C79.7448 171.375 80.3963 172.053 80.8736 172.943C81.3546 173.833 81.5952 174.913 81.5952 176.182ZM79.1009 176.182C79.1009 175.36 78.9777 174.667 78.7315 174.102C78.4891 173.538 78.1463 173.11 77.7031 172.818C77.2599 172.527 76.741 172.381 76.1463 172.381C75.5516 172.381 75.0327 172.527 74.5895 172.818C74.1463 173.11 73.8016 173.538 73.5554 174.102C73.313 174.667 73.1918 175.36 73.1918 176.182C73.1918 177.004 73.313 177.697 73.5554 178.261C73.8016 178.826 74.1463 179.254 74.5895 179.545C75.0327 179.837 75.5516 179.983 76.1463 179.983C76.741 179.983 77.2599 179.837 77.7031 179.545C78.1463 179.254 78.4891 178.826 78.7315 178.261C78.9777 177.697 79.1009 177.004 79.1009 176.182ZM83.3722 182V173.273H85.7188V174.795H85.8097C85.9688 174.254 86.2358 173.845 86.6108 173.568C86.9858 173.288 87.4176 173.148 87.9062 173.148C88.0275 173.148 88.1581 173.155 88.2983 173.17C88.4384 173.186 88.5616 173.206 88.6676 173.233V175.381C88.554 175.347 88.3968 175.316 88.196 175.29C87.9953 175.263 87.8116 175.25 87.6449 175.25C87.2888 175.25 86.9706 175.328 86.6903 175.483C86.4138 175.634 86.1941 175.847 86.0312 176.119C85.8722 176.392 85.7926 176.706 85.7926 177.062V182H83.3722ZM92.7287 182.142C92.0658 182.142 91.4654 181.972 90.9276 181.631C90.3935 181.286 89.9692 180.78 89.6548 180.114C89.3442 179.443 89.1889 178.621 89.1889 177.648C89.1889 176.648 89.3499 175.816 89.6719 175.153C89.9938 174.487 90.4219 173.989 90.956 173.659C91.4938 173.326 92.0829 173.159 92.723 173.159C93.2116 173.159 93.6188 173.242 93.9446 173.409C94.2741 173.572 94.5393 173.777 94.7401 174.023C94.9446 174.265 95.0999 174.504 95.206 174.739H95.2798V170.364H97.6946V182H95.3082V180.602H95.206C95.0923 180.845 94.9313 181.085 94.723 181.324C94.5185 181.559 94.2514 181.754 93.9219 181.909C93.5961 182.064 93.1984 182.142 92.7287 182.142ZM93.4957 180.216C93.8859 180.216 94.2154 180.11 94.4844 179.898C94.7571 179.682 94.9654 179.381 95.1094 178.994C95.2571 178.608 95.331 178.155 95.331 177.636C95.331 177.117 95.259 176.667 95.1151 176.284C94.9711 175.902 94.7628 175.606 94.4901 175.398C94.2173 175.189 93.8859 175.085 93.4957 175.085C93.098 175.085 92.7628 175.193 92.4901 175.409C92.2173 175.625 92.0109 175.924 91.8707 176.307C91.7306 176.689 91.6605 177.133 91.6605 177.636C91.6605 178.144 91.7306 178.593 91.8707 178.983C92.0147 179.369 92.2211 179.672 92.4901 179.892C92.7628 180.108 93.098 180.216 93.4957 180.216ZM103.662 182.17C102.764 182.17 101.991 181.989 101.344 181.625C100.7 181.258 100.204 180.739 99.8551 180.068C99.5066 179.394 99.3324 178.597 99.3324 177.676C99.3324 176.778 99.5066 175.991 99.8551 175.312C100.204 174.634 100.694 174.106 101.327 173.727C101.963 173.348 102.709 173.159 103.565 173.159C104.141 173.159 104.677 173.252 105.173 173.438C105.673 173.619 106.109 173.894 106.48 174.261C106.855 174.629 107.147 175.091 107.355 175.648C107.563 176.201 107.668 176.848 107.668 177.591V178.256H100.298V176.756H105.389C105.389 176.407 105.313 176.098 105.162 175.83C105.01 175.561 104.8 175.35 104.531 175.199C104.266 175.044 103.957 174.966 103.605 174.966C103.238 174.966 102.912 175.051 102.628 175.222C102.348 175.388 102.128 175.614 101.969 175.898C101.81 176.178 101.728 176.491 101.724 176.835V178.261C101.724 178.693 101.804 179.066 101.963 179.381C102.126 179.695 102.355 179.938 102.651 180.108C102.946 180.278 103.296 180.364 103.702 180.364C103.971 180.364 104.217 180.326 104.44 180.25C104.664 180.174 104.855 180.061 105.014 179.909C105.173 179.758 105.295 179.572 105.378 179.352L107.616 179.5C107.503 180.038 107.27 180.508 106.918 180.909C106.569 181.307 106.118 181.617 105.565 181.841C105.016 182.061 104.382 182.17 103.662 182.17ZM109.247 182V173.273H111.594V174.795H111.685C111.844 174.254 112.111 173.845 112.486 173.568C112.861 173.288 113.293 173.148 113.781 173.148C113.902 173.148 114.033 173.155 114.173 173.17C114.313 173.186 114.437 173.206 114.543 173.233V175.381C114.429 175.347 114.272 175.316 114.071 175.29C113.87 175.263 113.687 175.25 113.52 175.25C113.164 175.25 112.846 175.328 112.565 175.483C112.289 175.634 112.069 175.847 111.906 176.119C111.747 176.392 111.668 176.706 111.668 177.062V182H109.247ZM123.055 175.761L120.839 175.898C120.802 175.708 120.72 175.538 120.595 175.386C120.47 175.231 120.305 175.108 120.101 175.017C119.9 174.922 119.66 174.875 119.379 174.875C119.004 174.875 118.688 174.955 118.43 175.114C118.173 175.269 118.044 175.477 118.044 175.739C118.044 175.947 118.127 176.123 118.294 176.267C118.461 176.411 118.747 176.527 119.152 176.614L120.732 176.932C121.58 177.106 122.213 177.386 122.629 177.773C123.046 178.159 123.254 178.667 123.254 179.295C123.254 179.867 123.086 180.369 122.749 180.801C122.415 181.233 121.957 181.57 121.374 181.812C120.794 182.051 120.125 182.17 119.368 182.17C118.213 182.17 117.292 181.93 116.607 181.449C115.925 180.964 115.525 180.305 115.408 179.472L117.788 179.347C117.86 179.699 118.035 179.968 118.311 180.153C118.588 180.335 118.942 180.426 119.374 180.426C119.798 180.426 120.139 180.345 120.396 180.182C120.658 180.015 120.79 179.801 120.794 179.54C120.79 179.32 120.697 179.14 120.516 179C120.334 178.856 120.054 178.746 119.675 178.67L118.163 178.369C117.311 178.199 116.677 177.903 116.26 177.483C115.847 177.062 115.641 176.527 115.641 175.875C115.641 175.314 115.792 174.831 116.095 174.426C116.402 174.021 116.832 173.708 117.385 173.489C117.942 173.269 118.593 173.159 119.339 173.159C120.442 173.159 121.309 173.392 121.942 173.858C122.578 174.324 122.949 174.958 123.055 175.761Z" fill="black"/>
<path d="M12 207C12 204.239 14.2386 202 17 202H327C329.761 202 332 204.239 332 207V268H12V207Z" fill="#EFFFF3"/>
<path d="M35.7045 223.182C35.7045 224.451 35.464 225.53 34.983 226.42C34.5057 227.311 33.8542 227.991 33.0284 228.46C32.2064 228.926 31.2822 229.159 30.2557 229.159C29.2216 229.159 28.2936 228.924 27.4716 228.455C26.6496 227.985 26 227.305 25.5227 226.415C25.0455 225.525 24.8068 224.447 24.8068 223.182C24.8068 221.913 25.0455 220.833 25.5227 219.943C26 219.053 26.6496 218.375 27.4716 217.909C28.2936 217.439 29.2216 217.205 30.2557 217.205C31.2822 217.205 32.2064 217.439 33.0284 217.909C33.8542 218.375 34.5057 219.053 34.983 219.943C35.464 220.833 35.7045 221.913 35.7045 223.182ZM33.2102 223.182C33.2102 222.36 33.0871 221.667 32.8409 221.102C32.5985 220.538 32.2557 220.11 31.8125 219.818C31.3693 219.527 30.8504 219.381 30.2557 219.381C29.661 219.381 29.142 219.527 28.6989 219.818C28.2557 220.11 27.911 220.538 27.6648 221.102C27.4223 221.667 27.3011 222.36 27.3011 223.182C27.3011 224.004 27.4223 224.697 27.6648 225.261C27.911 225.826 28.2557 226.254 28.6989 226.545C29.142 226.837 29.661 226.983 30.2557 226.983C30.8504 226.983 31.3693 226.837 31.8125 226.545C32.2557 226.254 32.5985 225.826 32.8409 225.261C33.0871 224.697 33.2102 224.004 33.2102 223.182ZM47.794 221.438H45.3054C45.2599 221.116 45.1671 220.83 45.027 220.58C44.8868 220.326 44.7069 220.11 44.4872 219.932C44.2675 219.754 44.0137 219.617 43.7259 219.523C43.4418 219.428 43.133 219.381 42.7997 219.381C42.1974 219.381 41.6728 219.53 41.2259 219.83C40.7789 220.125 40.4323 220.557 40.1861 221.125C39.9399 221.689 39.8168 222.375 39.8168 223.182C39.8168 224.011 39.9399 224.708 40.1861 225.273C40.4361 225.837 40.7846 226.263 41.2315 226.551C41.6785 226.839 42.1955 226.983 42.7827 226.983C43.1122 226.983 43.4171 226.939 43.6974 226.852C43.9815 226.765 44.2334 226.638 44.4531 226.472C44.6728 226.301 44.8546 226.095 44.9986 225.852C45.1463 225.61 45.2486 225.333 45.3054 225.023L47.794 225.034C47.7296 225.568 47.5687 226.083 47.3111 226.58C47.0573 227.072 46.7145 227.513 46.2827 227.903C45.8546 228.29 45.3433 228.597 44.7486 228.824C44.1577 229.047 43.4891 229.159 42.7429 229.159C41.705 229.159 40.777 228.924 39.9588 228.455C39.1444 227.985 38.5005 227.305 38.027 226.415C37.5573 225.525 37.3224 224.447 37.3224 223.182C37.3224 221.913 37.5611 220.833 38.0384 219.943C38.5156 219.053 39.1634 218.375 39.9815 217.909C40.7997 217.439 41.7202 217.205 42.7429 217.205C43.4171 217.205 44.0421 217.299 44.6179 217.489C45.1974 217.678 45.7107 217.955 46.1577 218.318C46.6046 218.678 46.9683 219.119 47.2486 219.642C47.5327 220.165 47.7145 220.763 47.794 221.438ZM49.1151 219.392V217.364H58.6719V219.392H55.1094V229H52.6776V219.392H49.1151ZM70.4077 223.182C70.4077 224.451 70.1671 225.53 69.6861 226.42C69.2088 227.311 68.5573 227.991 67.7315 228.46C66.9096 228.926 65.9853 229.159 64.9588 229.159C63.9247 229.159 62.9967 228.924 62.1747 228.455C61.3527 227.985 60.7031 227.305 60.2259 226.415C59.7486 225.525 59.5099 224.447 59.5099 223.182C59.5099 221.913 59.7486 220.833 60.2259 219.943C60.7031 219.053 61.3527 218.375 62.1747 217.909C62.9967 217.439 63.9247 217.205 64.9588 217.205C65.9853 217.205 66.9096 217.439 67.7315 217.909C68.5573 218.375 69.2088 219.053 69.6861 219.943C70.1671 220.833 70.4077 221.913 70.4077 223.182ZM67.9134 223.182C67.9134 222.36 67.7902 221.667 67.544 221.102C67.3016 220.538 66.9588 220.11 66.5156 219.818C66.0724 219.527 65.5535 219.381 64.9588 219.381C64.3641 219.381 63.8452 219.527 63.402 219.818C62.9588 220.11 62.6141 220.538 62.3679 221.102C62.1255 221.667 62.0043 222.36 62.0043 223.182C62.0043 224.004 62.1255 224.697 62.3679 225.261C62.6141 225.826 62.9588 226.254 63.402 226.545C63.8452 226.837 64.3641 226.983 64.9588 226.983C65.5535 226.983 66.0724 226.837 66.5156 226.545C66.9588 226.254 67.3016 225.826 67.544 225.261C67.7902 224.697 67.9134 224.004 67.9134 223.182ZM72.2301 229V217.364H76.8892C77.7453 217.364 78.4593 217.491 79.0312 217.744C79.6032 217.998 80.0331 218.35 80.321 218.801C80.6089 219.248 80.7528 219.763 80.7528 220.347C80.7528 220.801 80.6619 221.201 80.4801 221.545C80.2983 221.886 80.0483 222.167 79.7301 222.386C79.4157 222.602 79.0559 222.756 78.6506 222.847V222.96C79.0938 222.979 79.5085 223.104 79.8949 223.335C80.285 223.566 80.6013 223.89 80.8438 224.307C81.0862 224.72 81.2074 225.212 81.2074 225.784C81.2074 226.402 81.054 226.953 80.7472 227.438C80.4441 227.919 79.9953 228.299 79.4006 228.58C78.8059 228.86 78.0729 229 77.2017 229H72.2301ZM74.6903 226.989H76.696C77.3816 226.989 77.8816 226.858 78.196 226.597C78.5104 226.331 78.6676 225.979 78.6676 225.54C78.6676 225.218 78.59 224.934 78.4347 224.688C78.2794 224.441 78.0578 224.248 77.7699 224.108C77.4858 223.968 77.1468 223.898 76.7528 223.898H74.6903V226.989ZM74.6903 222.233H76.5142C76.8513 222.233 77.1506 222.174 77.4119 222.057C77.6771 221.936 77.8854 221.765 78.0369 221.545C78.1922 221.326 78.2699 221.062 78.2699 220.756C78.2699 220.335 78.1203 219.996 77.821 219.739C77.5256 219.481 77.1051 219.352 76.5597 219.352H74.6903V222.233ZM82.8082 229V217.364H90.6491V219.392H85.2685V222.165H90.2457V224.193H85.2685V226.972H90.6719V229H82.8082ZM92.6051 229V217.364H97.196C98.0748 217.364 98.8248 217.521 99.446 217.835C100.071 218.146 100.546 218.587 100.872 219.159C101.202 219.727 101.366 220.396 101.366 221.165C101.366 221.937 101.2 222.602 100.866 223.159C100.533 223.712 100.05 224.136 99.4176 224.432C98.7888 224.727 98.0275 224.875 97.1335 224.875H94.0597V222.898H96.7358C97.2055 222.898 97.5956 222.833 97.9062 222.705C98.2169 222.576 98.4479 222.383 98.5994 222.125C98.7547 221.867 98.8324 221.547 98.8324 221.165C98.8324 220.778 98.7547 220.453 98.5994 220.188C98.4479 219.922 98.215 219.722 97.9006 219.585C97.59 219.445 97.1979 219.375 96.7244 219.375H95.0653V229H92.6051ZM98.8892 223.705L101.781 229H99.0653L96.2358 223.705H98.8892ZM110.95 217.205C111.549 217.205 112.125 217.305 112.678 217.506C113.234 217.706 113.731 218.027 114.166 218.466C114.606 218.905 114.952 219.489 115.206 220.216C115.464 220.939 115.594 221.828 115.598 222.881C115.598 223.869 115.486 224.752 115.263 225.528C115.043 226.301 114.727 226.958 114.314 227.5C113.901 228.042 113.403 228.455 112.82 228.739C112.236 229.019 111.585 229.159 110.865 229.159C110.089 229.159 109.403 229.009 108.808 228.71C108.214 228.407 107.734 227.996 107.371 227.477C107.011 226.955 106.793 226.367 106.717 225.716H109.143C109.238 226.14 109.437 226.47 109.74 226.705C110.043 226.936 110.418 227.051 110.865 227.051C111.623 227.051 112.198 226.722 112.592 226.062C112.986 225.4 113.185 224.492 113.189 223.341H113.109C112.935 223.682 112.7 223.975 112.405 224.222C112.109 224.464 111.77 224.652 111.388 224.784C111.009 224.917 110.606 224.983 110.178 224.983C109.492 224.983 108.88 224.822 108.342 224.5C107.804 224.178 107.38 223.735 107.07 223.17C106.759 222.606 106.604 221.962 106.604 221.239C106.6 220.458 106.78 219.763 107.143 219.153C107.507 218.544 108.015 218.066 108.666 217.722C109.321 217.373 110.083 217.201 110.95 217.205ZM110.967 219.136C110.585 219.136 110.244 219.227 109.945 219.409C109.649 219.591 109.414 219.835 109.24 220.142C109.07 220.449 108.986 220.792 108.99 221.17C108.99 221.553 109.073 221.898 109.24 222.205C109.411 222.508 109.642 222.75 109.933 222.932C110.229 223.11 110.566 223.199 110.945 223.199C111.229 223.199 111.492 223.146 111.734 223.04C111.977 222.934 112.187 222.788 112.365 222.602C112.547 222.413 112.689 222.195 112.791 221.949C112.893 221.703 112.945 221.441 112.945 221.165C112.941 220.797 112.854 220.46 112.683 220.153C112.513 219.847 112.278 219.6 111.979 219.415C111.679 219.229 111.342 219.136 110.967 219.136ZM119.487 227.409L119.425 228.034C119.375 228.534 119.281 229.032 119.141 229.528C119.004 230.028 118.86 230.481 118.709 230.886C118.561 231.292 118.442 231.61 118.351 231.841H116.783C116.839 231.617 116.917 231.305 117.016 230.903C117.114 230.506 117.207 230.059 117.294 229.562C117.381 229.066 117.436 228.561 117.459 228.045L117.487 227.409H119.487ZM124.834 229V227.227L128.976 223.392C129.328 223.051 129.624 222.744 129.862 222.472C130.105 222.199 130.288 221.932 130.413 221.67C130.538 221.405 130.601 221.119 130.601 220.812C130.601 220.472 130.523 220.178 130.368 219.932C130.213 219.682 130 219.491 129.732 219.358C129.463 219.222 129.158 219.153 128.817 219.153C128.461 219.153 128.15 219.225 127.885 219.369C127.62 219.513 127.415 219.72 127.271 219.989C127.127 220.258 127.055 220.578 127.055 220.949H124.72C124.72 220.187 124.893 219.527 125.237 218.966C125.582 218.405 126.065 217.972 126.686 217.665C127.307 217.358 128.023 217.205 128.834 217.205C129.667 217.205 130.393 217.352 131.01 217.648C131.631 217.939 132.114 218.345 132.459 218.864C132.804 219.383 132.976 219.977 132.976 220.648C132.976 221.087 132.889 221.521 132.714 221.949C132.544 222.377 132.239 222.852 131.8 223.375C131.36 223.894 130.741 224.517 129.942 225.244L128.243 226.909V226.989H133.129V229H124.834ZM139.474 229.256C138.497 229.252 137.656 229.011 136.952 228.534C136.251 228.057 135.711 227.366 135.332 226.46C134.957 225.555 134.772 224.466 134.776 223.193C134.776 221.924 134.963 220.843 135.338 219.949C135.717 219.055 136.257 218.375 136.957 217.909C137.662 217.439 138.501 217.205 139.474 217.205C140.448 217.205 141.285 217.439 141.986 217.909C142.69 218.379 143.232 219.061 143.611 219.955C143.99 220.845 144.177 221.924 144.173 223.193C144.173 224.47 143.984 225.561 143.605 226.466C143.23 227.371 142.692 228.062 141.991 228.54C141.291 229.017 140.452 229.256 139.474 229.256ZM139.474 227.216C140.141 227.216 140.673 226.881 141.071 226.21C141.469 225.54 141.666 224.534 141.662 223.193C141.662 222.311 141.571 221.576 141.389 220.989C141.211 220.402 140.957 219.96 140.628 219.665C140.302 219.369 139.918 219.222 139.474 219.222C138.812 219.222 138.281 219.553 137.884 220.216C137.486 220.879 137.285 221.871 137.281 223.193C137.281 224.087 137.37 224.833 137.548 225.432C137.73 226.027 137.986 226.473 138.315 226.773C138.645 227.068 139.031 227.216 139.474 227.216ZM145.928 229V227.227L150.07 223.392C150.422 223.051 150.717 222.744 150.956 222.472C151.198 222.199 151.382 221.932 151.507 221.67C151.632 221.405 151.695 221.119 151.695 220.812C151.695 220.472 151.617 220.178 151.462 219.932C151.306 219.682 151.094 219.491 150.825 219.358C150.556 219.222 150.251 219.153 149.911 219.153C149.554 219.153 149.244 219.225 148.979 219.369C148.714 219.513 148.509 219.72 148.365 219.989C148.221 220.258 148.149 220.578 148.149 220.949H145.814C145.814 220.187 145.986 219.527 146.331 218.966C146.676 218.405 147.159 217.972 147.78 217.665C148.401 217.358 149.117 217.205 149.928 217.205C150.761 217.205 151.486 217.352 152.104 217.648C152.725 217.939 153.208 218.345 153.553 218.864C153.897 219.383 154.07 219.977 154.07 220.648C154.07 221.087 153.982 221.521 153.808 221.949C153.638 222.377 153.333 222.852 152.893 223.375C152.454 223.894 151.835 224.517 151.036 225.244L149.337 226.909V226.989H154.223V229H145.928ZM156.006 229V227.227L160.148 223.392C160.5 223.051 160.795 222.744 161.034 222.472C161.277 222.199 161.46 221.932 161.585 221.67C161.71 221.405 161.773 221.119 161.773 220.812C161.773 220.472 161.695 220.178 161.54 219.932C161.384 219.682 161.172 219.491 160.903 219.358C160.634 219.222 160.33 219.153 159.989 219.153C159.633 219.153 159.322 219.225 159.057 219.369C158.792 219.513 158.587 219.72 158.443 219.989C158.299 220.258 158.227 220.578 158.227 220.949H155.892C155.892 220.187 156.064 219.527 156.409 218.966C156.754 218.405 157.237 217.972 157.858 217.665C158.479 217.358 159.195 217.205 160.006 217.205C160.839 217.205 161.564 217.352 162.182 217.648C162.803 217.939 163.286 218.345 163.631 218.864C163.975 219.383 164.148 219.977 164.148 220.648C164.148 221.087 164.061 221.521 163.886 221.949C163.716 222.377 163.411 222.852 162.972 223.375C162.532 223.894 161.913 224.517 161.114 225.244L159.415 226.909V226.989H164.301V229H156.006Z" fill="#005313"/>
<mask id="mask2_130_590" style="mask-type:alpha" maskUnits="userSpaceOnUse" x="24" y="240" width="16" height="16">
<rect x="24" y="240" width="16" height="16" fill="#D9D9D9"/>
</mask>
<g mask="url(#mask2_130_590)">
<path d="M29.3333 249.333C29.1444 249.333 28.986 249.269 28.858 249.141C28.7304 249.014 28.6667 248.856 28.6667 248.667C28.6667 248.478 28.7304 248.319 28.858 248.191C28.986 248.064 29.1444 248 29.3333 248C29.5222 248 29.6807 248.064 29.8087 248.191C29.9362 248.319 30 248.478 30 248.667C30 248.856 29.9362 249.014 29.8087 249.141C29.6807 249.269 29.5222 249.333 29.3333 249.333ZM32 249.333C31.8111 249.333 31.6529 249.269 31.5253 249.141C31.3973 249.014 31.3333 248.856 31.3333 248.667C31.3333 248.478 31.3973 248.319 31.5253 248.191C31.6529 248.064 31.8111 248 32 248C32.1889 248 32.3473 248.064 32.4753 248.191C32.6029 248.319 32.6667 248.478 32.6667 248.667C32.6667 248.856 32.6029 249.014 32.4753 249.141C32.3473 249.269 32.1889 249.333 32 249.333ZM34.6667 249.333C34.4778 249.333 34.3196 249.269 34.192 249.141C34.064 249.014 34 248.856 34 248.667C34 248.478 34.064 248.319 34.192 248.191C34.3196 248.064 34.4778 248 34.6667 248C34.8556 248 35.0138 248.064 35.1413 248.191C35.2693 248.319 35.3333 248.478 35.3333 248.667C35.3333 248.856 35.2693 249.014 35.1413 249.141C35.0138 249.269 34.8556 249.333 34.6667 249.333ZM27.3333 254.667C26.9667 254.667 26.6527 254.536 26.3913 254.275C26.1304 254.014 26 253.7 26 253.333V244C26 243.633 26.1304 243.32 26.3913 243.059C26.6527 242.797 26.9667 242.667 27.3333 242.667H28V241.333H29.3333V242.667H34.6667V241.333H36V242.667H36.6667C37.0333 242.667 37.3473 242.797 37.6087 243.059C37.8696 243.32 38 243.633 38 244V253.333C38 253.7 37.8696 254.014 37.6087 254.275C37.3473 254.536 37.0333 254.667 36.6667 254.667H27.3333ZM27.3333 253.333H36.6667V246.667H27.3333V253.333ZM27.3333 245.333H36.6667V244H27.3333V245.333Z" fill="#00A54F"/>
</g>
<rect x="42" y="243" width="45" height="10" rx="5" fill="#C5DFCB"/>
<mask id="mask3_130_590" style="mask-type:alpha" maskUnits="userSpaceOnUse" x="99" y="240" width="16" height="16">
<rect x="99" y="240" width="16" height="16" fill="#D9D9D9"/>
</mask>
<g mask="url(#mask3_130_590)">
<path d="M109.2 251.133L110.133 250.2L107.666 247.733V244.667H106.333V248.267L109.2 251.133ZM107 254.667C106.077 254.667 105.211 254.492 104.4 254.141C103.589 253.792 102.883 253.317 102.283 252.717C101.683 252.117 101.208 251.411 100.858 250.6C100.508 249.789 100.333 248.922 100.333 248C100.333 247.078 100.508 246.211 100.858 245.4C101.208 244.589 101.683 243.883 102.283 243.283C102.883 242.683 103.589 242.208 104.4 241.858C105.211 241.508 106.077 241.333 107 241.333C107.922 241.333 108.789 241.508 109.6 241.858C110.411 242.208 111.116 242.683 111.716 243.283C112.316 243.883 112.791 244.589 113.141 245.4C113.491 246.211 113.666 247.078 113.666 248C113.666 248.922 113.491 249.789 113.141 250.6C112.791 251.411 112.316 252.117 111.716 252.717C111.116 253.317 110.411 253.792 109.6 254.141C108.789 254.492 107.922 254.667 107 254.667ZM107 253.333C108.477 253.333 109.736 252.814 110.775 251.775C111.814 250.736 112.333 249.478 112.333 248C112.333 246.522 111.814 245.264 110.775 244.225C109.736 243.186 108.477 242.667 107 242.667C105.522 242.667 104.264 243.186 103.225 244.225C102.186 245.264 101.666 246.522 101.666 248C101.666 249.478 102.186 250.736 103.225 251.775C104.264 252.814 105.522 253.333 107 253.333Z" fill="#00A54F"/>
</g>
<rect x="119" y="243" width="45" height="10" rx="5" fill="#C5DFCB"/>
<circle cx="254" cy="235" r="2" fill="#00A54F"/>
<path d="M268.373 233.5H267.316C267.253 233.196 267.144 232.929 266.988 232.699C266.834 232.469 266.647 232.276 266.425 232.119C266.206 231.96 265.963 231.841 265.696 231.761C265.429 231.682 265.151 231.642 264.861 231.642C264.333 231.642 263.854 231.776 263.425 232.043C262.999 232.31 262.659 232.703 262.407 233.223C262.157 233.743 262.032 234.381 262.032 235.136C262.032 235.892 262.157 236.53 262.407 237.05C262.659 237.57 262.999 237.963 263.425 238.23C263.854 238.497 264.333 238.631 264.861 238.631C265.151 238.631 265.429 238.591 265.696 238.511C265.963 238.432 266.206 238.314 266.425 238.158C266.647 237.999 266.834 237.804 266.988 237.574C267.144 237.341 267.253 237.074 267.316 236.773H268.373C268.293 237.219 268.148 237.618 267.938 237.97C267.728 238.322 267.466 238.622 267.154 238.869C266.841 239.114 266.49 239.3 266.101 239.428C265.715 239.555 265.301 239.619 264.861 239.619C264.117 239.619 263.455 239.438 262.875 239.074C262.296 238.71 261.84 238.193 261.507 237.523C261.175 236.852 261.009 236.057 261.009 235.136C261.009 234.216 261.175 233.42 261.507 232.75C261.84 232.08 262.296 231.562 262.875 231.199C263.455 230.835 264.117 230.653 264.861 230.653C265.301 230.653 265.715 230.717 266.101 230.845C266.49 230.973 266.841 231.161 267.154 231.408C267.466 231.652 267.728 231.95 267.938 232.303C268.148 232.652 268.293 233.051 268.373 233.5ZM272.603 239.636C272.012 239.636 271.494 239.496 271.048 239.214C270.604 238.933 270.258 238.54 270.008 238.034C269.761 237.528 269.637 236.937 269.637 236.261C269.637 235.58 269.761 234.984 270.008 234.476C270.258 233.967 270.604 233.572 271.048 233.291C271.494 233.01 272.012 232.869 272.603 232.869C273.194 232.869 273.711 233.01 274.154 233.291C274.6 233.572 274.947 233.967 275.194 234.476C275.444 234.984 275.569 235.58 275.569 236.261C275.569 236.937 275.444 237.528 275.194 238.034C274.947 238.54 274.6 238.933 274.154 239.214C273.711 239.496 273.194 239.636 272.603 239.636ZM272.603 238.733C273.052 238.733 273.421 238.618 273.711 238.388C274.001 238.158 274.215 237.855 274.354 237.48C274.494 237.105 274.563 236.699 274.563 236.261C274.563 235.824 274.494 235.416 274.354 235.038C274.215 234.661 274.001 234.355 273.711 234.122C273.421 233.889 273.052 233.773 272.603 233.773C272.154 233.773 271.785 233.889 271.495 234.122C271.205 234.355 270.991 234.661 270.852 235.038C270.712 235.416 270.643 235.824 270.643 236.261C270.643 236.699 270.712 237.105 270.852 237.48C270.991 237.855 271.205 238.158 271.495 238.388C271.785 238.618 272.154 238.733 272.603 238.733ZM278.11 235.562V239.5H277.104V232.955H278.076V233.977H278.161C278.314 233.645 278.547 233.378 278.86 233.176C279.172 232.972 279.576 232.869 280.07 232.869C280.513 232.869 280.901 232.96 281.233 233.142C281.566 233.321 281.824 233.594 282.009 233.96C282.194 234.324 282.286 234.784 282.286 235.341V239.5H281.28V235.409C281.28 234.895 281.147 234.494 280.88 234.207C280.613 233.918 280.246 233.773 279.78 233.773C279.459 233.773 279.172 233.842 278.919 233.982C278.669 234.121 278.472 234.324 278.327 234.591C278.182 234.858 278.11 235.182 278.11 235.562ZM287.038 232.955V233.807H283.51V232.955H287.038ZM284.567 239.5V232.051C284.567 231.676 284.655 231.364 284.831 231.114C285.007 230.864 285.236 230.676 285.517 230.551C285.798 230.426 286.095 230.364 286.408 230.364C286.655 230.364 286.857 230.384 287.013 230.423C287.169 230.463 287.286 230.5 287.362 230.534L287.072 231.403C287.021 231.386 286.95 231.365 286.859 231.339C286.771 231.314 286.655 231.301 286.51 231.301C286.178 231.301 285.938 231.385 285.79 231.553C285.645 231.72 285.572 231.966 285.572 232.29V239.5H284.567ZM288.448 239.5V232.955H289.453V239.5H288.448ZM288.959 231.864C288.763 231.864 288.594 231.797 288.452 231.663C288.313 231.53 288.243 231.369 288.243 231.182C288.243 230.994 288.313 230.834 288.452 230.7C288.594 230.567 288.763 230.5 288.959 230.5C289.155 230.5 289.323 230.567 289.462 230.7C289.604 230.834 289.675 230.994 289.675 231.182C289.675 231.369 289.604 231.53 289.462 231.663C289.323 231.797 289.155 231.864 288.959 231.864ZM291.295 239.5V232.955H292.267V233.943H292.335C292.455 233.619 292.67 233.357 292.983 233.155C293.295 232.953 293.648 232.852 294.04 232.852C294.114 232.852 294.206 232.854 294.317 232.857C294.428 232.859 294.511 232.864 294.568 232.869V233.892C294.534 233.884 294.456 233.871 294.334 233.854C294.214 233.834 294.088 233.824 293.955 233.824C293.636 233.824 293.352 233.891 293.102 234.024C292.855 234.155 292.659 234.337 292.514 234.57C292.372 234.8 292.301 235.062 292.301 235.358V239.5H291.295ZM295.76 239.5V232.955H296.732V233.977H296.817C296.953 233.628 297.174 233.357 297.478 233.163C297.782 232.967 298.147 232.869 298.573 232.869C299.005 232.869 299.364 232.967 299.651 233.163C299.941 233.357 300.167 233.628 300.328 233.977H300.397C300.564 233.639 300.816 233.371 301.151 233.172C301.486 232.97 301.888 232.869 302.357 232.869C302.942 232.869 303.421 233.053 303.793 233.419C304.165 233.783 304.351 234.349 304.351 235.119V239.5H303.346V235.119C303.346 234.636 303.213 234.291 302.949 234.084C302.685 233.876 302.374 233.773 302.016 233.773C301.556 233.773 301.199 233.912 300.946 234.19C300.694 234.466 300.567 234.815 300.567 235.239V239.5H299.544V235.017C299.544 234.645 299.424 234.345 299.182 234.118C298.941 233.888 298.63 233.773 298.249 233.773C297.988 233.773 297.743 233.842 297.516 233.982C297.292 234.121 297.11 234.314 296.971 234.561C296.834 234.805 296.766 235.088 296.766 235.409V239.5H295.76ZM308.934 239.636C308.304 239.636 307.76 239.497 307.302 239.219C306.848 238.938 306.497 238.545 306.25 238.043C306.005 237.537 305.883 236.949 305.883 236.278C305.883 235.608 306.005 235.017 306.25 234.506C306.497 233.991 306.841 233.591 307.281 233.304C307.724 233.014 308.241 232.869 308.832 232.869C309.173 232.869 309.51 232.926 309.842 233.04C310.174 233.153 310.477 233.338 310.75 233.594C311.022 233.847 311.24 234.182 311.402 234.599C311.564 235.017 311.645 235.531 311.645 236.142V236.568H306.599V235.699H310.622C310.622 235.33 310.548 235 310.4 234.71C310.255 234.42 310.048 234.192 309.778 234.024C309.511 233.857 309.196 233.773 308.832 233.773C308.431 233.773 308.085 233.872 307.792 234.071C307.502 234.267 307.279 234.523 307.123 234.838C306.967 235.153 306.889 235.491 306.889 235.852V236.432C306.889 236.926 306.974 237.345 307.145 237.689C307.318 238.03 307.558 238.29 307.865 238.469C308.172 238.645 308.528 238.733 308.934 238.733C309.199 238.733 309.437 238.696 309.65 238.622C309.866 238.545 310.052 238.432 310.208 238.281C310.365 238.128 310.485 237.937 310.571 237.71L311.542 237.983C311.44 238.312 311.268 238.602 311.027 238.852C310.785 239.099 310.487 239.293 310.132 239.432C309.777 239.568 309.377 239.636 308.934 239.636ZM315.646 239.636C315.1 239.636 314.619 239.499 314.201 239.223C313.784 238.945 313.457 238.553 313.221 238.047C312.985 237.538 312.868 236.938 312.868 236.244C312.868 235.557 312.985 234.96 313.221 234.455C313.457 233.949 313.785 233.558 314.206 233.283C314.626 233.007 315.112 232.869 315.663 232.869C316.089 232.869 316.426 232.94 316.673 233.082C316.923 233.222 317.113 233.381 317.244 233.56C317.377 233.736 317.481 233.881 317.555 233.994H317.64V230.773H318.646V239.5H317.674V238.494H317.555C317.481 238.614 317.376 238.764 317.24 238.946C317.103 239.125 316.909 239.286 316.656 239.428C316.403 239.567 316.066 239.636 315.646 239.636ZM315.782 238.733C316.186 238.733 316.527 238.628 316.805 238.418C317.083 238.205 317.295 237.911 317.44 237.536C317.585 237.158 317.657 236.722 317.657 236.227C317.657 235.739 317.586 235.311 317.444 234.945C317.302 234.575 317.092 234.288 316.814 234.084C316.535 233.876 316.191 233.773 315.782 233.773C315.356 233.773 315.001 233.882 314.717 234.101C314.436 234.317 314.224 234.611 314.082 234.983C313.943 235.352 313.873 235.767 313.873 236.227C313.873 236.693 313.944 237.116 314.086 237.497C314.231 237.875 314.444 238.176 314.725 238.401C315.01 238.622 315.362 238.733 315.782 238.733Z" fill="#005313"/>
<mask id="path-23-inside-1_130_590" fill="white">
<path d="M12 268H332V333C332 335.761 329.761 338 327 338H17C14.2386 338 12 335.761 12 333V268Z"/>
</mask>
<path d="M12 268H332H12ZM333 333C333 336.314 330.314 339 327 339H17C13.6863 339 11 336.314 11 333H13C13 335.209 14.7909 337 17 337H327C329.209 337 331 335.209 331 333H333ZM17 339C13.6863 339 11 336.314 11 333V268H13V333C13 335.209 14.7909 337 17 337V339ZM333 268V333C333 336.314 330.314 339 327 339V337C329.209 337 331 335.209 331 333V268H333Z" fill="#E0E0E5" mask="url(#path-23-inside-1_130_590)"/>
<mask id="mask4_130_590" style="mask-type:alpha" maskUnits="userSpaceOnUse" x="25" y="283" width="14" height="13">
<rect x="25.5996" y="283.1" width="12.8" height="12.8" fill="#D9D9D9"/>
</mask>
<g mask="url(#mask4_130_590)">
<path d="M32.0001 289.5C32.2934 289.5 32.5446 289.395 32.7537 289.186C32.9624 288.978 33.0667 288.727 33.0667 288.433C33.0667 288.14 32.9624 287.889 32.7537 287.68C32.5446 287.471 32.2934 287.367 32.0001 287.367C31.7067 287.367 31.4557 287.471 31.247 287.68C31.0379 287.889 30.9334 288.14 30.9334 288.433C30.9334 288.727 31.0379 288.978 31.247 289.186C31.4557 289.395 31.7067 289.5 32.0001 289.5ZM32.0001 293.42C33.0845 292.424 33.889 291.52 34.4134 290.706C34.9378 289.893 35.2001 289.171 35.2001 288.54C35.2001 287.571 34.8911 286.778 34.2731 286.16C33.6555 285.542 32.8978 285.233 32.0001 285.233C31.1023 285.233 30.3444 285.542 29.7265 286.16C29.1089 286.778 28.8001 287.571 28.8001 288.54C28.8001 289.171 29.0623 289.893 29.5867 290.706C30.1112 291.52 30.9156 292.424 32.0001 293.42ZM32.0001 294.833C30.569 293.616 29.5002 292.484 28.7937 291.44C28.0868 290.395 27.7334 289.429 27.7334 288.54C27.7334 287.207 28.1624 286.144 29.0203 285.353C29.8779 284.562 30.8712 284.167 32.0001 284.167C33.129 284.167 34.1222 284.562 34.9798 285.353C35.8378 286.144 36.2667 287.207 36.2667 288.54C36.2667 289.429 35.9135 290.395 35.207 291.44C34.5002 292.484 33.4312 293.616 32.0001 294.833Z" fill="#00A54F"/>
</g>
<rect x="44" y="280" width="175" height="19" rx="9.5" fill="#F2F2F2"/>
<mask id="mask5_130_590" style="mask-type:alpha" maskUnits="userSpaceOnUse" x="25" y="310" width="14" height="13">
<rect x="25.5996" y="310.1" width="12.8" height="12.8" fill="#5D5C64"/>
</mask>
<g mask="url(#mask5_130_590)">
<path d="M31.4792 321.3V320.153C31.0081 320.047 30.6015 319.842 30.2595 319.54C29.9171 319.238 29.6659 318.811 29.5059 318.26L30.4925 317.86C30.6259 318.287 30.8237 318.611 31.0861 318.833C31.3482 319.056 31.6925 319.167 32.1192 319.167C32.4836 319.167 32.7926 319.084 33.0461 318.92C33.2993 318.756 33.4259 318.5 33.4259 318.153C33.4259 317.842 33.3281 317.595 33.1325 317.413C32.937 317.231 32.4836 317.024 31.7725 316.793C31.0081 316.553 30.4836 316.267 30.1992 315.934C29.9147 315.6 29.7725 315.193 29.7725 314.713C29.7725 314.136 29.9592 313.687 30.3325 313.367C30.7059 313.047 31.0881 312.864 31.4792 312.82V311.7H32.5459V312.82C32.9903 312.891 33.3571 313.053 33.6461 313.306C33.9348 313.56 34.1459 313.869 34.2792 314.233L33.2925 314.66C33.1859 314.376 33.0347 314.162 32.8392 314.02C32.6436 313.878 32.377 313.807 32.0392 313.807C31.6481 313.807 31.3503 313.893 31.1459 314.067C30.9414 314.24 30.8392 314.456 30.8392 314.713C30.8392 315.007 30.9725 315.238 31.2392 315.407C31.5059 315.576 31.9681 315.753 32.6259 315.94C33.2392 316.118 33.7037 316.4 34.0195 316.786C34.3348 317.173 34.4925 317.62 34.4925 318.127C34.4925 318.758 34.3059 319.238 33.9325 319.567C33.5592 319.896 33.097 320.1 32.5459 320.18V321.3H31.4792Z" fill="#00A54F"/>
</g>
<rect x="44" y="307" width="142" height="19" rx="9.5" fill="#F2F2F2"/>
</svg>
