<svg width="660" height="389" viewBox="0 0 660 389" fill="none" xmlns="http://www.w3.org/2000/svg">
<g clip-path="url(#clip0_130_573)">
<rect width="660" height="389" fill="white"/>
<rect width="330" height="195" fill="#08313A"/>
<mask id="mask0_130_573" style="mask-type:alpha" maskUnits="userSpaceOnUse" x="49" y="61" width="96" height="96">
<rect x="49" y="61" width="96" height="96" fill="#D9D9D9"/>
</mask>
<g mask="url(#mask0_130_573)">
<path d="M89 145C87.8667 145 86.9167 144.617 86.15 143.85C85.3833 143.083 85 142.133 85 141V93H65C65 87.4667 66.95 82.75 70.85 78.85C74.75 74.95 79.4667 73 85 73H109V85L121 73H129V105H121L109 93V141C109 142.133 108.617 143.083 107.85 143.85C107.083 144.617 106.133 145 105 145H89ZM93 137H101V113H93V137ZM93 105H101V81H85C83.2667 81 81.6333 81.35 80.1 82.05C78.5667 82.75 77.2333 83.7333 76.1 85H93V105Z" fill="#5AFF91"/>
</g>
<rect width="330" height="195" transform="translate(330)" fill="#5AFF91"/>
<mask id="mask1_130_573" style="mask-type:alpha" maskUnits="userSpaceOnUse" x="514" y="49" width="96" height="96">
<rect x="514" y="49" width="96" height="96" fill="#D9D9D9"/>
</mask>
<g mask="url(#mask1_130_573)">
<path d="M534 133V117H526V109H534V92.4L522.8 101L518 94.6L562 61L606 94.6L601.2 101L590 92.4V109H598V117H590V133H582V117H566V133H558V117H542V133H534ZM542 109H558V74.1L542 86.3V109ZM566 109H582V86.3L566 74.1V109Z" fill="#ECF87F"/>
</g>
<rect width="330" height="195" transform="translate(0 194)" fill="#ECF87F"/>
<mask id="mask2_130_573" style="mask-type:alpha" maskUnits="userSpaceOnUse" x="50" y="243" width="96" height="96">
<rect x="50" y="243" width="96" height="96" fill="#D9D9D9"/>
</mask>
<g mask="url(#mask2_130_573)">
<path d="M54.1992 327V315.8C54.1992 313.6 54.7659 311.533 55.8992 309.6C57.0326 307.667 58.5992 306.2 60.5992 305.2C63.9992 303.467 67.8326 302 72.0992 300.8C76.3659 299.6 81.0659 299 86.1992 299C91.3326 299 96.0326 299.6 100.299 300.8C104.566 302 108.399 303.467 111.799 305.2C113.799 306.2 115.366 307.667 116.499 309.6C117.633 311.533 118.199 313.6 118.199 315.8V327H54.1992ZM62.1992 319H110.199V315.8C110.199 315.067 110.016 314.4 109.649 313.8C109.283 313.2 108.799 312.733 108.199 312.4C105.799 311.2 102.716 310 98.9492 308.8C95.1826 307.6 90.9326 307 86.1992 307C81.4659 307 77.2159 307.6 73.4492 308.8C69.6826 310 66.5992 311.2 64.1992 312.4C63.5992 312.733 63.1159 313.2 62.7492 313.8C62.3826 314.4 62.1992 315.067 62.1992 315.8V319ZM86.1992 295C81.7992 295 78.0326 293.433 74.8992 290.3C71.7659 287.167 70.1992 283.4 70.1992 279H69.1992C68.5992 279 68.1159 278.817 67.7492 278.45C67.3826 278.083 67.1992 277.6 67.1992 277C67.1992 276.4 67.3826 275.917 67.7492 275.55C68.1159 275.183 68.5992 275 69.1992 275H70.1992C70.1992 272 70.9326 269.3 72.3992 266.9C73.8659 264.5 75.7992 262.6 78.1992 261.2V265C78.1992 265.6 78.3826 266.083 78.7492 266.45C79.1159 266.817 79.5992 267 80.1992 267C80.7992 267 81.2826 266.817 81.6492 266.45C82.0159 266.083 82.1992 265.6 82.1992 265V259.6C82.7992 259.4 83.4326 259.25 84.0992 259.15C84.7659 259.05 85.4659 259 86.1992 259C86.9326 259 87.6326 259.05 88.2992 259.15C88.9659 259.25 89.5992 259.4 90.1992 259.6V265C90.1992 265.6 90.3826 266.083 90.7492 266.45C91.1159 266.817 91.5992 267 92.1992 267C92.7992 267 93.2826 266.817 93.6492 266.45C94.0159 266.083 94.1992 265.6 94.1992 265V261.2C96.5992 262.6 98.5326 264.5 99.9992 266.9C101.466 269.3 102.199 272 102.199 275H103.199C103.799 275 104.283 275.183 104.649 275.55C105.016 275.917 105.199 276.4 105.199 277C105.199 277.6 105.016 278.083 104.649 278.45C104.283 278.817 103.799 279 103.199 279H102.199C102.199 283.4 100.633 287.167 97.4992 290.3C94.3659 293.433 90.5992 295 86.1992 295ZM86.1992 287C88.3992 287 90.2826 286.217 91.8492 284.65C93.4159 283.083 94.1992 281.2 94.1992 279H78.1992C78.1992 281.2 78.9826 283.083 80.5492 284.65C82.1159 286.217 83.9992 287 86.1992 287ZM116.199 303L115.599 300C115.199 299.867 114.816 299.717 114.449 299.55C114.083 299.383 113.733 299.133 113.399 298.8L110.599 299.8L108.599 296.2L110.799 294.2V291.8L108.599 289.8L110.599 286.2L113.399 287.2C113.666 286.933 113.999 286.7 114.399 286.5C114.799 286.3 115.199 286.133 115.599 286L116.199 283H120.199L120.799 286C121.199 286.133 121.599 286.3 121.999 286.5C122.399 286.7 122.733 286.933 122.999 287.2L125.799 286.2L127.799 289.8L125.599 291.8V294.2L127.799 296.2L125.799 299.8L122.999 298.8C122.666 299.133 122.316 299.383 121.949 299.55C121.583 299.717 121.199 299.867 120.799 300L120.199 303H116.199ZM118.199 296C118.999 296 119.699 295.7 120.299 295.1C120.899 294.5 121.199 293.8 121.199 293C121.199 292.2 120.899 291.5 120.299 290.9C119.699 290.3 118.999 290 118.199 290C117.399 290 116.699 290.3 116.099 290.9C115.499 291.5 115.199 292.2 115.199 293C115.199 293.8 115.499 294.5 116.099 295.1C116.699 295.7 117.399 296 118.199 296ZM125.399 283L124.599 278.8C123.999 278.6 123.449 278.35 122.949 278.05C122.449 277.75 121.999 277.4 121.599 277L117.399 278.4L114.599 273.6L117.999 270.6C117.866 270.267 117.799 270 117.799 269.8V268.2C117.799 268 117.866 267.733 117.999 267.4L114.599 264.4L117.399 259.6L121.599 261C121.999 260.6 122.449 260.25 122.949 259.95C123.449 259.65 123.999 259.4 124.599 259.2L125.399 255H130.999L131.799 259.2C132.399 259.4 132.949 259.65 133.449 259.95C133.949 260.25 134.399 260.6 134.799 261L138.999 259.6L141.799 264.4L138.399 267.4C138.533 267.733 138.599 268 138.599 268.2V269.8C138.599 270 138.533 270.267 138.399 270.6L141.799 273.6L138.999 278.4L134.799 277C134.399 277.4 133.949 277.75 133.449 278.05C132.949 278.35 132.399 278.6 131.799 278.8L130.999 283H125.399ZM128.199 274C129.599 274 130.783 273.517 131.749 272.55C132.716 271.583 133.199 270.4 133.199 269C133.199 267.6 132.716 266.417 131.749 265.45C130.783 264.483 129.599 264 128.199 264C126.799 264 125.616 264.483 124.649 265.45C123.683 266.417 123.199 267.6 123.199 269C123.199 270.4 123.683 271.583 124.649 272.55C125.616 273.517 126.799 274 128.199 274Z" fill="#107869"/>
</g>
<rect width="330" height="195" transform="translate(330 194)" fill="#107869"/>
<mask id="mask3_130_573" style="mask-type:alpha" maskUnits="userSpaceOnUse" x="514" y="243" width="96" height="96">
<rect x="514" y="243" width="96" height="96" fill="#D9D9D9"/>
</mask>
<g mask="url(#mask3_130_573)">
<path d="M518 311V295H550.8L526 275.4V287H518V263H522L566 287.2V259H586L606 283V311H596C596 314.333 594.833 317.167 592.5 319.5C590.167 321.833 587.333 323 584 323C580.667 323 577.833 321.833 575.5 319.5C573.167 317.167 572 314.333 572 311H550C550 314.333 548.833 317.167 546.5 319.5C544.167 321.833 541.333 323 538 323C534.667 323 531.833 321.833 529.5 319.5C527.167 317.167 526 314.333 526 311H518ZM538 317C539.733 317 541.167 316.433 542.3 315.3C543.433 314.167 544 312.733 544 311C544 309.267 543.433 307.833 542.3 306.7C541.167 305.567 539.733 305 538 305C536.267 305 534.833 305.567 533.7 306.7C532.567 307.833 532 309.267 532 311C532 312.733 532.567 314.167 533.7 315.3C534.833 316.433 536.267 317 538 317ZM584 317C585.733 317 587.167 316.433 588.3 315.3C589.433 314.167 590 312.733 590 311C590 309.267 589.433 307.833 588.3 306.7C587.167 305.567 585.733 305 584 305C582.267 305 580.833 305.567 579.7 306.7C578.567 307.833 578 309.267 578 311C578 312.733 578.567 314.167 579.7 315.3C580.833 316.433 582.267 317 584 317ZM574 283H595.6L582.2 267H574V283Z" fill="#5AFF91"/>
</g>
<rect x="158" y="61" width="345" height="706" rx="32" fill="white"/>
<path d="M158 77C158 68.1634 165.163 61 174 61H487C495.837 61 503 68.1634 503 77V212H158V77Z" fill="#262628"/>
<rect x="174" y="100" width="313" height="96" rx="10" fill="#EFFFF3"/>
<g opacity="0.4">
<mask id="mask4_130_573" style="mask-type:alpha" maskUnits="userSpaceOnUse" x="384" y="100" width="96" height="96">
<rect x="384" y="100" width="96" height="96" fill="#D9D9D9"/>
</mask>
<g mask="url(#mask4_130_573)">
<path d="M441 185.6C439.467 187.133 437.567 187.9 435.3 187.9C433.033 187.9 431.133 187.133 429.6 185.6L394.4 150.4C393.667 149.667 393.084 148.8 392.652 147.8C392.217 146.8 392 145.733 392 144.6V116C392 113.8 392.784 111.916 394.352 110.348C395.917 108.783 397.8 108 400 108H428.6C429.733 108 430.8 108.216 431.8 108.648C432.8 109.083 433.667 109.667 434.4 110.4L469.6 145.7C471.133 147.233 471.9 149.116 471.9 151.348C471.9 153.583 471.133 155.467 469.6 157L441 185.6ZM435.3 180L463.9 151.4L428.6 116H400V144.6L435.3 180ZM410 132C411.667 132 413.083 131.416 414.248 130.248C415.416 129.083 416 127.667 416 126C416 124.333 415.416 122.917 414.248 121.752C413.083 120.584 411.667 120 410 120C408.333 120 406.917 120.584 405.752 121.752C404.584 122.917 404 124.333 404 126C404 127.667 404.584 129.083 405.752 130.248C406.917 131.416 408.333 132 410 132Z" fill="#CBE5D7"/>
</g>
</g>
<path d="M187.264 131V116.455H193.003C194.106 116.455 195.046 116.665 195.822 117.087C196.599 117.503 197.191 118.083 197.598 118.827C198.01 119.565 198.216 120.418 198.216 121.384C198.216 122.349 198.008 123.202 197.591 123.94C197.174 124.679 196.571 125.254 195.78 125.666C194.994 126.078 194.042 126.284 192.925 126.284H189.267V123.82H192.428C193.019 123.82 193.507 123.718 193.891 123.514C194.279 123.306 194.568 123.019 194.757 122.655C194.951 122.286 195.048 121.862 195.048 121.384C195.048 120.901 194.951 120.479 194.757 120.119C194.568 119.755 194.279 119.473 193.891 119.274C193.502 119.071 193.01 118.969 192.413 118.969H190.339V131H187.264ZM203.182 116.455V131H200.157V116.455H203.182ZM208.717 131.206C208.021 131.206 207.4 131.085 206.856 130.844C206.311 130.598 205.88 130.235 205.563 129.757C205.251 129.274 205.094 128.673 205.094 127.953C205.094 127.347 205.206 126.838 205.428 126.426C205.651 126.014 205.954 125.683 206.337 125.432C206.721 125.181 207.156 124.991 207.644 124.864C208.137 124.736 208.653 124.646 209.192 124.594C209.827 124.527 210.338 124.466 210.727 124.409C211.115 124.348 211.397 124.258 211.572 124.139C211.747 124.021 211.835 123.846 211.835 123.614V123.571C211.835 123.121 211.692 122.773 211.408 122.527C211.129 122.281 210.731 122.158 210.215 122.158C209.671 122.158 209.237 122.278 208.915 122.52C208.594 122.757 208.38 123.055 208.276 123.415L205.478 123.188C205.62 122.525 205.899 121.952 206.316 121.469C206.733 120.981 207.27 120.607 207.928 120.347C208.591 120.081 209.358 119.949 210.229 119.949C210.835 119.949 211.415 120.02 211.969 120.162C212.528 120.304 213.023 120.524 213.454 120.822C213.889 121.121 214.233 121.504 214.484 121.973C214.735 122.437 214.86 122.993 214.86 123.642V131H211.991V129.487H211.906C211.73 129.828 211.496 130.129 211.202 130.389C210.909 130.645 210.556 130.846 210.144 130.993C209.732 131.135 209.256 131.206 208.717 131.206ZM209.583 129.118C210.028 129.118 210.421 129.03 210.762 128.855C211.103 128.675 211.371 128.434 211.565 128.131C211.759 127.828 211.856 127.484 211.856 127.101V125.943C211.761 126.005 211.631 126.062 211.465 126.114C211.304 126.161 211.122 126.206 210.918 126.249C210.715 126.286 210.511 126.322 210.308 126.355C210.104 126.384 209.919 126.41 209.754 126.433C209.398 126.485 209.088 126.568 208.823 126.682C208.558 126.795 208.352 126.949 208.205 127.143C208.058 127.333 207.985 127.57 207.985 127.854C207.985 128.266 208.134 128.58 208.433 128.798C208.736 129.011 209.119 129.118 209.583 129.118ZM222.136 131.213C221.019 131.213 220.058 130.976 219.253 130.503C218.453 130.025 217.837 129.362 217.406 128.514C216.98 127.667 216.767 126.691 216.767 125.588C216.767 124.471 216.982 123.491 217.413 122.648C217.849 121.8 218.467 121.14 219.267 120.666C220.067 120.188 221.019 119.949 222.122 119.949C223.074 119.949 223.907 120.122 224.622 120.467C225.337 120.813 225.903 121.298 226.32 121.923C226.736 122.548 226.966 123.282 227.009 124.125H224.153C224.073 123.58 223.86 123.143 223.514 122.811C223.173 122.475 222.726 122.307 222.172 122.307C221.703 122.307 221.294 122.435 220.943 122.69C220.598 122.941 220.328 123.308 220.134 123.791C219.939 124.274 219.842 124.859 219.842 125.545C219.842 126.241 219.937 126.833 220.126 127.321C220.321 127.809 220.593 128.18 220.943 128.436C221.294 128.692 221.703 128.82 222.172 128.82C222.518 128.82 222.828 128.749 223.102 128.607C223.382 128.464 223.611 128.259 223.791 127.989C223.976 127.714 224.097 127.385 224.153 127.001H227.009C226.961 127.835 226.734 128.569 226.327 129.203C225.924 129.833 225.368 130.325 224.658 130.68C223.947 131.036 223.107 131.213 222.136 131.213ZM233.917 131.213C232.795 131.213 231.829 130.986 231.02 130.531C230.215 130.072 229.594 129.423 229.159 128.585C228.723 127.742 228.505 126.746 228.505 125.595C228.505 124.473 228.723 123.488 229.159 122.641C229.594 121.793 230.208 121.133 230.998 120.659C231.794 120.186 232.726 119.949 233.797 119.949C234.516 119.949 235.186 120.065 235.806 120.297C236.431 120.524 236.976 120.867 237.44 121.327C237.909 121.786 238.273 122.364 238.534 123.06C238.794 123.751 238.924 124.561 238.924 125.489V126.32H229.713V124.445H236.076C236.076 124.009 235.982 123.623 235.792 123.287C235.603 122.951 235.34 122.688 235.004 122.499C234.672 122.304 234.287 122.207 233.846 122.207C233.387 122.207 232.98 122.314 232.625 122.527C232.274 122.735 232 123.017 231.801 123.372C231.602 123.723 231.5 124.113 231.495 124.544V126.327C231.495 126.866 231.595 127.333 231.794 127.726C231.997 128.119 232.284 128.422 232.653 128.635C233.022 128.848 233.46 128.955 233.967 128.955C234.303 128.955 234.611 128.907 234.89 128.812C235.17 128.718 235.409 128.576 235.608 128.386C235.806 128.197 235.958 127.965 236.062 127.69L238.86 127.875C238.718 128.547 238.427 129.134 237.987 129.636C237.551 130.134 236.988 130.522 236.297 130.801C235.61 131.076 234.817 131.213 233.917 131.213ZM258.951 123.727C258.951 125.313 258.65 126.663 258.049 127.776C257.452 128.888 256.638 129.738 255.606 130.325C254.578 130.908 253.423 131.199 252.14 131.199C250.847 131.199 249.687 130.905 248.66 130.318C247.632 129.731 246.82 128.881 246.224 127.768C245.627 126.656 245.329 125.309 245.329 123.727C245.329 122.141 245.627 120.792 246.224 119.679C246.82 118.566 247.632 117.719 248.66 117.136C249.687 116.549 250.847 116.256 252.14 116.256C253.423 116.256 254.578 116.549 255.606 117.136C256.638 117.719 257.452 118.566 258.049 119.679C258.65 120.792 258.951 122.141 258.951 123.727ZM255.833 123.727C255.833 122.7 255.679 121.833 255.371 121.128C255.068 120.422 254.64 119.887 254.086 119.523C253.532 119.158 252.883 118.976 252.14 118.976C251.397 118.976 250.748 119.158 250.194 119.523C249.64 119.887 249.209 120.422 248.901 121.128C248.598 121.833 248.447 122.7 248.447 123.727C248.447 124.755 248.598 125.621 248.901 126.327C249.209 127.032 249.64 127.567 250.194 127.932C250.748 128.296 251.397 128.479 252.14 128.479C252.883 128.479 253.532 128.296 254.086 127.932C254.64 127.567 255.068 127.032 255.371 126.327C255.679 125.621 255.833 124.755 255.833 123.727ZM261.172 131V120.091H264.105V121.994H264.219C264.418 121.317 264.752 120.806 265.221 120.46C265.689 120.11 266.229 119.935 266.84 119.935C266.991 119.935 267.155 119.944 267.33 119.963C267.505 119.982 267.659 120.008 267.792 120.041V122.726C267.65 122.683 267.453 122.645 267.202 122.612C266.951 122.579 266.721 122.562 266.513 122.562C266.068 122.562 265.67 122.66 265.32 122.854C264.974 123.043 264.7 123.308 264.496 123.649C264.297 123.99 264.198 124.383 264.198 124.828V131H261.172ZM272.868 131.178C272.039 131.178 271.289 130.964 270.616 130.538C269.949 130.107 269.419 129.475 269.026 128.642C268.637 127.804 268.443 126.777 268.443 125.56C268.443 124.31 268.644 123.27 269.047 122.442C269.449 121.608 269.984 120.986 270.652 120.574C271.324 120.157 272.061 119.949 272.861 119.949C273.472 119.949 273.981 120.053 274.388 120.261C274.8 120.465 275.131 120.721 275.382 121.028C275.638 121.331 275.832 121.63 275.964 121.923H276.057V116.455H279.075V131H276.092V129.253H275.964C275.822 129.556 275.621 129.857 275.361 130.155C275.105 130.448 274.771 130.692 274.359 130.886C273.952 131.08 273.455 131.178 272.868 131.178ZM273.827 128.77C274.314 128.77 274.726 128.637 275.062 128.372C275.403 128.102 275.664 127.726 275.844 127.243C276.028 126.76 276.121 126.194 276.121 125.545C276.121 124.897 276.031 124.333 275.851 123.855C275.671 123.377 275.411 123.008 275.07 122.747C274.729 122.487 274.314 122.357 273.827 122.357C273.33 122.357 272.911 122.491 272.57 122.761C272.229 123.031 271.971 123.405 271.795 123.884C271.62 124.362 271.533 124.916 271.533 125.545C271.533 126.18 271.62 126.741 271.795 127.229C271.975 127.712 272.233 128.09 272.57 128.365C272.911 128.635 273.33 128.77 273.827 128.77ZM286.534 131.213C285.412 131.213 284.446 130.986 283.637 130.531C282.832 130.072 282.212 129.423 281.776 128.585C281.34 127.742 281.123 126.746 281.123 125.595C281.123 124.473 281.34 123.488 281.776 122.641C282.212 121.793 282.825 121.133 283.615 120.659C284.411 120.186 285.344 119.949 286.414 119.949C287.133 119.949 287.803 120.065 288.424 120.297C289.049 120.524 289.593 120.867 290.057 121.327C290.526 121.786 290.891 122.364 291.151 123.06C291.411 123.751 291.542 124.561 291.542 125.489V126.32H282.33V124.445H288.694C288.694 124.009 288.599 123.623 288.409 123.287C288.22 122.951 287.957 122.688 287.621 122.499C287.29 122.304 286.904 122.207 286.463 122.207C286.004 122.207 285.597 122.314 285.242 122.527C284.891 122.735 284.617 123.017 284.418 123.372C284.219 123.723 284.117 124.113 284.113 124.544V126.327C284.113 126.866 284.212 127.333 284.411 127.726C284.614 128.119 284.901 128.422 285.27 128.635C285.64 128.848 286.078 128.955 286.584 128.955C286.92 128.955 287.228 128.907 287.507 128.812C287.787 128.718 288.026 128.576 288.225 128.386C288.424 128.197 288.575 127.965 288.679 127.69L291.478 127.875C291.336 128.547 291.044 129.134 290.604 129.636C290.168 130.134 289.605 130.522 288.914 130.801C288.227 131.076 287.434 131.213 286.534 131.213ZM293.516 131V120.091H296.449V121.994H296.563C296.762 121.317 297.096 120.806 297.564 120.46C298.033 120.11 298.573 119.935 299.184 119.935C299.335 119.935 299.498 119.944 299.674 119.963C299.849 119.982 300.003 120.008 300.135 120.041V122.726C299.993 122.683 299.797 122.645 299.546 122.612C299.295 122.579 299.065 122.562 298.857 122.562C298.412 122.562 298.014 122.66 297.664 122.854C297.318 123.043 297.043 123.308 296.84 123.649C296.641 123.99 296.542 124.383 296.542 124.828V131H293.516Z" fill="#00A54F"/>
<rect x="451" y="160" width="24" height="24" rx="12" transform="rotate(-90 451 160)" fill="#00A54F"/>
<mask id="mask5_130_573" style="mask-type:alpha" maskUnits="userSpaceOnUse" x="451" y="136" width="24" height="24">
<rect x="451" y="160" width="24" height="24" transform="rotate(-90 451 160)" fill="#D9D9D9"/>
</mask>
<g mask="url(#mask5_130_573)">
<path d="M466.375 148L460.375 154L458.975 152.6L463.575 148L458.975 143.4L460.375 142L466.375 148Z" fill="white"/>
</g>
<rect x="186" y="148" width="118" height="12" rx="6" fill="#D9D9D9"/>
<rect x="186" y="168" width="87" height="12" rx="6" fill="#D9D9D9"/>
<path d="M177.017 243H174.381L178.398 231.364H181.568L185.58 243H182.943L180.028 234.023H179.938L177.017 243ZM176.852 238.426H183.08V240.347H176.852V238.426ZM190.472 243.17C189.578 243.17 188.809 242.981 188.165 242.602C187.525 242.22 187.032 241.689 186.688 241.011C186.347 240.333 186.176 239.553 186.176 238.67C186.176 237.777 186.348 236.992 186.693 236.318C187.042 235.64 187.536 235.112 188.176 234.733C188.816 234.35 189.578 234.159 190.46 234.159C191.222 234.159 191.888 234.297 192.46 234.574C193.032 234.85 193.485 235.239 193.818 235.739C194.152 236.239 194.335 236.826 194.369 237.5H192.085C192.021 237.064 191.85 236.714 191.574 236.449C191.301 236.18 190.943 236.045 190.5 236.045C190.125 236.045 189.797 236.148 189.517 236.352C189.241 236.553 189.025 236.847 188.869 237.233C188.714 237.619 188.636 238.087 188.636 238.636C188.636 239.193 188.712 239.667 188.864 240.057C189.019 240.447 189.237 240.744 189.517 240.949C189.797 241.153 190.125 241.256 190.5 241.256C190.777 241.256 191.025 241.199 191.244 241.085C191.468 240.972 191.652 240.807 191.795 240.591C191.943 240.371 192.04 240.108 192.085 239.801H194.369C194.331 240.468 194.15 241.055 193.824 241.562C193.502 242.066 193.057 242.46 192.489 242.744C191.92 243.028 191.248 243.17 190.472 243.17ZM200.561 234.273V236.091H195.305V234.273H200.561ZM196.499 232.182H198.919V240.318C198.919 240.542 198.953 240.716 199.021 240.841C199.089 240.962 199.184 241.047 199.305 241.097C199.43 241.146 199.574 241.17 199.737 241.17C199.851 241.17 199.964 241.161 200.078 241.142C200.192 241.119 200.279 241.102 200.339 241.091L200.72 242.892C200.599 242.93 200.429 242.973 200.209 243.023C199.989 243.076 199.722 243.108 199.408 243.119C198.824 243.142 198.313 243.064 197.874 242.886C197.438 242.708 197.099 242.432 196.857 242.057C196.614 241.682 196.495 241.208 196.499 240.636V232.182ZM202.138 243V234.273H204.558V243H202.138ZM203.354 233.148C202.994 233.148 202.685 233.028 202.428 232.79C202.174 232.547 202.047 232.258 202.047 231.92C202.047 231.587 202.174 231.301 202.428 231.062C202.685 230.82 202.994 230.699 203.354 230.699C203.714 230.699 204.02 230.82 204.274 231.062C204.532 231.301 204.661 231.587 204.661 231.92C204.661 232.258 204.532 232.547 204.274 232.79C204.02 233.028 203.714 233.148 203.354 233.148ZM214.634 234.273L211.582 243H208.855L205.804 234.273H208.361L210.173 240.517H210.264L212.071 234.273H214.634ZM219.568 243.17C218.67 243.17 217.898 242.989 217.25 242.625C216.606 242.258 216.11 241.739 215.761 241.068C215.413 240.394 215.239 239.597 215.239 238.676C215.239 237.778 215.413 236.991 215.761 236.312C216.11 235.634 216.6 235.106 217.233 234.727C217.869 234.348 218.616 234.159 219.472 234.159C220.047 234.159 220.583 234.252 221.08 234.438C221.58 234.619 222.015 234.894 222.386 235.261C222.761 235.629 223.053 236.091 223.261 236.648C223.47 237.201 223.574 237.848 223.574 238.591V239.256H216.205V237.756H221.295C221.295 237.407 221.22 237.098 221.068 236.83C220.917 236.561 220.706 236.35 220.438 236.199C220.172 236.044 219.864 235.966 219.511 235.966C219.144 235.966 218.818 236.051 218.534 236.222C218.254 236.388 218.034 236.614 217.875 236.898C217.716 237.178 217.634 237.491 217.631 237.835V239.261C217.631 239.693 217.71 240.066 217.869 240.381C218.032 240.695 218.261 240.938 218.557 241.108C218.852 241.278 219.203 241.364 219.608 241.364C219.877 241.364 220.123 241.326 220.347 241.25C220.57 241.174 220.761 241.061 220.92 240.909C221.08 240.758 221.201 240.572 221.284 240.352L223.523 240.5C223.409 241.038 223.176 241.508 222.824 241.909C222.475 242.307 222.025 242.617 221.472 242.841C220.922 243.061 220.288 243.17 219.568 243.17ZM239.595 237.182C239.595 238.451 239.355 239.53 238.874 240.42C238.396 241.311 237.745 241.991 236.919 242.46C236.097 242.926 235.173 243.159 234.146 243.159C233.112 243.159 232.184 242.924 231.362 242.455C230.54 241.985 229.891 241.305 229.413 240.415C228.936 239.525 228.697 238.447 228.697 237.182C228.697 235.913 228.936 234.833 229.413 233.943C229.891 233.053 230.54 232.375 231.362 231.909C232.184 231.439 233.112 231.205 234.146 231.205C235.173 231.205 236.097 231.439 236.919 231.909C237.745 232.375 238.396 233.053 238.874 233.943C239.355 234.833 239.595 235.913 239.595 237.182ZM237.101 237.182C237.101 236.36 236.978 235.667 236.732 235.102C236.489 234.538 236.146 234.11 235.703 233.818C235.26 233.527 234.741 233.381 234.146 233.381C233.552 233.381 233.033 233.527 232.589 233.818C232.146 234.11 231.802 234.538 231.555 235.102C231.313 235.667 231.192 236.36 231.192 237.182C231.192 238.004 231.313 238.697 231.555 239.261C231.802 239.826 232.146 240.254 232.589 240.545C233.033 240.837 233.552 240.983 234.146 240.983C234.741 240.983 235.26 240.837 235.703 240.545C236.146 240.254 236.489 239.826 236.732 239.261C236.978 238.697 237.101 238.004 237.101 237.182ZM241.372 243V234.273H243.719V235.795H243.81C243.969 235.254 244.236 234.845 244.611 234.568C244.986 234.288 245.418 234.148 245.906 234.148C246.027 234.148 246.158 234.155 246.298 234.17C246.438 234.186 246.562 234.206 246.668 234.233V236.381C246.554 236.347 246.397 236.316 246.196 236.29C245.995 236.263 245.812 236.25 245.645 236.25C245.289 236.25 244.971 236.328 244.69 236.483C244.414 236.634 244.194 236.847 244.031 237.119C243.872 237.392 243.793 237.706 243.793 238.062V243H241.372ZM250.729 243.142C250.066 243.142 249.465 242.972 248.928 242.631C248.393 242.286 247.969 241.78 247.655 241.114C247.344 240.443 247.189 239.621 247.189 238.648C247.189 237.648 247.35 236.816 247.672 236.153C247.994 235.487 248.422 234.989 248.956 234.659C249.494 234.326 250.083 234.159 250.723 234.159C251.212 234.159 251.619 234.242 251.945 234.409C252.274 234.572 252.539 234.777 252.74 235.023C252.945 235.265 253.1 235.504 253.206 235.739H253.28V231.364H255.695V243H253.308V241.602H253.206C253.092 241.845 252.931 242.085 252.723 242.324C252.518 242.559 252.251 242.754 251.922 242.909C251.596 243.064 251.198 243.142 250.729 243.142ZM251.496 241.216C251.886 241.216 252.215 241.11 252.484 240.898C252.757 240.682 252.965 240.381 253.109 239.994C253.257 239.608 253.331 239.155 253.331 238.636C253.331 238.117 253.259 237.667 253.115 237.284C252.971 236.902 252.763 236.606 252.49 236.398C252.217 236.189 251.886 236.085 251.496 236.085C251.098 236.085 250.763 236.193 250.49 236.409C250.217 236.625 250.011 236.924 249.871 237.307C249.731 237.689 249.661 238.133 249.661 238.636C249.661 239.144 249.731 239.593 249.871 239.983C250.015 240.369 250.221 240.672 250.49 240.892C250.763 241.108 251.098 241.216 251.496 241.216ZM261.662 243.17C260.764 243.17 259.991 242.989 259.344 242.625C258.7 242.258 258.204 241.739 257.855 241.068C257.507 240.394 257.332 239.597 257.332 238.676C257.332 237.778 257.507 236.991 257.855 236.312C258.204 235.634 258.694 235.106 259.327 234.727C259.963 234.348 260.709 234.159 261.565 234.159C262.141 234.159 262.677 234.252 263.173 234.438C263.673 234.619 264.109 234.894 264.48 235.261C264.855 235.629 265.147 236.091 265.355 236.648C265.563 237.201 265.668 237.848 265.668 238.591V239.256H258.298V237.756H263.389C263.389 237.407 263.313 237.098 263.162 236.83C263.01 236.561 262.8 236.35 262.531 236.199C262.266 236.044 261.957 235.966 261.605 235.966C261.238 235.966 260.912 236.051 260.628 236.222C260.348 236.388 260.128 236.614 259.969 236.898C259.81 237.178 259.728 237.491 259.724 237.835V239.261C259.724 239.693 259.804 240.066 259.963 240.381C260.126 240.695 260.355 240.938 260.651 241.108C260.946 241.278 261.296 241.364 261.702 241.364C261.971 241.364 262.217 241.326 262.44 241.25C262.664 241.174 262.855 241.061 263.014 240.909C263.173 240.758 263.295 240.572 263.378 240.352L265.616 240.5C265.503 241.038 265.27 241.508 264.918 241.909C264.569 242.307 264.118 242.617 263.565 242.841C263.016 243.061 262.382 243.17 261.662 243.17ZM267.247 243V234.273H269.594V235.795H269.685C269.844 235.254 270.111 234.845 270.486 234.568C270.861 234.288 271.293 234.148 271.781 234.148C271.902 234.148 272.033 234.155 272.173 234.17C272.313 234.186 272.437 234.206 272.543 234.233V236.381C272.429 236.347 272.272 236.316 272.071 236.29C271.87 236.263 271.687 236.25 271.52 236.25C271.164 236.25 270.846 236.328 270.565 236.483C270.289 236.634 270.069 236.847 269.906 237.119C269.747 237.392 269.668 237.706 269.668 238.062V243H267.247ZM281.055 236.761L278.839 236.898C278.802 236.708 278.72 236.538 278.595 236.386C278.47 236.231 278.305 236.108 278.101 236.017C277.9 235.922 277.66 235.875 277.379 235.875C277.004 235.875 276.688 235.955 276.43 236.114C276.173 236.269 276.044 236.477 276.044 236.739C276.044 236.947 276.127 237.123 276.294 237.267C276.461 237.411 276.747 237.527 277.152 237.614L278.732 237.932C279.58 238.106 280.213 238.386 280.629 238.773C281.046 239.159 281.254 239.667 281.254 240.295C281.254 240.867 281.086 241.369 280.749 241.801C280.415 242.233 279.957 242.57 279.374 242.812C278.794 243.051 278.125 243.17 277.368 243.17C276.213 243.17 275.292 242.93 274.607 242.449C273.925 241.964 273.525 241.305 273.408 240.472L275.788 240.347C275.86 240.699 276.035 240.968 276.311 241.153C276.588 241.335 276.942 241.426 277.374 241.426C277.798 241.426 278.139 241.345 278.396 241.182C278.658 241.015 278.79 240.801 278.794 240.54C278.79 240.32 278.697 240.14 278.516 240C278.334 239.856 278.054 239.746 277.675 239.67L276.163 239.369C275.311 239.199 274.677 238.903 274.26 238.483C273.847 238.062 273.641 237.527 273.641 236.875C273.641 236.314 273.792 235.831 274.095 235.426C274.402 235.021 274.832 234.708 275.385 234.489C275.942 234.269 276.593 234.159 277.339 234.159C278.442 234.159 279.309 234.392 279.942 234.858C280.578 235.324 280.949 235.958 281.055 236.761Z" fill="black"/>
<path d="M170 268C170 265.239 172.239 263 175 263H485C487.761 263 490 265.239 490 268V329H170V268Z" fill="#EFFFF3"/>
<path d="M193.705 284.182C193.705 285.451 193.464 286.53 192.983 287.42C192.506 288.311 191.854 288.991 191.028 289.46C190.206 289.926 189.282 290.159 188.256 290.159C187.222 290.159 186.294 289.924 185.472 289.455C184.65 288.985 184 288.305 183.523 287.415C183.045 286.525 182.807 285.447 182.807 284.182C182.807 282.913 183.045 281.833 183.523 280.943C184 280.053 184.65 279.375 185.472 278.909C186.294 278.439 187.222 278.205 188.256 278.205C189.282 278.205 190.206 278.439 191.028 278.909C191.854 279.375 192.506 280.053 192.983 280.943C193.464 281.833 193.705 282.913 193.705 284.182ZM191.21 284.182C191.21 283.36 191.087 282.667 190.841 282.102C190.598 281.538 190.256 281.11 189.812 280.818C189.369 280.527 188.85 280.381 188.256 280.381C187.661 280.381 187.142 280.527 186.699 280.818C186.256 281.11 185.911 281.538 185.665 282.102C185.422 282.667 185.301 283.36 185.301 284.182C185.301 285.004 185.422 285.697 185.665 286.261C185.911 286.826 186.256 287.254 186.699 287.545C187.142 287.837 187.661 287.983 188.256 287.983C188.85 287.983 189.369 287.837 189.812 287.545C190.256 287.254 190.598 286.826 190.841 286.261C191.087 285.697 191.21 285.004 191.21 284.182ZM205.794 282.438H203.305C203.26 282.116 203.167 281.83 203.027 281.58C202.887 281.326 202.707 281.11 202.487 280.932C202.268 280.754 202.014 280.617 201.726 280.523C201.442 280.428 201.133 280.381 200.8 280.381C200.197 280.381 199.673 280.53 199.226 280.83C198.779 281.125 198.432 281.557 198.186 282.125C197.94 282.689 197.817 283.375 197.817 284.182C197.817 285.011 197.94 285.708 198.186 286.273C198.436 286.837 198.785 287.263 199.232 287.551C199.679 287.839 200.196 287.983 200.783 287.983C201.112 287.983 201.417 287.939 201.697 287.852C201.982 287.765 202.233 287.638 202.453 287.472C202.673 287.301 202.855 287.095 202.999 286.852C203.146 286.61 203.249 286.333 203.305 286.023L205.794 286.034C205.73 286.568 205.569 287.083 205.311 287.58C205.057 288.072 204.714 288.513 204.283 288.903C203.855 289.29 203.343 289.597 202.749 289.824C202.158 290.047 201.489 290.159 200.743 290.159C199.705 290.159 198.777 289.924 197.959 289.455C197.144 288.985 196.5 288.305 196.027 287.415C195.557 286.525 195.322 285.447 195.322 284.182C195.322 282.913 195.561 281.833 196.038 280.943C196.516 280.053 197.163 279.375 197.982 278.909C198.8 278.439 199.72 278.205 200.743 278.205C201.417 278.205 202.042 278.299 202.618 278.489C203.197 278.678 203.711 278.955 204.158 279.318C204.605 279.678 204.968 280.119 205.249 280.642C205.533 281.165 205.714 281.763 205.794 282.438ZM207.115 280.392V278.364H216.672V280.392H213.109V290H210.678V280.392H207.115ZM228.408 284.182C228.408 285.451 228.167 286.53 227.686 287.42C227.209 288.311 226.557 288.991 225.732 289.46C224.91 289.926 223.985 290.159 222.959 290.159C221.925 290.159 220.997 289.924 220.175 289.455C219.353 288.985 218.703 288.305 218.226 287.415C217.749 286.525 217.51 285.447 217.51 284.182C217.51 282.913 217.749 281.833 218.226 280.943C218.703 280.053 219.353 279.375 220.175 278.909C220.997 278.439 221.925 278.205 222.959 278.205C223.985 278.205 224.91 278.439 225.732 278.909C226.557 279.375 227.209 280.053 227.686 280.943C228.167 281.833 228.408 282.913 228.408 284.182ZM225.913 284.182C225.913 283.36 225.79 282.667 225.544 282.102C225.302 281.538 224.959 281.11 224.516 280.818C224.072 280.527 223.554 280.381 222.959 280.381C222.364 280.381 221.845 280.527 221.402 280.818C220.959 281.11 220.614 281.538 220.368 282.102C220.125 282.667 220.004 283.36 220.004 284.182C220.004 285.004 220.125 285.697 220.368 286.261C220.614 286.826 220.959 287.254 221.402 287.545C221.845 287.837 222.364 287.983 222.959 287.983C223.554 287.983 224.072 287.837 224.516 287.545C224.959 287.254 225.302 286.826 225.544 286.261C225.79 285.697 225.913 285.004 225.913 284.182ZM230.23 290V278.364H234.889C235.745 278.364 236.459 278.491 237.031 278.744C237.603 278.998 238.033 279.35 238.321 279.801C238.609 280.248 238.753 280.763 238.753 281.347C238.753 281.801 238.662 282.201 238.48 282.545C238.298 282.886 238.048 283.167 237.73 283.386C237.416 283.602 237.056 283.756 236.651 283.847V283.96C237.094 283.979 237.509 284.104 237.895 284.335C238.285 284.566 238.601 284.89 238.844 285.307C239.086 285.72 239.207 286.212 239.207 286.784C239.207 287.402 239.054 287.953 238.747 288.438C238.444 288.919 237.995 289.299 237.401 289.58C236.806 289.86 236.073 290 235.202 290H230.23ZM232.69 287.989H234.696C235.382 287.989 235.882 287.858 236.196 287.597C236.51 287.331 236.668 286.979 236.668 286.54C236.668 286.218 236.59 285.934 236.435 285.688C236.279 285.441 236.058 285.248 235.77 285.108C235.486 284.968 235.147 284.898 234.753 284.898H232.69V287.989ZM232.69 283.233H234.514C234.851 283.233 235.151 283.174 235.412 283.057C235.677 282.936 235.885 282.765 236.037 282.545C236.192 282.326 236.27 282.062 236.27 281.756C236.27 281.335 236.12 280.996 235.821 280.739C235.526 280.481 235.105 280.352 234.56 280.352H232.69V283.233ZM240.808 290V278.364H248.649V280.392H243.268V283.165H248.246V285.193H243.268V287.972H248.672V290H240.808ZM250.605 290V278.364H255.196C256.075 278.364 256.825 278.521 257.446 278.835C258.071 279.146 258.546 279.587 258.872 280.159C259.202 280.727 259.366 281.396 259.366 282.165C259.366 282.937 259.2 283.602 258.866 284.159C258.533 284.712 258.05 285.136 257.418 285.432C256.789 285.727 256.027 285.875 255.134 285.875H252.06V283.898H254.736C255.205 283.898 255.596 283.833 255.906 283.705C256.217 283.576 256.448 283.383 256.599 283.125C256.755 282.867 256.832 282.547 256.832 282.165C256.832 281.778 256.755 281.453 256.599 281.188C256.448 280.922 256.215 280.722 255.901 280.585C255.59 280.445 255.198 280.375 254.724 280.375H253.065V290H250.605ZM256.889 284.705L259.781 290H257.065L254.236 284.705H256.889ZM268.95 278.205C269.549 278.205 270.125 278.305 270.678 278.506C271.234 278.706 271.731 279.027 272.166 279.466C272.606 279.905 272.952 280.489 273.206 281.216C273.464 281.939 273.594 282.828 273.598 283.881C273.598 284.869 273.486 285.752 273.263 286.528C273.043 287.301 272.727 287.958 272.314 288.5C271.901 289.042 271.403 289.455 270.82 289.739C270.236 290.019 269.585 290.159 268.865 290.159C268.089 290.159 267.403 290.009 266.808 289.71C266.214 289.407 265.734 288.996 265.371 288.477C265.011 287.955 264.793 287.367 264.717 286.716H267.143C267.238 287.14 267.437 287.47 267.74 287.705C268.043 287.936 268.418 288.051 268.865 288.051C269.623 288.051 270.198 287.722 270.592 287.062C270.986 286.4 271.185 285.492 271.189 284.341H271.109C270.935 284.682 270.7 284.975 270.405 285.222C270.109 285.464 269.77 285.652 269.388 285.784C269.009 285.917 268.606 285.983 268.178 285.983C267.492 285.983 266.88 285.822 266.342 285.5C265.804 285.178 265.38 284.735 265.07 284.17C264.759 283.606 264.604 282.962 264.604 282.239C264.6 281.458 264.78 280.763 265.143 280.153C265.507 279.544 266.015 279.066 266.666 278.722C267.321 278.373 268.083 278.201 268.95 278.205ZM268.967 280.136C268.585 280.136 268.244 280.227 267.945 280.409C267.649 280.591 267.414 280.835 267.24 281.142C267.07 281.449 266.986 281.792 266.99 282.17C266.99 282.553 267.073 282.898 267.24 283.205C267.411 283.508 267.642 283.75 267.933 283.932C268.229 284.11 268.566 284.199 268.945 284.199C269.229 284.199 269.492 284.146 269.734 284.04C269.977 283.934 270.187 283.788 270.365 283.602C270.547 283.413 270.689 283.195 270.791 282.949C270.893 282.703 270.945 282.441 270.945 282.165C270.941 281.797 270.854 281.46 270.683 281.153C270.513 280.847 270.278 280.6 269.979 280.415C269.679 280.229 269.342 280.136 268.967 280.136ZM277.487 288.409L277.425 289.034C277.375 289.534 277.281 290.032 277.141 290.528C277.004 291.028 276.86 291.481 276.709 291.886C276.561 292.292 276.442 292.61 276.351 292.841H274.783C274.839 292.617 274.917 292.305 275.016 291.903C275.114 291.506 275.207 291.059 275.294 290.562C275.381 290.066 275.436 289.561 275.459 289.045L275.487 288.409H277.487ZM282.834 290V288.227L286.976 284.392C287.328 284.051 287.624 283.744 287.862 283.472C288.105 283.199 288.288 282.932 288.413 282.67C288.538 282.405 288.601 282.119 288.601 281.812C288.601 281.472 288.523 281.178 288.368 280.932C288.213 280.682 288 280.491 287.732 280.358C287.463 280.222 287.158 280.153 286.817 280.153C286.461 280.153 286.15 280.225 285.885 280.369C285.62 280.513 285.415 280.72 285.271 280.989C285.127 281.258 285.055 281.578 285.055 281.949H282.72C282.72 281.187 282.893 280.527 283.237 279.966C283.582 279.405 284.065 278.972 284.686 278.665C285.307 278.358 286.023 278.205 286.834 278.205C287.667 278.205 288.393 278.352 289.01 278.648C289.631 278.939 290.114 279.345 290.459 279.864C290.804 280.383 290.976 280.977 290.976 281.648C290.976 282.087 290.889 282.521 290.714 282.949C290.544 283.377 290.239 283.852 289.8 284.375C289.36 284.894 288.741 285.517 287.942 286.244L286.243 287.909V287.989H291.129V290H282.834ZM297.474 290.256C296.497 290.252 295.656 290.011 294.952 289.534C294.251 289.057 293.711 288.366 293.332 287.46C292.957 286.555 292.772 285.466 292.776 284.193C292.776 282.924 292.963 281.843 293.338 280.949C293.717 280.055 294.257 279.375 294.957 278.909C295.662 278.439 296.501 278.205 297.474 278.205C298.448 278.205 299.285 278.439 299.986 278.909C300.69 279.379 301.232 280.061 301.611 280.955C301.99 281.845 302.177 282.924 302.173 284.193C302.173 285.47 301.984 286.561 301.605 287.466C301.23 288.371 300.692 289.062 299.991 289.54C299.291 290.017 298.452 290.256 297.474 290.256ZM297.474 288.216C298.141 288.216 298.673 287.881 299.071 287.21C299.469 286.54 299.666 285.534 299.662 284.193C299.662 283.311 299.571 282.576 299.389 281.989C299.211 281.402 298.957 280.96 298.628 280.665C298.302 280.369 297.918 280.222 297.474 280.222C296.812 280.222 296.281 280.553 295.884 281.216C295.486 281.879 295.285 282.871 295.281 284.193C295.281 285.087 295.37 285.833 295.548 286.432C295.73 287.027 295.986 287.473 296.315 287.773C296.645 288.068 297.031 288.216 297.474 288.216ZM303.928 290V288.227L308.07 284.392C308.422 284.051 308.717 283.744 308.956 283.472C309.198 283.199 309.382 282.932 309.507 282.67C309.632 282.405 309.695 282.119 309.695 281.812C309.695 281.472 309.617 281.178 309.462 280.932C309.306 280.682 309.094 280.491 308.825 280.358C308.556 280.222 308.251 280.153 307.911 280.153C307.554 280.153 307.244 280.225 306.979 280.369C306.714 280.513 306.509 280.72 306.365 280.989C306.221 281.258 306.149 281.578 306.149 281.949H303.814C303.814 281.187 303.986 280.527 304.331 279.966C304.676 279.405 305.159 278.972 305.78 278.665C306.401 278.358 307.117 278.205 307.928 278.205C308.761 278.205 309.486 278.352 310.104 278.648C310.725 278.939 311.208 279.345 311.553 279.864C311.897 280.383 312.07 280.977 312.07 281.648C312.07 282.087 311.982 282.521 311.808 282.949C311.638 283.377 311.333 283.852 310.893 284.375C310.454 284.894 309.835 285.517 309.036 286.244L307.337 287.909V287.989H312.223V290H303.928ZM314.006 290V288.227L318.148 284.392C318.5 284.051 318.795 283.744 319.034 283.472C319.277 283.199 319.46 282.932 319.585 282.67C319.71 282.405 319.773 282.119 319.773 281.812C319.773 281.472 319.695 281.178 319.54 280.932C319.384 280.682 319.172 280.491 318.903 280.358C318.634 280.222 318.33 280.153 317.989 280.153C317.633 280.153 317.322 280.225 317.057 280.369C316.792 280.513 316.587 280.72 316.443 280.989C316.299 281.258 316.227 281.578 316.227 281.949H313.892C313.892 281.187 314.064 280.527 314.409 279.966C314.754 279.405 315.237 278.972 315.858 278.665C316.479 278.358 317.195 278.205 318.006 278.205C318.839 278.205 319.564 278.352 320.182 278.648C320.803 278.939 321.286 279.345 321.631 279.864C321.975 280.383 322.148 280.977 322.148 281.648C322.148 282.087 322.061 282.521 321.886 282.949C321.716 283.377 321.411 283.852 320.972 284.375C320.532 284.894 319.913 285.517 319.114 286.244L317.415 287.909V287.989H322.301V290H314.006Z" fill="#005313"/>
<mask id="mask6_130_573" style="mask-type:alpha" maskUnits="userSpaceOnUse" x="182" y="301" width="16" height="16">
<rect x="182" y="301" width="16" height="16" fill="#D9D9D9"/>
</mask>
<g mask="url(#mask6_130_573)">
<path d="M187.333 310.333C187.144 310.333 186.986 310.269 186.858 310.141C186.73 310.014 186.667 309.856 186.667 309.667C186.667 309.478 186.73 309.319 186.858 309.191C186.986 309.064 187.144 309 187.333 309C187.522 309 187.681 309.064 187.809 309.191C187.936 309.319 188 309.478 188 309.667C188 309.856 187.936 310.014 187.809 310.141C187.681 310.269 187.522 310.333 187.333 310.333ZM190 310.333C189.811 310.333 189.653 310.269 189.525 310.141C189.397 310.014 189.333 309.856 189.333 309.667C189.333 309.478 189.397 309.319 189.525 309.191C189.653 309.064 189.811 309 190 309C190.189 309 190.347 309.064 190.475 309.191C190.603 309.319 190.667 309.478 190.667 309.667C190.667 309.856 190.603 310.014 190.475 310.141C190.347 310.269 190.189 310.333 190 310.333ZM192.667 310.333C192.478 310.333 192.32 310.269 192.192 310.141C192.064 310.014 192 309.856 192 309.667C192 309.478 192.064 309.319 192.192 309.191C192.32 309.064 192.478 309 192.667 309C192.856 309 193.014 309.064 193.141 309.191C193.269 309.319 193.333 309.478 193.333 309.667C193.333 309.856 193.269 310.014 193.141 310.141C193.014 310.269 192.856 310.333 192.667 310.333ZM185.333 315.667C184.967 315.667 184.653 315.536 184.391 315.275C184.13 315.014 184 314.7 184 314.333V305C184 304.633 184.13 304.32 184.391 304.059C184.653 303.797 184.967 303.667 185.333 303.667H186V302.333H187.333V303.667H192.667V302.333H194V303.667H194.667C195.033 303.667 195.347 303.797 195.609 304.059C195.87 304.32 196 304.633 196 305V314.333C196 314.7 195.87 315.014 195.609 315.275C195.347 315.536 195.033 315.667 194.667 315.667H185.333ZM185.333 314.333H194.667V307.667H185.333V314.333ZM185.333 306.333H194.667V305H185.333V306.333Z" fill="#00A54F"/>
</g>
<rect x="200" y="304" width="45" height="10" rx="5" fill="#C5DFCB"/>
<mask id="mask7_130_573" style="mask-type:alpha" maskUnits="userSpaceOnUse" x="257" y="301" width="16" height="16">
<rect x="257" y="301" width="16" height="16" fill="#D9D9D9"/>
</mask>
<g mask="url(#mask7_130_573)">
<path d="M267.2 312.133L268.133 311.2L265.666 308.733V305.667H264.333V309.267L267.2 312.133ZM265 315.667C264.077 315.667 263.211 315.492 262.4 315.141C261.589 314.792 260.883 314.317 260.283 313.717C259.683 313.117 259.208 312.411 258.858 311.6C258.508 310.789 258.333 309.922 258.333 309C258.333 308.078 258.508 307.211 258.858 306.4C259.208 305.589 259.683 304.883 260.283 304.283C260.883 303.683 261.589 303.208 262.4 302.858C263.211 302.508 264.077 302.333 265 302.333C265.922 302.333 266.789 302.508 267.6 302.858C268.411 303.208 269.116 303.683 269.716 304.283C270.316 304.883 270.791 305.589 271.141 306.4C271.491 307.211 271.666 308.078 271.666 309C271.666 309.922 271.491 310.789 271.141 311.6C270.791 312.411 270.316 313.117 269.716 313.717C269.116 314.317 268.411 314.792 267.6 315.141C266.789 315.492 265.922 315.667 265 315.667ZM265 314.333C266.477 314.333 267.736 313.814 268.775 312.775C269.814 311.736 270.333 310.478 270.333 309C270.333 307.522 269.814 306.264 268.775 305.225C267.736 304.186 266.477 303.667 265 303.667C263.522 303.667 262.264 304.186 261.225 305.225C260.186 306.264 259.666 307.522 259.666 309C259.666 310.478 260.186 311.736 261.225 312.775C262.264 313.814 263.522 314.333 265 314.333Z" fill="#00A54F"/>
</g>
<rect x="277" y="304" width="45" height="10" rx="5" fill="#C5DFCB"/>
<circle cx="412" cy="296" r="2" fill="#00A54F"/>
<path d="M426.373 294.5H425.316C425.253 294.196 425.144 293.929 424.988 293.699C424.834 293.469 424.647 293.276 424.425 293.119C424.206 292.96 423.963 292.841 423.696 292.761C423.429 292.682 423.151 292.642 422.861 292.642C422.333 292.642 421.854 292.776 421.425 293.043C420.999 293.31 420.659 293.703 420.407 294.223C420.157 294.743 420.032 295.381 420.032 296.136C420.032 296.892 420.157 297.53 420.407 298.05C420.659 298.57 420.999 298.963 421.425 299.23C421.854 299.497 422.333 299.631 422.861 299.631C423.151 299.631 423.429 299.591 423.696 299.511C423.963 299.432 424.206 299.314 424.425 299.158C424.647 298.999 424.834 298.804 424.988 298.574C425.144 298.341 425.253 298.074 425.316 297.773H426.373C426.293 298.219 426.148 298.618 425.938 298.97C425.728 299.322 425.466 299.622 425.154 299.869C424.841 300.114 424.49 300.3 424.101 300.428C423.715 300.555 423.301 300.619 422.861 300.619C422.117 300.619 421.455 300.438 420.875 300.074C420.296 299.71 419.84 299.193 419.507 298.523C419.175 297.852 419.009 297.057 419.009 296.136C419.009 295.216 419.175 294.42 419.507 293.75C419.84 293.08 420.296 292.562 420.875 292.199C421.455 291.835 422.117 291.653 422.861 291.653C423.301 291.653 423.715 291.717 424.101 291.845C424.49 291.973 424.841 292.161 425.154 292.408C425.466 292.652 425.728 292.95 425.938 293.303C426.148 293.652 426.293 294.051 426.373 294.5ZM430.603 300.636C430.012 300.636 429.494 300.496 429.048 300.214C428.604 299.933 428.258 299.54 428.008 299.034C427.761 298.528 427.637 297.937 427.637 297.261C427.637 296.58 427.761 295.984 428.008 295.476C428.258 294.967 428.604 294.572 429.048 294.291C429.494 294.01 430.012 293.869 430.603 293.869C431.194 293.869 431.711 294.01 432.154 294.291C432.6 294.572 432.947 294.967 433.194 295.476C433.444 295.984 433.569 296.58 433.569 297.261C433.569 297.937 433.444 298.528 433.194 299.034C432.947 299.54 432.6 299.933 432.154 300.214C431.711 300.496 431.194 300.636 430.603 300.636ZM430.603 299.733C431.052 299.733 431.421 299.618 431.711 299.388C432.001 299.158 432.215 298.855 432.354 298.48C432.494 298.105 432.563 297.699 432.563 297.261C432.563 296.824 432.494 296.416 432.354 296.038C432.215 295.661 432.001 295.355 431.711 295.122C431.421 294.889 431.052 294.773 430.603 294.773C430.154 294.773 429.785 294.889 429.495 295.122C429.205 295.355 428.991 295.661 428.852 296.038C428.712 296.416 428.643 296.824 428.643 297.261C428.643 297.699 428.712 298.105 428.852 298.48C428.991 298.855 429.205 299.158 429.495 299.388C429.785 299.618 430.154 299.733 430.603 299.733ZM436.11 296.562V300.5H435.104V293.955H436.076V294.977H436.161C436.314 294.645 436.547 294.378 436.86 294.176C437.172 293.972 437.576 293.869 438.07 293.869C438.513 293.869 438.901 293.96 439.233 294.142C439.566 294.321 439.824 294.594 440.009 294.96C440.194 295.324 440.286 295.784 440.286 296.341V300.5H439.28V296.409C439.28 295.895 439.147 295.494 438.88 295.207C438.613 294.918 438.246 294.773 437.78 294.773C437.459 294.773 437.172 294.842 436.919 294.982C436.669 295.121 436.472 295.324 436.327 295.591C436.182 295.858 436.11 296.182 436.11 296.562ZM445.038 293.955V294.807H441.51V293.955H445.038ZM442.567 300.5V293.051C442.567 292.676 442.655 292.364 442.831 292.114C443.007 291.864 443.236 291.676 443.517 291.551C443.798 291.426 444.095 291.364 444.408 291.364C444.655 291.364 444.857 291.384 445.013 291.423C445.169 291.463 445.286 291.5 445.362 291.534L445.072 292.403C445.021 292.386 444.95 292.365 444.859 292.339C444.771 292.314 444.655 292.301 444.51 292.301C444.178 292.301 443.938 292.385 443.79 292.553C443.645 292.72 443.572 292.966 443.572 293.29V300.5H442.567ZM446.448 300.5V293.955H447.453V300.5H446.448ZM446.959 292.864C446.763 292.864 446.594 292.797 446.452 292.663C446.313 292.53 446.243 292.369 446.243 292.182C446.243 291.994 446.313 291.834 446.452 291.7C446.594 291.567 446.763 291.5 446.959 291.5C447.155 291.5 447.323 291.567 447.462 291.7C447.604 291.834 447.675 291.994 447.675 292.182C447.675 292.369 447.604 292.53 447.462 292.663C447.323 292.797 447.155 292.864 446.959 292.864ZM449.295 300.5V293.955H450.267V294.943H450.335C450.455 294.619 450.67 294.357 450.983 294.155C451.295 293.953 451.648 293.852 452.04 293.852C452.114 293.852 452.206 293.854 452.317 293.857C452.428 293.859 452.511 293.864 452.568 293.869V294.892C452.534 294.884 452.456 294.871 452.334 294.854C452.214 294.834 452.088 294.824 451.955 294.824C451.636 294.824 451.352 294.891 451.102 295.024C450.855 295.155 450.659 295.337 450.514 295.57C450.372 295.8 450.301 296.062 450.301 296.358V300.5H449.295ZM453.76 300.5V293.955H454.732V294.977H454.817C454.953 294.628 455.174 294.357 455.478 294.163C455.782 293.967 456.147 293.869 456.573 293.869C457.005 293.869 457.364 293.967 457.651 294.163C457.941 294.357 458.167 294.628 458.328 294.977H458.397C458.564 294.639 458.816 294.371 459.151 294.172C459.486 293.97 459.888 293.869 460.357 293.869C460.942 293.869 461.421 294.053 461.793 294.419C462.165 294.783 462.351 295.349 462.351 296.119V300.5H461.346V296.119C461.346 295.636 461.213 295.291 460.949 295.084C460.685 294.876 460.374 294.773 460.016 294.773C459.556 294.773 459.199 294.912 458.946 295.19C458.694 295.466 458.567 295.815 458.567 296.239V300.5H457.544V296.017C457.544 295.645 457.424 295.345 457.182 295.118C456.941 294.888 456.63 294.773 456.249 294.773C455.988 294.773 455.743 294.842 455.516 294.982C455.292 295.121 455.11 295.314 454.971 295.561C454.834 295.805 454.766 296.088 454.766 296.409V300.5H453.76ZM466.934 300.636C466.304 300.636 465.76 300.497 465.302 300.219C464.848 299.938 464.497 299.545 464.25 299.043C464.005 298.537 463.883 297.949 463.883 297.278C463.883 296.608 464.005 296.017 464.25 295.506C464.497 294.991 464.841 294.591 465.281 294.304C465.724 294.014 466.241 293.869 466.832 293.869C467.173 293.869 467.51 293.926 467.842 294.04C468.174 294.153 468.477 294.338 468.75 294.594C469.022 294.847 469.24 295.182 469.402 295.599C469.564 296.017 469.645 296.531 469.645 297.142V297.568H464.599V296.699H468.622C468.622 296.33 468.548 296 468.4 295.71C468.255 295.42 468.048 295.192 467.778 295.024C467.511 294.857 467.196 294.773 466.832 294.773C466.431 294.773 466.085 294.872 465.792 295.071C465.502 295.267 465.279 295.523 465.123 295.838C464.967 296.153 464.889 296.491 464.889 296.852V297.432C464.889 297.926 464.974 298.345 465.145 298.689C465.318 299.03 465.558 299.29 465.865 299.469C466.172 299.645 466.528 299.733 466.934 299.733C467.199 299.733 467.437 299.696 467.65 299.622C467.866 299.545 468.052 299.432 468.208 299.281C468.365 299.128 468.485 298.937 468.571 298.71L469.542 298.983C469.44 299.312 469.268 299.602 469.027 299.852C468.785 300.099 468.487 300.293 468.132 300.432C467.777 300.568 467.377 300.636 466.934 300.636ZM473.646 300.636C473.1 300.636 472.619 300.499 472.201 300.223C471.784 299.945 471.457 299.553 471.221 299.047C470.985 298.538 470.868 297.938 470.868 297.244C470.868 296.557 470.985 295.96 471.221 295.455C471.457 294.949 471.785 294.558 472.206 294.283C472.626 294.007 473.112 293.869 473.663 293.869C474.089 293.869 474.426 293.94 474.673 294.082C474.923 294.222 475.113 294.381 475.244 294.56C475.377 294.736 475.481 294.881 475.555 294.994H475.64V291.773H476.646V300.5H475.674V299.494H475.555C475.481 299.614 475.376 299.764 475.24 299.946C475.103 300.125 474.909 300.286 474.656 300.428C474.403 300.567 474.066 300.636 473.646 300.636ZM473.782 299.733C474.186 299.733 474.527 299.628 474.805 299.418C475.083 299.205 475.295 298.911 475.44 298.536C475.585 298.158 475.657 297.722 475.657 297.227C475.657 296.739 475.586 296.311 475.444 295.945C475.302 295.575 475.092 295.288 474.814 295.084C474.535 294.876 474.191 294.773 473.782 294.773C473.356 294.773 473.001 294.882 472.717 295.101C472.436 295.317 472.224 295.611 472.082 295.983C471.943 296.352 471.873 296.767 471.873 297.227C471.873 297.693 471.944 298.116 472.086 298.497C472.231 298.875 472.444 299.176 472.725 299.401C473.01 299.622 473.362 299.733 473.782 299.733Z" fill="#005313"/>
<mask id="path-31-inside-1_130_573" fill="white">
<path d="M170 329H490V394C490 396.761 487.761 399 485 399H175C172.239 399 170 396.761 170 394V329Z"/>
</mask>
<path d="M170 329H490H170ZM491 394C491 397.314 488.314 400 485 400H175C171.686 400 169 397.314 169 394H171C171 396.209 172.791 398 175 398H485C487.209 398 489 396.209 489 394H491ZM175 400C171.686 400 169 397.314 169 394V329H171V394C171 396.209 172.791 398 175 398V400ZM491 329V394C491 397.314 488.314 400 485 400V398C487.209 398 489 396.209 489 394V329H491Z" fill="#E0E0E5" mask="url(#path-31-inside-1_130_573)"/>
<mask id="mask8_130_573" style="mask-type:alpha" maskUnits="userSpaceOnUse" x="183" y="344" width="14" height="13">
<rect x="183.6" y="344.1" width="12.8" height="12.8" fill="#D9D9D9"/>
</mask>
<g mask="url(#mask8_130_573)">
<path d="M190 350.5C190.293 350.5 190.545 350.395 190.754 350.186C190.962 349.978 191.067 349.727 191.067 349.433C191.067 349.14 190.962 348.889 190.754 348.68C190.545 348.471 190.293 348.367 190 348.367C189.707 348.367 189.456 348.471 189.247 348.68C189.038 348.889 188.933 349.14 188.933 349.433C188.933 349.727 189.038 349.978 189.247 350.186C189.456 350.395 189.707 350.5 190 350.5ZM190 354.42C191.085 353.424 191.889 352.52 192.413 351.706C192.938 350.893 193.2 350.171 193.2 349.54C193.2 348.571 192.891 347.778 192.273 347.16C191.656 346.542 190.898 346.233 190 346.233C189.102 346.233 188.344 346.542 187.726 347.16C187.109 347.778 186.8 348.571 186.8 349.54C186.8 350.171 187.062 350.893 187.587 351.706C188.111 352.52 188.916 353.424 190 354.42ZM190 355.833C188.569 354.616 187.5 353.484 186.794 352.44C186.087 351.395 185.733 350.429 185.733 349.54C185.733 348.207 186.162 347.144 187.02 346.353C187.878 345.562 188.871 345.167 190 345.167C191.129 345.167 192.122 345.562 192.98 346.353C193.838 347.144 194.267 348.207 194.267 349.54C194.267 350.429 193.913 351.395 193.207 352.44C192.5 353.484 191.431 354.616 190 355.833Z" fill="#00A54F"/>
</g>
<rect x="202" y="341" width="175" height="19" rx="9.5" fill="#F2F2F2"/>
<mask id="mask9_130_573" style="mask-type:alpha" maskUnits="userSpaceOnUse" x="183" y="371" width="14" height="13">
<rect x="183.6" y="371.1" width="12.8" height="12.8" fill="#5D5C64"/>
</mask>
<g mask="url(#mask9_130_573)">
<path d="M189.479 382.3V381.153C189.008 381.047 188.602 380.842 188.259 380.54C187.917 380.238 187.666 379.811 187.506 379.26L188.493 378.86C188.626 379.287 188.824 379.611 189.086 379.833C189.348 380.056 189.693 380.167 190.119 380.167C190.484 380.167 190.793 380.084 191.046 379.92C191.299 379.756 191.426 379.5 191.426 379.153C191.426 378.842 191.328 378.595 191.133 378.413C190.937 378.231 190.484 378.024 189.773 377.793C189.008 377.553 188.484 377.267 188.199 376.934C187.915 376.6 187.773 376.193 187.773 375.713C187.773 375.136 187.959 374.687 188.333 374.367C188.706 374.047 189.088 373.864 189.479 373.82V372.7H190.546V373.82C190.99 373.891 191.357 374.053 191.646 374.306C191.935 374.56 192.146 374.869 192.279 375.233L191.293 375.66C191.186 375.376 191.035 375.162 190.839 375.02C190.644 374.878 190.377 374.807 190.039 374.807C189.648 374.807 189.35 374.893 189.146 375.067C188.941 375.24 188.839 375.456 188.839 375.713C188.839 376.007 188.973 376.238 189.239 376.407C189.506 376.576 189.968 376.753 190.626 376.94C191.239 377.118 191.704 377.4 192.019 377.786C192.335 378.173 192.493 378.62 192.493 379.127C192.493 379.758 192.306 380.238 191.933 380.567C191.559 380.896 191.097 381.1 190.546 381.18V382.3H189.479Z" fill="#00A54F"/>
</g>
<rect x="202" y="368" width="142" height="19" rx="9.5" fill="#F2F2F2"/>
</g>
<defs>
<clipPath id="clip0_130_573">
<rect width="660" height="389" fill="white"/>
</clipPath>
</defs>
</svg>
