<svg width="111" height="85" viewBox="0 0 111 85" fill="none" xmlns="http://www.w3.org/2000/svg">
<g filter="url(#filter0_d_158_2789)">
<path d="M22.7979 21.8L8 9L11.2169 33.6857L15.0772 24.5429L22.7979 21.8Z" fill="#1ABCFE"/>
<path d="M8.59766 8.30859L23.3965 21.1084L24.584 22.1357L23.1035 22.6611L15.7627 25.2686L12.0596 34.041L10.7461 37.1504L10.3105 33.8037L7.09375 9.11816L6.7832 6.73828L8.59766 8.30859Z" stroke="white" stroke-width="1.82857"/>
</g>
<g filter="url(#filter1_d_158_2789)">
<rect width="71.6286" height="31.3143" transform="translate(31.7715 41.9143)" fill="#1ABCFE"/>
<path d="M50.7905 54.5714C50.6342 54.0932 50.4283 53.6647 50.1726 53.2859C49.9216 52.9024 49.621 52.5757 49.2706 52.3058C48.925 52.0359 48.532 51.8299 48.0916 51.6879C47.6513 51.5458 47.1683 51.4748 46.6428 51.4748C45.781 51.4748 44.9974 51.6974 44.2919 52.1424C43.5864 52.5875 43.0253 53.2433 42.6087 54.1098C42.192 54.9762 41.9837 56.0392 41.9837 57.2987C41.9837 58.5582 42.1944 59.6211 42.6158 60.4876C43.0372 61.3541 43.6077 62.0099 44.3274 62.4549C45.0471 62.9 45.8568 63.1225 46.7564 63.1225C47.5897 63.1225 48.3236 62.945 48.9581 62.5899C49.5973 62.23 50.0945 61.7234 50.4496 61.07C50.8094 60.4118 50.9893 59.6377 50.9893 58.7475L51.5291 58.8612H47.1541V57.2987H52.6939V58.8612C52.6939 60.0591 52.4382 61.1008 51.9268 61.9862C51.4202 62.8716 50.7195 63.5582 49.8246 64.0458C48.9344 64.5288 47.9117 64.7703 46.7564 64.7703C45.4685 64.7703 44.3369 64.4672 43.3615 63.8612C42.3909 63.2551 41.6333 62.3934 41.0888 61.276C40.549 60.1585 40.2791 58.8328 40.2791 57.2987C40.2791 56.1481 40.433 55.1136 40.7408 54.195C41.0533 53.2717 41.4936 52.4857 42.0618 51.837C42.63 51.1884 43.3023 50.6912 44.0788 50.3456C44.8554 49.9999 45.71 49.8271 46.6428 49.8271C47.4098 49.8271 48.1248 49.9431 48.7876 50.1751C49.4553 50.4024 50.0495 50.7267 50.5703 51.1481C51.0959 51.5648 51.5339 52.0643 51.8842 52.6467C52.2346 53.2243 52.4761 53.8659 52.6087 54.5714H50.7905ZM62.4583 60.1112V53.6623H64.1344V64.5714H62.4583V62.7248H62.3447C62.089 63.2788 61.6913 63.7499 61.1515 64.1382C60.6117 64.5217 59.9299 64.7135 59.106 64.7135C58.4242 64.7135 57.8182 64.5643 57.2879 64.266C56.7576 63.963 56.3409 63.5084 56.0379 62.9024C55.7348 62.2916 55.5833 61.5222 55.5833 60.5941V53.6623H57.2594V60.4805C57.2594 61.276 57.482 61.9104 57.9271 62.3839C58.3769 62.8574 58.9498 63.0941 59.6458 63.0941C60.0625 63.0941 60.4862 62.9876 60.9171 62.7745C61.3527 62.5615 61.7173 62.2348 62.0109 61.7944C62.3092 61.3541 62.4583 60.793 62.4583 60.1112ZM71.8783 64.7987C70.8271 64.7987 69.9204 64.5667 69.1581 64.1027C68.4005 63.6339 67.8158 62.9805 67.4038 62.1424C66.9966 61.2996 66.793 60.3195 66.793 59.2021C66.793 58.0847 66.9966 57.0998 67.4038 56.2475C67.8158 55.3905 68.3887 54.7229 69.1226 54.2447C69.8612 53.7618 70.723 53.5203 71.7078 53.5203C72.276 53.5203 72.8371 53.615 73.3911 53.8044C73.945 53.9938 74.4493 54.3015 74.9038 54.7277C75.3584 55.1491 75.7206 55.7078 75.9905 56.4038C76.2604 57.0998 76.3953 57.9568 76.3953 58.9748V59.685H67.9862V58.2362H74.6908C74.6908 57.6207 74.5677 57.0714 74.3215 56.5885C74.08 56.1055 73.7343 55.7243 73.2845 55.445C72.8394 55.1656 72.3139 55.026 71.7078 55.026C71.0402 55.026 70.4625 55.1917 69.9749 55.5231C69.4919 55.8498 69.1202 56.276 68.8598 56.8015C68.5994 57.3271 68.4692 57.8905 68.4692 58.4919V59.4578C68.4692 60.2816 68.6112 60.98 68.8953 61.5529C69.1841 62.1211 69.5842 62.5544 70.0956 62.8527C70.607 63.1462 71.2012 63.293 71.8783 63.293C72.3186 63.293 72.7163 63.2314 73.0715 63.1083C73.4313 62.9805 73.7414 62.7911 74.0018 62.5402C74.2623 62.2845 74.4635 61.9672 74.6055 61.5885L76.2249 62.043C76.0544 62.5922 75.7679 63.0752 75.3655 63.4919C74.963 63.9038 74.4659 64.2258 73.874 64.4578C73.2822 64.685 72.6169 64.7987 71.8783 64.7987ZM86.7723 56.1055L85.2666 56.5316C85.1719 56.2807 85.0322 56.0368 84.8476 55.8001C84.6677 55.5586 84.4214 55.3598 84.1089 55.2035C83.7964 55.0473 83.3964 54.9691 82.9087 54.9691C82.2411 54.9691 81.6847 55.123 81.2396 55.4308C80.7993 55.7338 80.5791 56.1197 80.5791 56.5885C80.5791 57.0051 80.7306 57.3342 81.0337 57.5757C81.3367 57.8171 81.8102 58.0184 82.4541 58.1794L84.0734 58.5771C85.0488 58.8138 85.7756 59.1761 86.2538 59.6637C86.7321 60.1467 86.9712 60.7693 86.9712 61.5316C86.9712 62.1566 86.7912 62.7154 86.4314 63.2078C86.0763 63.7002 85.5791 64.0885 84.9399 64.3725C84.3007 64.6566 83.5573 64.7987 82.7098 64.7987C81.5971 64.7987 80.6762 64.5572 79.947 64.0743C79.2178 63.5913 78.7562 62.8858 78.5621 61.9578L80.153 61.56C80.3045 62.1472 80.591 62.5875 81.0124 62.8811C81.4385 63.1746 81.9948 63.3214 82.6814 63.3214C83.4626 63.3214 84.0829 63.1557 84.5422 62.8243C85.0062 62.4881 85.2382 62.0856 85.2382 61.6169C85.2382 61.2381 85.1056 60.9208 84.8405 60.6652C84.5753 60.4047 84.1681 60.2106 83.6189 60.0828L81.8007 59.6566C80.8017 59.4199 80.0678 59.0529 79.599 58.5558C79.135 58.0539 78.903 57.4265 78.903 56.6737C78.903 56.0582 79.0758 55.5136 79.4214 55.0402C79.7718 54.5667 80.2477 54.195 80.849 53.9251C81.4551 53.6552 82.1416 53.5203 82.9087 53.5203C83.9882 53.5203 84.8357 53.757 85.4513 54.2305C86.0715 54.704 86.5119 55.329 86.7723 56.1055ZM94.3386 53.6623V55.0828H88.6852V53.6623H94.3386ZM90.3329 51.0487H92.009V61.4464C92.009 61.9199 92.0777 62.275 92.215 62.5118C92.357 62.7438 92.537 62.9 92.7548 62.9805C92.9773 63.0563 93.2117 63.0941 93.4579 63.0941C93.6425 63.0941 93.7941 63.0847 93.9124 63.0657C94.0308 63.0421 94.1255 63.0231 94.1965 63.0089L94.5374 64.5146C94.4238 64.5572 94.2652 64.5998 94.0616 64.6424C93.858 64.6898 93.5999 64.7135 93.2874 64.7135C92.8139 64.7135 92.3499 64.6117 91.8954 64.4081C91.4456 64.2045 91.0715 63.8943 90.7732 63.4777C90.4797 63.061 90.3329 62.5354 90.3329 61.901V51.0487Z" fill="white"/>
</g>
<defs>
<filter id="filter0_d_158_2789" x="0.0806923" y="0.820274" width="31.7742" height="47.1094" filterUnits="userSpaceOnUse" color-interpolation-filters="sRGB">
<feFlood flood-opacity="0" result="BackgroundImageFix"/>
<feColorMatrix in="SourceAlpha" type="matrix" values="0 0 0 0 0 0 0 0 0 0 0 0 0 0 0 0 0 0 127 0" result="hardAlpha"/>
<feOffset dy="1.82857"/>
<feGaussianBlur stdDeviation="2.74286"/>
<feColorMatrix type="matrix" values="0 0 0 0 0 0 0 0 0 0 0 0 0 0 0 0 0 0 0.4 0"/>
<feBlend mode="normal" in2="BackgroundImageFix" result="effect1_dropShadow_158_2789"/>
<feBlend mode="normal" in="SourceGraphic" in2="effect1_dropShadow_158_2789" result="shape"/>
</filter>
<filter id="filter1_d_158_2789" x="24.4572" y="38.2572" width="86.2575" height="45.9429" filterUnits="userSpaceOnUse" color-interpolation-filters="sRGB">
<feFlood flood-opacity="0" result="BackgroundImageFix"/>
<feColorMatrix in="SourceAlpha" type="matrix" values="0 0 0 0 0 0 0 0 0 0 0 0 0 0 0 0 0 0 127 0" result="hardAlpha"/>
<feOffset dy="3.65714"/>
<feGaussianBlur stdDeviation="3.65714"/>
<feColorMatrix type="matrix" values="0 0 0 0 0 0 0 0 0 0 0 0 0 0 0 0 0 0 0.12 0"/>
<feBlend mode="normal" in2="BackgroundImageFix" result="effect1_dropShadow_158_2789"/>
<feBlend mode="normal" in="SourceGraphic" in2="effect1_dropShadow_158_2789" result="shape"/>
</filter>
</defs>
</svg>
