<svg width="88" height="65" viewBox="0 0 88 65" fill="none" xmlns="http://www.w3.org/2000/svg">
<g filter="url(#filter0_d_158_2785)">
<path d="M25 17.8519L9 8L12.4783 27L16.6522 19.963L25 17.8519Z" fill="#1ABCFE"/>
<path d="M9.47949 7.22168L25.4795 17.0732L27.3223 18.208L25.2246 18.7383L17.2441 20.7559L13.2646 27.4668L12.0186 29.5674L11.5791 27.165L8.10059 8.16504L7.73047 6.14453L9.47949 7.22168Z" stroke="white" stroke-width="1.82857"/>
</g>
<g filter="url(#filter1_d_158_2785)">
<rect width="59.6286" height="26.3143" transform="translate(21 27)" fill="#1ABCFE"/>
<path d="M37.6781 37.6571C37.5531 37.2745 37.3883 36.9317 37.1838 36.6287C36.983 36.3219 36.7425 36.0605 36.4622 35.8446C36.1857 35.6287 35.8713 35.4639 35.519 35.3503C35.1667 35.2366 34.7804 35.1798 34.3599 35.1798C33.6705 35.1798 33.0436 35.3579 32.4792 35.7139C31.9148 36.07 31.466 36.5946 31.1326 37.2878C30.7993 37.981 30.6326 38.8313 30.6326 39.8389C30.6326 40.8465 30.8012 41.6969 31.1383 42.3901C31.4754 43.0832 31.9319 43.6079 32.5076 43.9639C33.0834 44.32 33.7311 44.498 34.4508 44.498C35.1175 44.498 35.7046 44.356 36.2122 44.0719C36.7235 43.784 37.1213 43.3787 37.4054 42.856C37.6932 42.3295 37.8372 41.7101 37.8372 40.998L38.269 41.0889H34.769V39.8389H39.2008V41.0889C39.2008 42.0473 38.9963 42.8806 38.5872 43.5889C38.1819 44.2973 37.6213 44.8465 36.9054 45.2366C36.1932 45.623 35.3751 45.8162 34.4508 45.8162C33.4205 45.8162 32.5152 45.5738 31.7349 45.0889C30.9584 44.6041 30.3523 43.9147 29.9167 43.0207C29.4849 42.1268 29.269 41.0662 29.269 39.8389C29.269 38.9185 29.3921 38.0908 29.6383 37.356C29.8883 36.6173 30.2406 35.9885 30.6951 35.4696C31.1497 34.9507 31.6876 34.5529 32.3088 34.2764C32.93 33.9999 33.6137 33.8616 34.3599 33.8616C34.9735 33.8616 35.5455 33.9545 36.0758 34.1401C36.6099 34.3219 37.0853 34.5813 37.502 34.9185C37.9224 35.2518 38.2728 35.6514 38.5531 36.1173C38.8334 36.5795 39.0266 37.0927 39.1326 37.6571H37.6781ZM47.0124 42.0889V36.9298H48.3533V45.6571H47.0124V44.1798H46.9214C46.7169 44.623 46.3987 44.9999 45.9669 45.3105C45.5351 45.6173 44.9896 45.7707 44.3305 45.7707C43.7851 45.7707 43.3002 45.6514 42.876 45.4128C42.4517 45.1704 42.1184 44.8067 41.876 44.3219C41.6336 43.8332 41.5124 43.2177 41.5124 42.4753V36.9298H42.8533V42.3844C42.8533 43.0207 43.0313 43.5283 43.3874 43.9071C43.7472 44.2859 44.2055 44.4753 44.7624 44.4753C45.0957 44.4753 45.4347 44.3901 45.7794 44.2196C46.1279 44.0491 46.4195 43.7878 46.6544 43.4355C46.893 43.0832 47.0124 42.6344 47.0124 42.0889ZM54.5483 45.8389C53.7074 45.8389 52.982 45.6533 52.3722 45.2821C51.7661 44.9071 51.2983 44.3844 50.9688 43.7139C50.643 43.0397 50.4801 42.2556 50.4801 41.3616C50.4801 40.4677 50.643 39.6798 50.9688 38.998C51.2983 38.3124 51.7566 37.7783 52.3438 37.3957C52.9347 37.0094 53.6241 36.8162 54.412 36.8162C54.8665 36.8162 55.3154 36.892 55.7585 37.0435C56.2017 37.195 56.6051 37.4412 56.9688 37.7821C57.3324 38.1192 57.6222 38.5662 57.8381 39.123C58.054 39.6798 58.162 40.3654 58.162 41.1798V41.748H51.4347V40.5889H56.7983C56.7983 40.0965 56.6998 39.6571 56.5029 39.2707C56.3097 38.8844 56.0332 38.5795 55.6733 38.356C55.3173 38.1325 54.8968 38.0207 54.412 38.0207C53.8779 38.0207 53.4157 38.1533 53.0256 38.4185C52.6392 38.6798 52.3419 39.0207 52.1335 39.4412C51.9252 39.8616 51.821 40.3124 51.821 40.7935V41.5662C51.821 42.2253 51.9347 42.784 52.162 43.2423C52.393 43.6969 52.7131 44.0435 53.1222 44.2821C53.5313 44.517 54.0067 44.6344 54.5483 44.6344C54.9006 44.6344 55.2188 44.5851 55.5029 44.4866C55.7907 44.3844 56.0388 44.2329 56.2472 44.0321C56.4555 43.8276 56.6165 43.5738 56.7301 43.2707L58.0256 43.6344C57.8892 44.0738 57.6601 44.4601 57.3381 44.7935C57.0161 45.123 56.6184 45.3806 56.1449 45.5662C55.6714 45.748 55.1392 45.8389 54.5483 45.8389ZM66.4635 38.8844L65.259 39.2253C65.1832 39.0245 65.0715 38.8295 64.9238 38.6401C64.7798 38.4469 64.5829 38.2878 64.3329 38.1628C64.0829 38.0378 63.7628 37.9753 63.3726 37.9753C62.8385 37.9753 62.3935 38.0984 62.0374 38.3446C61.6851 38.587 61.509 38.8957 61.509 39.2707C61.509 39.6041 61.6302 39.8673 61.8726 40.0605C62.1151 40.2537 62.4938 40.4147 63.009 40.5435L64.3045 40.8616C65.0848 41.051 65.6662 41.3408 66.0488 41.731C66.4313 42.1173 66.6226 42.6154 66.6226 43.2253C66.6226 43.7253 66.4787 44.1723 66.1908 44.5662C65.9067 44.9601 65.509 45.2707 64.9976 45.498C64.4863 45.7253 63.8916 45.8389 63.2135 45.8389C62.3234 45.8389 61.5866 45.6457 61.0033 45.2594C60.42 44.873 60.0507 44.3086 59.8954 43.5662L61.1681 43.248C61.2893 43.7177 61.5185 44.07 61.8556 44.3048C62.1965 44.5397 62.6416 44.6571 63.1908 44.6571C63.8158 44.6571 64.312 44.5245 64.6795 44.2594C65.0507 43.9904 65.2363 43.6685 65.2363 43.2935C65.2363 42.9904 65.1302 42.7366 64.9181 42.5321C64.706 42.3238 64.3802 42.1685 63.9408 42.0662L62.4863 41.7253C61.687 41.5359 61.0999 41.2423 60.7249 40.8446C60.3537 40.4431 60.1681 39.9412 60.1681 39.3389C60.1681 38.8465 60.3063 38.4109 60.5829 38.0321C60.8632 37.6533 61.2438 37.356 61.7249 37.1401C62.2098 36.9241 62.759 36.8162 63.3726 36.8162C64.2363 36.8162 64.9143 37.0056 65.4067 37.3844C65.9029 37.7632 66.2552 38.2632 66.4635 38.8844ZM72.5166 36.9298V38.0662H67.9938V36.9298H72.5166ZM69.312 34.8389H70.6529V43.1571C70.6529 43.5359 70.7078 43.82 70.8177 44.0094C70.9313 44.195 71.0753 44.32 71.2495 44.3844C71.4275 44.445 71.615 44.4753 71.812 44.4753C71.9597 44.4753 72.0809 44.4677 72.1756 44.4526C72.2703 44.4336 72.3461 44.4185 72.4029 44.4071L72.6756 45.6116C72.5847 45.6457 72.4578 45.6798 72.295 45.7139C72.1321 45.7518 71.9256 45.7707 71.6756 45.7707C71.2969 45.7707 70.9256 45.6893 70.562 45.5264C70.2022 45.3635 69.9029 45.1154 69.6643 44.7821C69.4294 44.4488 69.312 44.0283 69.312 43.5207V34.8389Z" fill="white"/>
</g>
<defs>
<filter id="filter0_d_158_2785" x="0.9762" y="0.63253" width="34.1531" height="38.8157" filterUnits="userSpaceOnUse" color-interpolation-filters="sRGB">
<feFlood flood-opacity="0" result="BackgroundImageFix"/>
<feColorMatrix in="SourceAlpha" type="matrix" values="0 0 0 0 0 0 0 0 0 0 0 0 0 0 0 0 0 0 127 0" result="hardAlpha"/>
<feOffset dy="1.82857"/>
<feGaussianBlur stdDeviation="2.74286"/>
<feColorMatrix type="matrix" values="0 0 0 0 0 0 0 0 0 0 0 0 0 0 0 0 0 0 0.4 0"/>
<feBlend mode="normal" in2="BackgroundImageFix" result="effect1_dropShadow_158_2785"/>
<feBlend mode="normal" in="SourceGraphic" in2="effect1_dropShadow_158_2785" result="shape"/>
</filter>
<filter id="filter1_d_158_2785" x="13.6857" y="23.3429" width="74.2575" height="40.9429" filterUnits="userSpaceOnUse" color-interpolation-filters="sRGB">
<feFlood flood-opacity="0" result="BackgroundImageFix"/>
<feColorMatrix in="SourceAlpha" type="matrix" values="0 0 0 0 0 0 0 0 0 0 0 0 0 0 0 0 0 0 127 0" result="hardAlpha"/>
<feOffset dy="3.65714"/>
<feGaussianBlur stdDeviation="3.65714"/>
<feColorMatrix type="matrix" values="0 0 0 0 0 0 0 0 0 0 0 0 0 0 0 0 0 0 0.12 0"/>
<feBlend mode="normal" in2="BackgroundImageFix" result="effect1_dropShadow_158_2785"/>
<feBlend mode="normal" in="SourceGraphic" in2="effect1_dropShadow_158_2785" result="shape"/>
</filter>
</defs>
</svg>
