<svg width="680" height="382" viewBox="0 0 680 382" fill="none" xmlns="http://www.w3.org/2000/svg">
<rect width="680" height="382" rx="24" fill="white"/>
<path d="M83 191C83 191 109.5 106 175.5 106C263 106 248.997 178.5 337 178.5C418.5 178.5 413.5 126 481.5 126C551.54 126 559.04 191 559.04 191" stroke="#00B078" stroke-dasharray="4 4"/>
<path d="M0 191H680V358C680 371.255 669.255 382 656 382H24C10.7452 382 0 371.255 0 358V191Z" fill="url(#paint0_linear_30_588)"/>
<line x1="190" y1="264" x2="490" y2="264" stroke="#00FFAE" stroke-width="4"/>
<line x1="190" y1="225" x2="490" y2="225" stroke="#00FFAE" stroke-width="2"/>
<line x1="190" y1="190" x2="304" y2="190" stroke="#00FFAE" stroke-width="2"/>
<line x1="190" y1="158" x2="251" y2="158" stroke="#00FFAE" stroke-width="2"/>
<line x1="433" y1="195" x2="490" y2="195" stroke="#00FFAE" stroke-width="2"/>
<line x1="192" y1="116" x2="192" y2="266" stroke="#00FFAE" stroke-width="4"/>
<line x1="241.5" y1="143" x2="241.5" y2="266" stroke="#00FFAE" stroke-width="3"/>
<line x1="291" y1="181" x2="291" y2="263" stroke="#00FFAE" stroke-width="2"/>
<line x1="341" y1="226" x2="341" y2="266" stroke="#00FFAE" stroke-width="2"/>
<line x1="391" y1="191" x2="391" y2="266" stroke="#00FFAE" stroke-width="2"/>
<line x1="441.5" y1="116" x2="441.5" y2="266" stroke="#00FFAE" stroke-width="3"/>
<line x1="488" y1="266" x2="488" y2="166" stroke="#00FFAE" stroke-width="4"/>
<rect x="111" y="217" width="39" height="18" rx="3" fill="#866000"/>
<rect x="135" y="61" width="156" height="7.99999" transform="rotate(90 135 61)" fill="#FFF5BA"/>
<rect x="204" y="80" width="97" height="7.99999" transform="rotate(-180 204 80)" fill="#FFF5BA"/>
<rect x="520" y="217" width="39" height="18" rx="3" fill="#866000"/>
<rect x="544" y="80" width="137" height="7.99999" transform="rotate(90 544 80)" fill="#FFF5BA"/>
<rect x="574" y="102" width="97" height="7.99999" transform="rotate(-180 574 102)" fill="#FFF5BA"/>
<path d="M203.129 305.864L171.643 287L133.77 288.871L127 315.065L196.358 332.058L203.129 305.864Z" fill="#AEDDFF"/>
<path d="M209.707 296.355V333.774H215.346C215.346 325.508 222.078 318.807 230.383 318.807C238.688 318.807 245.421 325.508 245.421 333.774H252V315.065L230.853 296.355H209.707Z" fill="#AEDDFF"/>
<path d="M219.105 333.774C219.105 339.974 224.155 345 230.383 345C236.612 345 241.662 339.974 241.662 333.774C241.662 327.574 236.612 322.548 230.383 322.548C224.155 322.548 219.105 327.574 219.105 333.774Z" fill="#4F2CC4"/>
<path d="M170.233 333.774C170.233 339.974 175.282 345 181.511 345C187.74 345 192.789 339.974 192.789 333.774C192.789 327.574 187.74 322.548 181.511 322.548C175.282 322.548 170.233 327.574 170.233 333.774Z" fill="#4F2CC4"/>
<path d="M134.519 333.774C134.519 339.974 139.568 345 145.797 345C152.026 345 157.075 339.974 157.075 333.774C157.075 327.574 152.026 322.548 145.797 322.548C139.568 322.548 134.519 327.574 134.519 333.774Z" fill="#4F2CC4"/>
<path d="M205.947 330.032H128.88V333.774H205.947V330.032Z" fill="#AEDDFF"/>
<circle cx="79" cy="201" r="28" fill="#D0FFF1"/>
<mask id="mask0_30_588" style="mask-type:alpha" maskUnits="userSpaceOnUse" x="63" y="182" width="32" height="32">
<rect x="63" y="182" width="32" height="32" fill="#D9D9D9"/>
</mask>
<g mask="url(#mask0_30_588)">
<path d="M68.3327 211.333C67.5993 211.333 66.9716 211.072 66.4493 210.55C65.9271 210.028 65.666 209.4 65.666 208.667V197.067C65.666 196.533 65.8105 196.044 66.0993 195.6C66.3882 195.155 66.7882 194.822 67.2993 194.6L73.1327 192.133C73.5771 191.955 73.9993 191.989 74.3993 192.233C74.7993 192.478 74.9993 192.844 74.9993 193.333V194L79.8327 192.067C80.2771 191.889 80.6938 191.933 81.0827 192.2C81.4716 192.467 81.666 192.833 81.666 193.3V195.333H92.3327V208.667C92.3327 209.4 92.0716 210.028 91.5493 210.55C91.0271 211.072 90.3993 211.333 89.666 211.333H68.3327ZM77.666 206H80.3327V200.667H77.666V206ZM72.3327 206H74.9993V200.667H72.3327V206ZM82.9993 206H85.666V200.667H82.9993V206ZM92.066 193.333H85.8993L86.866 185.833C86.9105 185.5 87.0605 185.222 87.316 185C87.5716 184.778 87.866 184.667 88.1993 184.667H89.8327C90.166 184.667 90.4549 184.778 90.6993 185C90.9438 185.222 91.0882 185.5 91.1327 185.833L92.066 193.333Z" fill="#00583C"/>
</g>
<circle cx="578" cy="181" r="28" fill="#D0FFF1"/>
<mask id="mask1_30_588" style="mask-type:alpha" maskUnits="userSpaceOnUse" x="562" y="165" width="32" height="32">
<rect x="562" y="165" width="32" height="32" fill="#D9D9D9"/>
</mask>
<g mask="url(#mask1_30_588)">
<path d="M577.999 194.333C575.644 194.333 573.722 193.961 572.233 193.217C570.744 192.472 569.999 191.511 569.999 190.333C569.999 189.911 570.094 189.522 570.283 189.167C570.472 188.811 570.755 188.478 571.133 188.167C571.444 187.944 571.783 187.855 572.149 187.9C572.516 187.944 572.81 188.122 573.033 188.433C573.255 188.744 573.338 189.083 573.283 189.45C573.227 189.817 573.044 190.111 572.733 190.333C573.022 190.689 573.688 191 574.733 191.267C575.777 191.533 576.866 191.667 577.999 191.667C579.133 191.667 580.222 191.533 581.266 191.267C582.31 191 582.977 190.689 583.266 190.333C582.955 190.111 582.772 189.817 582.716 189.45C582.66 189.083 582.744 188.744 582.966 188.433C583.188 188.122 583.483 187.944 583.849 187.9C584.216 187.855 584.555 187.944 584.866 188.167C585.244 188.478 585.527 188.811 585.716 189.167C585.905 189.522 585.999 189.911 585.999 190.333C585.999 191.511 585.255 192.472 583.766 193.217C582.277 193.961 580.355 194.333 577.999 194.333ZM577.999 189.7C577.733 189.7 577.466 189.655 577.199 189.567C576.933 189.478 576.688 189.344 576.466 189.167C573.844 187.078 571.888 185.039 570.599 183.05C569.31 181.061 568.666 179.111 568.666 177.2C568.666 175.622 568.949 174.239 569.516 173.05C570.083 171.861 570.81 170.867 571.699 170.067C572.588 169.267 573.588 168.667 574.699 168.267C575.81 167.867 576.91 167.667 577.999 167.667C579.088 167.667 580.188 167.867 581.299 168.267C582.41 168.667 583.41 169.267 584.299 170.067C585.188 170.867 585.916 171.861 586.483 173.05C587.049 174.239 587.333 175.622 587.333 177.2C587.333 179.111 586.688 181.061 585.399 183.05C584.11 185.039 582.155 187.078 579.533 189.167C579.31 189.344 579.066 189.478 578.799 189.567C578.533 189.655 578.266 189.7 577.999 189.7ZM577.999 179.667C578.733 179.667 579.36 179.405 579.883 178.883C580.405 178.361 580.666 177.733 580.666 177C580.666 176.267 580.405 175.639 579.883 175.117C579.36 174.594 578.733 174.333 577.999 174.333C577.266 174.333 576.638 174.594 576.116 175.117C575.594 175.639 575.333 176.267 575.333 177C575.333 177.733 575.594 178.361 576.116 178.883C576.638 179.405 577.266 179.667 577.999 179.667Z" fill="#00583C"/>
</g>
<circle cx="268" cy="80" r="28" fill="#D0FFF1"/>
<mask id="mask2_30_588" style="mask-type:alpha" maskUnits="userSpaceOnUse" x="252" y="64" width="32" height="32">
<rect x="252" y="64" width="32" height="32" fill="#D9D9D9"/>
</mask>
<g mask="url(#mask2_30_588)">
<path d="M254.666 88.0002V86.9335C254.666 86.1779 254.855 85.4835 255.233 84.8502C255.61 84.2168 256.133 83.7335 256.799 83.4002C258.066 82.7557 259.383 82.2446 260.749 81.8668C262.116 81.4891 263.51 81.3002 264.933 81.3002C265.244 81.3002 265.488 81.4391 265.666 81.7168C265.844 81.9946 265.877 82.2891 265.766 82.6002C265.633 83.0668 265.533 83.5335 265.466 84.0002C265.399 84.4668 265.366 84.9446 265.366 85.4335C265.366 86.0779 265.433 86.7002 265.566 87.3002C265.699 87.9002 265.888 88.489 266.133 89.0668C266.31 89.4446 266.294 89.8057 266.083 90.1502C265.872 90.4946 265.577 90.6668 265.199 90.6668H257.333C256.599 90.6668 255.972 90.4057 255.449 89.8835C254.927 89.3613 254.666 88.7335 254.666 88.0002ZM274.666 88.0002C275.399 88.0002 276.027 87.7391 276.549 87.2168C277.072 86.6946 277.333 86.0668 277.333 85.3335C277.333 84.6002 277.072 83.9724 276.549 83.4502C276.027 82.9279 275.399 82.6668 274.666 82.6668C273.933 82.6668 273.305 82.9279 272.783 83.4502C272.26 83.9724 271.999 84.6002 271.999 85.3335C271.999 86.0668 272.26 86.6946 272.783 87.2168C273.305 87.7391 273.933 88.0002 274.666 88.0002ZM265.333 80.0002C263.866 80.0002 262.61 79.4779 261.566 78.4335C260.522 77.3891 259.999 76.1335 259.999 74.6668C259.999 73.2002 260.522 71.9446 261.566 70.9002C262.61 69.8557 263.866 69.3335 265.333 69.3335C266.799 69.3335 268.055 69.8557 269.099 70.9002C270.144 71.9446 270.666 73.2002 270.666 74.6668C270.666 76.1335 270.144 77.3891 269.099 78.4335C268.055 79.4779 266.799 80.0002 265.333 80.0002ZM273.133 90.9335L272.933 90.0002C272.666 89.889 272.416 89.7724 272.183 89.6502C271.949 89.5279 271.71 89.3779 271.466 89.2002L270.499 89.5002C270.21 89.5891 269.927 89.5779 269.649 89.4668C269.372 89.3557 269.155 89.1779 268.999 88.9335L268.733 88.4668C268.577 88.2002 268.522 87.9113 268.566 87.6002C268.61 87.2891 268.755 87.0335 268.999 86.8335L269.733 86.2002C269.688 85.8891 269.666 85.6002 269.666 85.3335C269.666 85.0668 269.688 84.7779 269.733 84.4668L268.999 83.8335C268.755 83.6335 268.61 83.3835 268.566 83.0835C268.522 82.7835 268.577 82.5002 268.733 82.2335L269.033 81.7335C269.188 81.4891 269.399 81.3113 269.666 81.2002C269.933 81.0891 270.21 81.0779 270.499 81.1668L271.466 81.4668C271.71 81.2891 271.949 81.1391 272.183 81.0168C272.416 80.8946 272.666 80.7779 272.933 80.6668L273.133 79.7002C273.199 79.3891 273.349 79.1391 273.583 78.9502C273.816 78.7613 274.088 78.6668 274.399 78.6668H274.933C275.244 78.6668 275.516 78.7668 275.749 78.9668C275.983 79.1668 276.133 79.4224 276.199 79.7335L276.399 80.6668C276.666 80.7779 276.916 80.9002 277.149 81.0335C277.383 81.1668 277.622 81.3335 277.866 81.5335L278.766 81.2335C279.077 81.1224 279.377 81.1224 279.666 81.2335C279.955 81.3446 280.177 81.5335 280.333 81.8002L280.599 82.2668C280.755 82.5335 280.81 82.8224 280.766 83.1335C280.722 83.4446 280.577 83.7002 280.333 83.9002L279.599 84.5335C279.644 84.8002 279.666 85.0779 279.666 85.3668C279.666 85.6557 279.644 85.9335 279.599 86.2002L280.333 86.8335C280.577 87.0335 280.722 87.2835 280.766 87.5835C280.81 87.8835 280.755 88.1668 280.599 88.4335L280.299 88.9335C280.144 89.1779 279.933 89.3557 279.666 89.4668C279.399 89.5779 279.122 89.5891 278.833 89.5002L277.866 89.2002C277.622 89.3779 277.383 89.5279 277.149 89.6502C276.916 89.7724 276.666 89.889 276.399 90.0002L276.199 90.9668C276.133 91.2779 275.983 91.5279 275.749 91.7168C275.516 91.9057 275.244 92.0002 274.933 92.0002H274.399C274.088 92.0002 273.816 91.9002 273.583 91.7002C273.349 91.5002 273.199 91.2446 273.133 90.9335Z" fill="#00583C"/>
</g>
<circle cx="390" cy="154" r="28" fill="#D0FFF1"/>
<mask id="mask3_30_588" style="mask-type:alpha" maskUnits="userSpaceOnUse" x="374" y="139" width="32" height="32">
<rect x="374" y="139" width="32" height="32" fill="#D9D9D9"/>
</mask>
<g mask="url(#mask3_30_588)">
<path d="M375.4 165.667V163.267C375.4 162.533 375.589 161.844 375.967 161.2C376.345 160.556 376.867 160.067 377.534 159.733C378.667 159.156 379.945 158.667 381.367 158.267C382.789 157.867 384.356 157.667 386.067 157.667C387.778 157.667 389.345 157.867 390.767 158.267C392.189 158.667 393.467 159.156 394.6 159.733C395.267 160.067 395.789 160.556 396.167 161.2C396.545 161.844 396.734 162.533 396.734 163.267V165.667C396.734 166.044 396.606 166.361 396.35 166.617C396.095 166.872 395.778 167 395.4 167H376.734C376.356 167 376.039 166.872 375.784 166.617C375.528 166.361 375.4 166.044 375.4 165.667ZM386.067 156.333C384.6 156.333 383.345 155.811 382.3 154.767C381.256 153.722 380.734 152.467 380.734 151H380.4C380.2 151 380.039 150.939 379.917 150.817C379.795 150.694 379.734 150.533 379.734 150.333C379.734 150.133 379.795 149.972 379.917 149.85C380.039 149.728 380.2 149.667 380.4 149.667H380.734C380.734 148.667 380.978 147.767 381.467 146.967C381.956 146.167 382.6 145.533 383.4 145.067V146.333C383.4 146.533 383.462 146.694 383.584 146.817C383.706 146.939 383.867 147 384.067 147C384.267 147 384.428 146.939 384.55 146.817C384.673 146.694 384.734 146.533 384.734 146.333V144.533C384.934 144.467 385.145 144.417 385.367 144.383C385.589 144.35 385.823 144.333 386.067 144.333C386.312 144.333 386.545 144.35 386.767 144.383C386.989 144.417 387.2 144.467 387.4 144.533V146.333C387.4 146.533 387.462 146.694 387.584 146.817C387.706 146.939 387.867 147 388.067 147C388.267 147 388.428 146.939 388.55 146.817C388.673 146.694 388.734 146.533 388.734 146.333V145.067C389.534 145.533 390.178 146.167 390.667 146.967C391.156 147.767 391.4 148.667 391.4 149.667H391.734C391.934 149.667 392.095 149.728 392.217 149.85C392.339 149.972 392.4 150.133 392.4 150.333C392.4 150.533 392.339 150.694 392.217 150.817C392.095 150.939 391.934 151 391.734 151H391.4C391.4 152.467 390.878 153.722 389.834 154.767C388.789 155.811 387.534 156.333 386.067 156.333ZM386.067 153.667C386.8 153.667 387.428 153.406 387.95 152.883C388.473 152.361 388.734 151.733 388.734 151H383.4C383.4 151.733 383.662 152.361 384.184 152.883C384.706 153.406 385.334 153.667 386.067 153.667ZM395.967 158.467L395.867 158C395.734 157.956 395.606 157.906 395.484 157.85C395.362 157.794 395.245 157.711 395.134 157.6L394.734 157.733C394.578 157.778 394.428 157.778 394.284 157.733C394.139 157.689 394.023 157.589 393.934 157.433L393.8 157.2C393.712 157.067 393.684 156.922 393.717 156.767C393.75 156.611 393.823 156.478 393.934 156.367L394.267 156.067V155.267L393.934 154.967C393.823 154.856 393.75 154.722 393.717 154.567C393.684 154.411 393.712 154.267 393.8 154.133L393.934 153.9C394.023 153.744 394.139 153.644 394.284 153.6C394.428 153.556 394.578 153.556 394.734 153.6L395.134 153.733C395.223 153.644 395.334 153.567 395.467 153.5C395.6 153.433 395.734 153.378 395.867 153.333L395.967 152.867C396.012 152.711 396.089 152.583 396.2 152.483C396.312 152.383 396.445 152.333 396.6 152.333H396.867C397.023 152.333 397.156 152.383 397.267 152.483C397.378 152.583 397.456 152.711 397.5 152.867L397.6 153.333C397.734 153.378 397.867 153.433 398 153.5C398.134 153.567 398.245 153.644 398.334 153.733L398.734 153.6C398.889 153.556 399.039 153.556 399.184 153.6C399.328 153.644 399.445 153.744 399.534 153.9L399.667 154.133C399.756 154.267 399.784 154.411 399.75 154.567C399.717 154.722 399.645 154.856 399.534 154.967L399.2 155.267V156.067L399.534 156.367C399.645 156.478 399.717 156.611 399.75 156.767C399.784 156.922 399.756 157.067 399.667 157.2L399.534 157.433C399.445 157.589 399.328 157.689 399.184 157.733C399.039 157.778 398.889 157.778 398.734 157.733L398.334 157.6C398.223 157.711 398.106 157.794 397.984 157.85C397.862 157.906 397.734 157.956 397.6 158L397.5 158.467C397.456 158.622 397.378 158.75 397.267 158.85C397.156 158.95 397.023 159 396.867 159H396.6C396.445 159 396.312 158.95 396.2 158.85C396.089 158.75 396.012 158.622 395.967 158.467ZM396.734 156.667C397 156.667 397.234 156.567 397.434 156.367C397.634 156.167 397.734 155.933 397.734 155.667C397.734 155.4 397.634 155.167 397.434 154.967C397.234 154.767 397 154.667 396.734 154.667C396.467 154.667 396.234 154.767 396.034 154.967C395.834 155.167 395.734 155.4 395.734 155.667C395.734 155.933 395.834 156.167 396.034 156.367C396.234 156.567 396.467 156.667 396.734 156.667ZM399 151.6L398.867 150.933C398.667 150.867 398.484 150.783 398.317 150.683C398.15 150.583 398 150.467 397.867 150.333L397.167 150.567C396.967 150.633 396.767 150.628 396.567 150.55C396.367 150.472 396.212 150.344 396.1 150.167L395.9 149.833C395.789 149.656 395.75 149.461 395.784 149.25C395.817 149.039 395.923 148.856 396.1 148.7L396.667 148.2C396.623 148.089 396.6 148 396.6 147.933V147.4C396.6 147.333 396.623 147.244 396.667 147.133L396.1 146.633C395.923 146.478 395.817 146.294 395.784 146.083C395.75 145.872 395.789 145.678 395.9 145.5L396.1 145.167C396.212 144.989 396.367 144.861 396.567 144.783C396.767 144.706 396.967 144.7 397.167 144.767L397.867 145C398 144.867 398.15 144.75 398.317 144.65C398.484 144.55 398.667 144.467 398.867 144.4L399 143.733C399.045 143.511 399.15 143.333 399.317 143.2C399.484 143.067 399.678 143 399.9 143H400.234C400.456 143 400.65 143.067 400.817 143.2C400.984 143.333 401.089 143.511 401.134 143.733L401.267 144.4C401.467 144.467 401.65 144.55 401.817 144.65C401.984 144.75 402.134 144.867 402.267 145L402.967 144.767C403.167 144.7 403.367 144.706 403.567 144.783C403.767 144.861 403.923 144.989 404.034 145.167L404.234 145.5C404.345 145.678 404.384 145.872 404.35 146.083C404.317 146.294 404.212 146.478 404.034 146.633L403.467 147.133C403.512 147.244 403.534 147.333 403.534 147.4V147.933C403.534 148 403.512 148.089 403.467 148.2L404.034 148.7C404.212 148.856 404.317 149.039 404.35 149.25C404.384 149.461 404.345 149.656 404.234 149.833L404.034 150.167C403.923 150.344 403.767 150.472 403.567 150.55C403.367 150.628 403.167 150.633 402.967 150.567L402.267 150.333C402.134 150.467 401.984 150.583 401.817 150.683C401.65 150.783 401.467 150.867 401.267 150.933L401.134 151.6C401.089 151.822 400.984 152 400.817 152.133C400.65 152.267 400.456 152.333 400.234 152.333H399.9C399.678 152.333 399.484 152.267 399.317 152.133C399.15 152 399.045 151.822 399 151.6ZM400.067 149.333C400.534 149.333 400.928 149.172 401.25 148.85C401.573 148.528 401.734 148.133 401.734 147.667C401.734 147.2 401.573 146.806 401.25 146.483C400.928 146.161 400.534 146 400.067 146C399.6 146 399.206 146.161 398.884 146.483C398.562 146.806 398.4 147.2 398.4 147.667C398.4 148.133 398.562 148.528 398.884 148.85C399.206 149.172 399.6 149.333 400.067 149.333Z" fill="#00583C"/>
</g>
<defs>
<linearGradient id="paint0_linear_30_588" x1="340" y1="251.5" x2="340" y2="606" gradientUnits="userSpaceOnUse">
<stop stop-color="#F2FFFB"/>
<stop offset="1" stop-color="#00FFAE"/>
</linearGradient>
</defs>
</svg>
