<svg width="121" height="65" viewBox="0 0 121 65" fill="none" xmlns="http://www.w3.org/2000/svg">
<g filter="url(#filter0_d_165_2809)">
<path d="M25 17.8519L9 8L12.4783 27L16.6522 19.963L25 17.8519Z" fill="#00B078"/>
<path d="M9.47949 7.22168L25.4795 17.0732L27.3223 18.208L25.2246 18.7383L17.2441 20.7559L13.2646 27.4668L12.0186 29.5674L11.5791 27.165L8.10059 8.16504L7.73047 6.14453L9.47949 7.22168Z" stroke="white" stroke-width="1.82857"/>
</g>
<g filter="url(#filter1_d_165_2809)">
<rect width="92.6286" height="26.3143" transform="translate(21 27)" fill="#00B078"/>
<path d="M33.3145 45.6572H29.7235V34.0209H33.4735C34.6023 34.0209 35.5682 34.2538 36.3713 34.7197C37.1743 35.1818 37.7898 35.8466 38.2179 36.714C38.6459 37.5777 38.8599 38.6118 38.8599 39.8163C38.8599 41.0284 38.644 42.072 38.2122 42.947C37.7804 43.8182 37.1516 44.4887 36.3258 44.9584C35.5001 45.4243 34.4963 45.6572 33.3145 45.6572ZM31.1326 44.4072H33.2235C34.1857 44.4072 34.983 44.2216 35.6156 43.8504C36.2482 43.4792 36.7198 42.9508 37.0304 42.2652C37.341 41.5796 37.4963 40.7633 37.4963 39.8163C37.4963 38.8769 37.3429 38.0682 37.036 37.3902C36.7292 36.7084 36.2709 36.1856 35.661 35.822C35.0512 35.4546 34.2917 35.2709 33.3826 35.2709H31.1326V44.4072ZM44.7808 45.839C43.9399 45.839 43.2145 45.6534 42.6047 45.2822C41.9986 44.9072 41.5308 44.3845 41.2013 43.714C40.8755 43.0398 40.7126 42.2557 40.7126 41.3618C40.7126 40.4678 40.8755 39.68 41.2013 38.9981C41.5308 38.3125 41.9892 37.7784 42.5763 37.3959C43.1672 37.0095 43.8566 36.8163 44.6445 36.8163C45.099 36.8163 45.5479 36.8921 45.991 37.0436C46.4342 37.1951 46.8376 37.4413 47.2013 37.7822C47.5649 38.1193 47.8547 38.5663 48.0706 39.1231C48.2865 39.68 48.3945 40.3656 48.3945 41.18V41.7481H41.6672V40.589H47.0308C47.0308 40.0966 46.9323 39.6572 46.7354 39.2709C46.5422 38.8845 46.2657 38.5796 45.9058 38.3561C45.5498 38.1326 45.1293 38.0209 44.6445 38.0209C44.1104 38.0209 43.6482 38.1534 43.2581 38.4186C42.8717 38.68 42.5744 39.0209 42.366 39.4413C42.1577 39.8618 42.0535 40.3125 42.0535 40.7936V41.5663C42.0535 42.2254 42.1672 42.7841 42.3945 43.2425C42.6255 43.697 42.9456 44.0436 43.3547 44.2822C43.7638 44.5171 44.2392 44.6345 44.7808 44.6345C45.1331 44.6345 45.4513 44.5853 45.7354 44.4868C46.0232 44.3845 46.2713 44.233 46.4797 44.0322C46.688 43.8277 46.849 43.5739 46.9626 43.2709L48.2581 43.6345C48.1217 44.0739 47.8926 44.4603 47.5706 44.7936C47.2486 45.1231 46.8509 45.3807 46.3774 45.5663C45.9039 45.7481 45.3717 45.839 44.7808 45.839ZM57.385 36.93L54.1577 45.6572H52.7941L49.5668 36.93H51.0213L53.4304 43.8845H53.5213L55.9304 36.93H57.385ZM62.5814 45.839C61.7405 45.839 61.0152 45.6534 60.4053 45.2822C59.7992 44.9072 59.3314 44.3845 59.0019 43.714C58.6761 43.0398 58.5133 42.2557 58.5133 41.3618C58.5133 40.4678 58.6761 39.68 59.0019 38.9981C59.3314 38.3125 59.7898 37.7784 60.3769 37.3959C60.9678 37.0095 61.6572 36.8163 62.4451 36.8163C62.8996 36.8163 63.3485 36.8921 63.7917 37.0436C64.2349 37.1951 64.6383 37.4413 65.0019 37.7822C65.3655 38.1193 65.6553 38.5663 65.8712 39.1231C66.0871 39.68 66.1951 40.3656 66.1951 41.18V41.7481H59.4678V40.589H64.8314C64.8314 40.0966 64.733 39.6572 64.536 39.2709C64.3428 38.8845 64.0663 38.5796 63.7064 38.3561C63.3504 38.1326 62.9299 38.0209 62.4451 38.0209C61.911 38.0209 61.4489 38.1534 61.0587 38.4186C60.6724 38.68 60.375 39.0209 60.1667 39.4413C59.9583 39.8618 59.8542 40.3125 59.8542 40.7936V41.5663C59.8542 42.2254 59.9678 42.7841 60.1951 43.2425C60.4261 43.697 60.7462 44.0436 61.1553 44.2822C61.5644 44.5171 62.0398 44.6345 62.5814 44.6345C62.9337 44.6345 63.2519 44.5853 63.536 44.4868C63.8239 44.3845 64.072 44.233 64.2803 44.0322C64.4886 43.8277 64.6496 43.5739 64.7633 43.2709L66.0587 43.6345C65.9224 44.0739 65.6932 44.4603 65.3712 44.7936C65.0492 45.1231 64.6515 45.3807 64.178 45.5663C63.7045 45.7481 63.1724 45.839 62.5814 45.839ZM69.6558 34.0209V45.6572H68.3149V34.0209H69.6558ZM75.7372 45.839C74.9493 45.839 74.258 45.6515 73.6633 45.2765C73.0724 44.9015 72.6103 44.3769 72.277 43.7027C71.9474 43.0284 71.7826 42.2406 71.7826 41.339C71.7826 40.43 71.9474 39.6364 72.277 38.9584C72.6103 38.2803 73.0724 37.7538 73.6633 37.3788C74.258 37.0038 74.9493 36.8163 75.7372 36.8163C76.5251 36.8163 77.2145 37.0038 77.8054 37.3788C78.4001 37.7538 78.8622 38.2803 79.1917 38.9584C79.5251 39.6364 79.6917 40.43 79.6917 41.339C79.6917 42.2406 79.5251 43.0284 79.1917 43.7027C78.8622 44.3769 78.4001 44.9015 77.8054 45.2765C77.2145 45.6515 76.5251 45.839 75.7372 45.839ZM75.7372 44.6345C76.3357 44.6345 76.8281 44.4811 77.2145 44.1743C77.6008 43.8675 77.8868 43.464 78.0724 42.964C78.258 42.464 78.3508 41.9224 78.3508 41.339C78.3508 40.7557 78.258 40.2122 78.0724 39.7084C77.8868 39.2046 77.6008 38.7974 77.2145 38.4868C76.8281 38.1762 76.3357 38.0209 75.7372 38.0209C75.1387 38.0209 74.6463 38.1762 74.2599 38.4868C73.8735 38.7974 73.5876 39.2046 73.402 39.7084C73.2163 40.2122 73.1235 40.7557 73.1235 41.339C73.1235 41.9224 73.2163 42.464 73.402 42.964C73.5876 43.464 73.8735 43.8675 74.2599 44.1743C74.6463 44.4811 75.1387 44.6345 75.7372 44.6345ZM81.8186 48.93V36.93H83.1141V38.3163H83.2731C83.3716 38.1648 83.508 37.9716 83.6822 37.7368C83.8603 37.4981 84.1141 37.286 84.4436 37.1004C84.7769 36.911 85.2277 36.8163 85.7959 36.8163C86.5307 36.8163 87.1784 37 87.7391 37.3675C88.2997 37.7349 88.7372 38.2557 89.0516 38.93C89.3659 39.6042 89.5231 40.3997 89.5231 41.3163C89.5231 42.2406 89.3659 43.0417 89.0516 43.7197C88.7372 44.394 88.3016 44.9167 87.7447 45.2879C87.1879 45.6553 86.5459 45.839 85.8186 45.839C85.258 45.839 84.8091 45.7462 84.472 45.5606C84.1349 45.3712 83.8754 45.1572 83.6936 44.9186C83.5118 44.6762 83.3716 44.4754 83.2731 44.3163H83.1595V48.93H81.8186ZM83.1368 41.2936C83.1368 41.9527 83.2334 42.5341 83.4266 43.0379C83.6197 43.5379 83.9019 43.93 84.2731 44.214C84.6444 44.4943 85.0989 44.6345 85.6368 44.6345C86.1974 44.6345 86.6652 44.4868 87.0402 44.1913C87.419 43.8921 87.7031 43.4906 87.8925 42.9868C88.0856 42.4792 88.1822 41.9148 88.1822 41.2936C88.1822 40.68 88.0875 40.1269 87.8981 39.6345C87.7125 39.1383 87.4303 38.7462 87.0516 38.4584C86.6766 38.1667 86.205 38.0209 85.6368 38.0209C85.0913 38.0209 84.633 38.1591 84.2618 38.4356C83.8906 38.7084 83.6103 39.0909 83.4209 39.5834C83.2315 40.072 83.1368 40.6421 83.1368 41.2936ZM95.3077 45.839C94.4668 45.839 93.7414 45.6534 93.1316 45.2822C92.5255 44.9072 92.0577 44.3845 91.7281 43.714C91.4024 43.0398 91.2395 42.2557 91.2395 41.3618C91.2395 40.4678 91.4024 39.68 91.7281 38.9981C92.0577 38.3125 92.516 37.7784 93.1031 37.3959C93.6941 37.0095 94.3835 36.8163 95.1713 36.8163C95.6259 36.8163 96.0747 36.8921 96.5179 37.0436C96.9611 37.1951 97.3645 37.4413 97.7281 37.7822C98.0918 38.1193 98.3816 38.5663 98.5975 39.1231C98.8134 39.68 98.9213 40.3656 98.9213 41.18V41.7481H92.1941V40.589H97.5577C97.5577 40.0966 97.4592 39.6572 97.2622 39.2709C97.0691 38.8845 96.7925 38.5796 96.4327 38.3561C96.0766 38.1326 95.6562 38.0209 95.1713 38.0209C94.6372 38.0209 94.1751 38.1534 93.785 38.4186C93.3986 38.68 93.1013 39.0209 92.8929 39.4413C92.6846 39.8618 92.5804 40.3125 92.5804 40.7936V41.5663C92.5804 42.2254 92.6941 42.7841 92.9213 43.2425C93.1524 43.697 93.4725 44.0436 93.8816 44.2822C94.2906 44.5171 94.766 44.6345 95.3077 44.6345C95.66 44.6345 95.9781 44.5853 96.2622 44.4868C96.5501 44.3845 96.7982 44.233 97.0066 44.0322C97.2149 43.8277 97.3759 43.5739 97.4895 43.2709L98.785 43.6345C98.6486 44.0739 98.4194 44.4603 98.0975 44.7936C97.7755 45.1231 97.3778 45.3807 96.9043 45.5663C96.4308 45.7481 95.8986 45.839 95.3077 45.839ZM101.041 45.6572V36.93H102.337V38.2481H102.427C102.587 37.8163 102.874 37.4659 103.291 37.197C103.708 36.9281 104.177 36.7936 104.7 36.7936C104.799 36.7936 104.922 36.7955 105.07 36.7993C105.217 36.8031 105.329 36.8087 105.405 36.8163V38.18C105.359 38.1686 105.255 38.1515 105.092 38.1288C104.933 38.1023 104.765 38.089 104.587 38.089C104.162 38.089 103.784 38.1781 103.45 38.3561C103.121 38.5303 102.859 38.7728 102.666 39.0834C102.477 39.3902 102.382 39.7406 102.382 40.1345V45.6572H101.041Z" fill="white"/>
</g>
<defs>
<filter id="filter0_d_165_2809" x="0.9762" y="0.632652" width="34.1531" height="38.8157" filterUnits="userSpaceOnUse" color-interpolation-filters="sRGB">
<feFlood flood-opacity="0" result="BackgroundImageFix"/>
<feColorMatrix in="SourceAlpha" type="matrix" values="0 0 0 0 0 0 0 0 0 0 0 0 0 0 0 0 0 0 127 0" result="hardAlpha"/>
<feOffset dy="1.82857"/>
<feGaussianBlur stdDeviation="2.74286"/>
<feColorMatrix type="matrix" values="0 0 0 0 0 0 0 0 0 0 0 0 0 0 0 0 0 0 0.4 0"/>
<feBlend mode="normal" in2="BackgroundImageFix" result="effect1_dropShadow_165_2809"/>
<feBlend mode="normal" in="SourceGraphic" in2="effect1_dropShadow_165_2809" result="shape"/>
</filter>
<filter id="filter1_d_165_2809" x="13.6857" y="23.3429" width="107.257" height="40.9428" filterUnits="userSpaceOnUse" color-interpolation-filters="sRGB">
<feFlood flood-opacity="0" result="BackgroundImageFix"/>
<feColorMatrix in="SourceAlpha" type="matrix" values="0 0 0 0 0 0 0 0 0 0 0 0 0 0 0 0 0 0 127 0" result="hardAlpha"/>
<feOffset dy="3.65714"/>
<feGaussianBlur stdDeviation="3.65714"/>
<feColorMatrix type="matrix" values="0 0 0 0 0 0 0 0 0 0 0 0 0 0 0 0 0 0 0.12 0"/>
<feBlend mode="normal" in2="BackgroundImageFix" result="effect1_dropShadow_165_2809"/>
<feBlend mode="normal" in="SourceGraphic" in2="effect1_dropShadow_165_2809" result="shape"/>
</filter>
</defs>
</svg>
