<svg width="80" height="50" viewBox="0 0 80 50" fill="none" xmlns="http://www.w3.org/2000/svg">
<g clip-path="url(#clip0_305_49583)">
<rect x="25" width="45" height="10" fill="#484848"/>
<rect x="50" y="10" width="10" height="10" fill="#484848"/>
<rect x="30" y="20" width="10" height="10" fill="#0897FF"/>
<path d="M70 10V0H80L70 10Z" fill="#484848"/>
<path d="M50 30V20H60L50 30Z" fill="#484848"/>
<path fill-rule="evenodd" clip-rule="evenodd" d="M25 45L20.4226 49.5774C20.2815 49.5511 20.1406 49.5236 20 49.4949V40H25L25 45Z" fill="#484848"/>
<path fill-rule="evenodd" clip-rule="evenodd" d="M20 49.4949C18.4403 49.1765 16.9107 48.7091 15.4329 48.097C12.3998 46.8406 9.64379 44.9991 7.32233 42.6777C5.00086 40.3562 3.15938 37.6002 1.90301 34.5671C0.646643 31.5339 0 28.283 0 25C0 21.7169 0.646646 18.466 1.90301 15.4329C3.15938 12.3998 5.00087 9.64379 7.32234 7.32232C9.6438 5.00086 12.3998 3.15937 15.4329 1.90301C18.4661 0.646641 21.717 0 25 0L25 10.0012C23.0303 10.0012 21.08 10.3892 19.2602 11.1429C17.4405 11.8967 15.787 13.0015 14.3943 14.3943C13.0015 15.787 11.8967 17.4405 11.1429 19.2602C10.3892 21.0799 10.0012 23.0303 10.0012 25C10.0012 26.9697 10.3892 28.92 11.1429 30.7398C11.8967 32.5595 13.0015 34.213 14.3943 35.6057C15.787 36.9985 17.4405 38.1033 19.2602 38.8571C21.08 39.6108 23.0303 39.9988 25 39.9988V40H20V49.4949Z" fill="#484848"/>
<path d="M25 45V40H30L25 45Z" fill="#484848"/>
<path d="M30 30H20L30 20V30Z" fill="#0897FF"/>
<path d="M30 30L40 30L30 40L30 30Z" fill="#0897FF"/>
</g>
<defs>
<clipPath id="clip0_305_49583">
<rect width="80" height="50" fill="white"/>
</clipPath>
</defs>
</svg>
