<svg width="171" height="65" viewBox="0 0 171 65" fill="none" xmlns="http://www.w3.org/2000/svg">
<g filter="url(#filter0_d_165_2817)">
<path d="M146 17.8519L162 8L158.522 27L154.348 19.963L146 17.8519Z" fill="#FFCD2A"/>
<path d="M161.521 7.22168L145.521 17.0732L143.678 18.208L145.775 18.7383L153.756 20.7559L157.735 27.4668L158.981 29.5674L159.421 27.165L162.899 8.16504L163.27 6.14453L161.521 7.22168Z" stroke="white" stroke-width="1.82857"/>
</g>
<g filter="url(#filter1_d_165_2817)">
<rect width="140.629" height="26.3143" transform="translate(8 27)" fill="#FFCD2A"/>
<path d="M16.7235 45.6572V34.0209H20.6554C21.5682 34.0209 22.3145 34.1856 22.894 34.5152C23.4773 34.8409 23.9092 35.2822 24.1895 35.839C24.4698 36.3959 24.6099 37.0171 24.6099 37.7027C24.6099 38.3883 24.4698 39.0114 24.1895 39.572C23.9129 40.1326 23.4849 40.5796 22.9054 40.9129C22.3258 41.2425 21.5834 41.4072 20.6781 41.4072H17.8599V40.1572H20.6326C21.2576 40.1572 21.7595 40.0493 22.1383 39.8334C22.5171 39.6175 22.7917 39.3258 22.9622 38.9584C23.1364 38.5872 23.2235 38.1686 23.2235 37.7027C23.2235 37.2368 23.1364 36.8201 22.9622 36.4527C22.7917 36.0853 22.5152 35.7974 22.1326 35.589C21.7501 35.3769 21.2425 35.2709 20.6099 35.2709H18.1326V45.6572H16.7235ZM26.778 45.6572V36.93H28.0734V38.2481H28.1643C28.3234 37.8163 28.6113 37.4659 29.028 37.197C29.4446 36.9281 29.9143 36.7936 30.4371 36.7936C30.5356 36.7936 30.6587 36.7955 30.8064 36.7993C30.9541 36.8031 31.0659 36.8087 31.1416 36.8163V38.18C31.0962 38.1686 30.992 38.1515 30.8291 38.1288C30.67 38.1023 30.5015 38.089 30.3234 38.089C29.8992 38.089 29.5204 38.1781 29.1871 38.3561C28.8575 38.5303 28.5962 38.7728 28.403 39.0834C28.2136 39.3902 28.1189 39.7406 28.1189 40.1345V45.6572H26.778ZM36.0909 45.839C35.3031 45.839 34.6118 45.6515 34.0171 45.2765C33.4262 44.9015 32.964 44.3769 32.6307 43.7027C32.3012 43.0284 32.1364 42.2406 32.1364 41.339C32.1364 40.43 32.3012 39.6364 32.6307 38.9584C32.964 38.2803 33.4262 37.7538 34.0171 37.3788C34.6118 37.0038 35.3031 36.8163 36.0909 36.8163C36.8788 36.8163 37.5682 37.0038 38.1591 37.3788C38.7538 37.7538 39.2159 38.2803 39.5455 38.9584C39.8788 39.6364 40.0455 40.43 40.0455 41.339C40.0455 42.2406 39.8788 43.0284 39.5455 43.7027C39.2159 44.3769 38.7538 44.9015 38.1591 45.2765C37.5682 45.6515 36.8788 45.839 36.0909 45.839ZM36.0909 44.6345C36.6894 44.6345 37.1818 44.4811 37.5682 44.1743C37.9546 43.8675 38.2406 43.464 38.4262 42.964C38.6118 42.464 38.7046 41.9224 38.7046 41.339C38.7046 40.7557 38.6118 40.2122 38.4262 39.7084C38.2406 39.2046 37.9546 38.7974 37.5682 38.4868C37.1818 38.1762 36.6894 38.0209 36.0909 38.0209C35.4924 38.0209 35 38.1762 34.6137 38.4868C34.2273 38.7974 33.9413 39.2046 33.7557 39.7084C33.5701 40.2122 33.4773 40.7557 33.4773 41.339C33.4773 41.9224 33.5701 42.464 33.7557 42.964C33.9413 43.464 34.2273 43.8675 34.6137 44.1743C35 44.4811 35.4924 44.6345 36.0909 44.6345ZM42.1724 36.93H43.5133V46.2936C43.5133 46.8315 43.4205 47.2974 43.2349 47.6913C43.053 48.0853 42.7765 48.3902 42.4053 48.6061C42.0379 48.822 41.5739 48.93 41.0133 48.93C40.9678 48.93 40.9224 48.93 40.8769 48.93C40.8314 48.93 40.786 48.93 40.7405 48.93V47.68C40.786 47.68 40.8277 47.68 40.8655 47.68C40.9034 47.68 40.9451 47.68 40.9905 47.68C41.3996 47.68 41.6989 47.5587 41.8883 47.3163C42.0777 47.0777 42.1724 46.7368 42.1724 46.2936V36.93ZM42.8314 35.4754C42.5701 35.4754 42.3447 35.3864 42.1553 35.2084C41.9697 35.0303 41.8769 34.8163 41.8769 34.5663C41.8769 34.3163 41.9697 34.1023 42.1553 33.9243C42.3447 33.7462 42.5701 33.6572 42.8314 33.6572C43.0928 33.6572 43.3163 33.7462 43.5019 33.9243C43.6913 34.1023 43.786 34.3163 43.786 34.5663C43.786 34.8163 43.6913 35.0303 43.5019 35.2084C43.3163 35.3864 43.0928 35.4754 42.8314 35.4754ZM49.7083 45.839C48.8674 45.839 48.142 45.6534 47.5322 45.2822C46.9261 44.9072 46.4583 44.3845 46.1288 43.714C45.803 43.0398 45.6401 42.2557 45.6401 41.3618C45.6401 40.4678 45.803 39.68 46.1288 38.9981C46.4583 38.3125 46.9166 37.7784 47.5038 37.3959C48.0947 37.0095 48.7841 36.8163 49.572 36.8163C50.0265 36.8163 50.4754 36.8921 50.9185 37.0436C51.3617 37.1951 51.7651 37.4413 52.1288 37.7822C52.4924 38.1193 52.7822 38.5663 52.9981 39.1231C53.214 39.68 53.322 40.3656 53.322 41.18V41.7481H46.5947V40.589H51.9583C51.9583 40.0966 51.8598 39.6572 51.6629 39.2709C51.4697 38.8845 51.1932 38.5796 50.8333 38.3561C50.4773 38.1326 50.0568 38.0209 49.572 38.0209C49.0379 38.0209 48.5757 38.1534 48.1856 38.4186C47.7992 38.68 47.5019 39.0209 47.2935 39.4413C47.0852 39.8618 46.981 40.3125 46.981 40.7936V41.5663C46.981 42.2254 47.0947 42.7841 47.322 43.2425C47.553 43.697 47.8731 44.0436 48.2822 44.2822C48.6913 44.5171 49.1667 44.6345 49.7083 44.6345C50.0606 44.6345 50.3788 44.5853 50.6629 44.4868C50.9507 44.3845 51.1988 44.233 51.4072 44.0322C51.6155 43.8277 51.7765 43.5739 51.8901 43.2709L53.1856 43.6345C53.0492 44.0739 52.8201 44.4603 52.4981 44.7936C52.1761 45.1231 51.7784 45.3807 51.3049 45.5663C50.8314 45.7481 50.2992 45.839 49.7083 45.839ZM58.9872 45.839C58.169 45.839 57.4645 45.6459 56.8735 45.2595C56.2826 44.8731 55.8281 44.3409 55.5099 43.6629C55.1917 42.9849 55.0326 42.2103 55.0326 41.339C55.0326 40.4527 55.1955 39.6705 55.5213 38.9925C55.8508 38.3106 56.3092 37.7784 56.8963 37.3959C57.4872 37.0095 58.1766 36.8163 58.9645 36.8163C59.5781 36.8163 60.1311 36.93 60.6235 37.1572C61.116 37.3845 61.5194 37.7027 61.8338 38.1118C62.1482 38.5209 62.3432 38.9981 62.419 39.5436H61.0781C60.9758 39.1459 60.7485 38.7936 60.3963 38.4868C60.0478 38.1762 59.5781 38.0209 58.9872 38.0209C58.4645 38.0209 58.0061 38.1572 57.6122 38.43C57.222 38.6989 56.9171 39.0796 56.6974 39.572C56.4815 40.0606 56.3735 40.6345 56.3735 41.2936C56.3735 41.9678 56.4796 42.555 56.6917 43.055C56.9076 43.555 57.2107 43.9432 57.6008 44.2197C57.9948 44.4962 58.4569 44.6345 58.9872 44.6345C59.3357 44.6345 59.652 44.5739 59.936 44.4527C60.2201 44.3315 60.4607 44.1572 60.6576 43.93C60.8546 43.7027 60.9948 43.43 61.0781 43.1118H62.419C62.3432 43.6269 62.1557 44.0909 61.8565 44.5038C61.561 44.9129 61.169 45.2387 60.6804 45.4811C60.1955 45.7197 59.6311 45.839 58.9872 45.839ZM68.2547 36.93V38.0663H63.732V36.93H68.2547ZM65.0501 34.839H66.391V43.1572C66.391 43.536 66.446 43.8201 66.5558 44.0095C66.6695 44.1951 66.8134 44.3201 66.9876 44.3845C67.1657 44.4451 67.3532 44.4754 67.5501 44.4754C67.6979 44.4754 67.8191 44.4678 67.9138 44.4527C68.0085 44.4337 68.0842 44.4186 68.141 44.4072L68.4138 45.6118C68.3229 45.6459 68.196 45.68 68.0331 45.714C67.8702 45.7519 67.6638 45.7709 67.4138 45.7709C67.035 45.7709 66.6638 45.6894 66.3001 45.5265C65.9403 45.3637 65.641 45.1156 65.4024 44.7822C65.1676 44.4489 65.0501 44.0284 65.0501 43.5209V34.839ZM75.1135 34.0209H76.7954L80.7499 43.68H80.8863L84.8408 34.0209H86.5226V45.6572H85.2045V36.8163H85.0908L81.4545 45.6572H80.1817L76.5454 36.8163H76.4317V45.6572H75.1135V34.0209ZM91.8143 45.8618C91.2613 45.8618 90.7594 45.7576 90.3086 45.5493C89.8578 45.3372 89.4999 45.0322 89.2347 44.6345C88.9696 44.233 88.837 43.7481 88.837 43.18C88.837 42.68 88.9355 42.2747 89.1325 41.964C89.3294 41.6497 89.5927 41.4034 89.9222 41.2254C90.2518 41.0474 90.6154 40.9148 91.0131 40.8277C91.4147 40.7368 91.8181 40.6648 92.2234 40.6118C92.7537 40.5436 93.1836 40.4925 93.5131 40.4584C93.8465 40.4205 94.0889 40.358 94.2404 40.2709C94.3957 40.1837 94.4734 40.0322 94.4734 39.8163V39.7709C94.4734 39.2103 94.32 38.7747 94.0131 38.464C93.7101 38.1534 93.2499 37.9981 92.6325 37.9981C91.9923 37.9981 91.4904 38.1383 91.1268 38.4186C90.7631 38.6989 90.5075 38.9981 90.3597 39.3163L89.087 38.8618C89.3143 38.3315 89.6173 37.9186 89.9961 37.6231C90.3787 37.3239 90.7953 37.1156 91.2461 36.9981C91.7006 36.8769 92.1476 36.8163 92.587 36.8163C92.8673 36.8163 93.1893 36.8504 93.5529 36.9186C93.9203 36.983 94.2745 37.1175 94.6154 37.322C94.9601 37.5265 95.2461 37.8353 95.4734 38.2481C95.7006 38.661 95.8143 39.214 95.8143 39.9072V45.6572H94.4734V44.4754H94.4052C94.3143 44.6648 94.1628 44.8675 93.9506 45.0834C93.7385 45.2993 93.4563 45.483 93.1041 45.6345C92.7518 45.786 92.3219 45.8618 91.8143 45.8618ZM92.0188 44.6572C92.5491 44.6572 92.9961 44.5531 93.3597 44.3447C93.7272 44.1364 94.0037 43.8675 94.1893 43.5379C94.3787 43.2084 94.4734 42.8618 94.4734 42.4981V41.2709C94.4166 41.339 94.2916 41.4015 94.0984 41.4584C93.909 41.5114 93.6893 41.5587 93.4393 41.6004C93.1931 41.6383 92.9525 41.6724 92.7177 41.7027C92.4866 41.7292 92.2991 41.7519 92.1552 41.7709C91.8067 41.8163 91.481 41.8902 91.1779 41.9925C90.8787 42.0909 90.6363 42.2406 90.4506 42.4413C90.2688 42.6383 90.1779 42.9072 90.1779 43.2481C90.1779 43.714 90.3503 44.0663 90.695 44.305C91.0435 44.5398 91.4847 44.6572 92.0188 44.6572ZM99.6826 40.4072V45.6572H98.3417V36.93H99.6372V38.2936H99.7508C99.9554 37.8504 100.266 37.4943 100.683 37.2254C101.099 36.9527 101.637 36.8163 102.296 36.8163C102.887 36.8163 103.404 36.9375 103.847 37.18C104.291 37.4186 104.635 37.7822 104.882 38.2709C105.128 38.7557 105.251 39.3693 105.251 40.1118V45.6572H103.91V40.2027C103.91 39.5171 103.732 38.983 103.376 38.6004C103.02 38.214 102.531 38.0209 101.91 38.0209C101.482 38.0209 101.099 38.1137 100.762 38.2993C100.429 38.4849 100.166 38.7557 99.9724 39.1118C99.7792 39.4678 99.6826 39.8997 99.6826 40.4072ZM110.349 45.8618C109.796 45.8618 109.294 45.7576 108.844 45.5493C108.393 45.3372 108.035 45.0322 107.77 44.6345C107.505 44.233 107.372 43.7481 107.372 43.18C107.372 42.68 107.47 42.2747 107.667 41.964C107.864 41.6497 108.128 41.4034 108.457 41.2254C108.787 41.0474 109.15 40.9148 109.548 40.8277C109.95 40.7368 110.353 40.6648 110.758 40.6118C111.289 40.5436 111.719 40.4925 112.048 40.4584C112.381 40.4205 112.624 40.358 112.775 40.2709C112.931 40.1837 113.008 40.0322 113.008 39.8163V39.7709C113.008 39.2103 112.855 38.7747 112.548 38.464C112.245 38.1534 111.785 37.9981 111.167 37.9981C110.527 37.9981 110.025 38.1383 109.662 38.4186C109.298 38.6989 109.042 38.9981 108.895 39.3163L107.622 38.8618C107.849 38.3315 108.152 37.9186 108.531 37.6231C108.914 37.3239 109.33 37.1156 109.781 36.9981C110.236 36.8769 110.683 36.8163 111.122 36.8163C111.402 36.8163 111.724 36.8504 112.088 36.9186C112.455 36.983 112.81 37.1175 113.15 37.322C113.495 37.5265 113.781 37.8353 114.008 38.2481C114.236 38.661 114.349 39.214 114.349 39.9072V45.6572H113.008V44.4754H112.94C112.849 44.6648 112.698 44.8675 112.486 45.0834C112.274 45.2993 111.991 45.483 111.639 45.6345C111.287 45.786 110.857 45.8618 110.349 45.8618ZM110.554 44.6572C111.084 44.6572 111.531 44.5531 111.895 44.3447C112.262 44.1364 112.539 43.8675 112.724 43.5379C112.914 43.2084 113.008 42.8618 113.008 42.4981V41.2709C112.952 41.339 112.827 41.4015 112.633 41.4584C112.444 41.5114 112.224 41.5587 111.974 41.6004C111.728 41.6383 111.488 41.6724 111.253 41.7027C111.022 41.7292 110.834 41.7519 110.69 41.7709C110.342 41.8163 110.016 41.8902 109.713 41.9925C109.414 42.0909 109.171 42.2406 108.986 42.4413C108.804 42.6383 108.713 42.9072 108.713 43.2481C108.713 43.714 108.885 44.0663 109.23 44.305C109.578 44.5398 110.02 44.6572 110.554 44.6572ZM120.399 49.1118C119.752 49.1118 119.195 49.0284 118.729 48.8618C118.263 48.6989 117.875 48.483 117.564 48.214C117.257 47.9489 117.013 47.6648 116.831 47.3618L117.899 46.6118C118.021 46.7709 118.174 46.9527 118.36 47.1572C118.545 47.3656 118.799 47.5455 119.121 47.697C119.447 47.8523 119.873 47.93 120.399 47.93C121.104 47.93 121.685 47.7595 122.144 47.4186C122.602 47.0777 122.831 46.5436 122.831 45.8163V44.0436H122.718C122.619 44.2027 122.479 44.3997 122.297 44.6345C122.119 44.8656 121.862 45.072 121.524 45.2538C121.191 45.4318 120.74 45.5209 120.172 45.5209C119.468 45.5209 118.835 45.3542 118.274 45.0209C117.718 44.6875 117.276 44.2027 116.951 43.5663C116.629 42.93 116.468 42.1572 116.468 41.2481C116.468 40.3542 116.625 39.5758 116.939 38.9129C117.254 38.2462 117.691 37.7311 118.252 37.3675C118.812 37 119.46 36.8163 120.195 36.8163C120.763 36.8163 121.214 36.911 121.547 37.1004C121.884 37.286 122.142 37.4981 122.32 37.7368C122.502 37.9716 122.642 38.1648 122.74 38.3163H122.877V36.93H124.172V45.9072C124.172 46.6572 124.002 47.2671 123.661 47.7368C123.324 48.2103 122.869 48.5568 122.297 48.7765C121.729 49 121.096 49.1118 120.399 49.1118ZM120.354 44.3163C120.892 44.3163 121.346 44.1932 121.718 43.947C122.089 43.7008 122.371 43.3466 122.564 42.8845C122.757 42.4224 122.854 41.8693 122.854 41.2254C122.854 40.5966 122.759 40.0417 122.57 39.5606C122.381 39.0796 122.1 38.7027 121.729 38.43C121.358 38.1572 120.899 38.0209 120.354 38.0209C119.786 38.0209 119.312 38.1648 118.934 38.4527C118.559 38.7406 118.276 39.1269 118.087 39.6118C117.901 40.0966 117.809 40.6345 117.809 41.2254C117.809 41.8315 117.903 42.3675 118.093 42.8334C118.286 43.2955 118.57 43.6591 118.945 43.9243C119.324 44.1856 119.793 44.3163 120.354 44.3163ZM130.366 45.839C129.525 45.839 128.8 45.6534 128.19 45.2822C127.584 44.9072 127.116 44.3845 126.786 43.714C126.461 43.0398 126.298 42.2557 126.298 41.3618C126.298 40.4678 126.461 39.68 126.786 38.9981C127.116 38.3125 127.574 37.7784 128.161 37.3959C128.752 37.0095 129.442 36.8163 130.229 36.8163C130.684 36.8163 131.133 36.8921 131.576 37.0436C132.019 37.1951 132.423 37.4413 132.786 37.7822C133.15 38.1193 133.44 38.5663 133.656 39.1231C133.871 39.68 133.979 40.3656 133.979 41.18V41.7481H127.252V40.589H132.616C132.616 40.0966 132.517 39.6572 132.32 39.2709C132.127 38.8845 131.851 38.5796 131.491 38.3561C131.135 38.1326 130.714 38.0209 130.229 38.0209C129.695 38.0209 129.233 38.1534 128.843 38.4186C128.457 38.68 128.159 39.0209 127.951 39.4413C127.743 39.8618 127.639 40.3125 127.639 40.7936V41.5663C127.639 42.2254 127.752 42.7841 127.979 43.2425C128.211 43.697 128.531 44.0436 128.94 44.2822C129.349 44.5171 129.824 44.6345 130.366 44.6345C130.718 44.6345 131.036 44.5853 131.32 44.4868C131.608 44.3845 131.856 44.233 132.065 44.0322C132.273 43.8277 132.434 43.5739 132.548 43.2709L133.843 43.6345C133.707 44.0739 133.478 44.4603 133.156 44.7936C132.834 45.1231 132.436 45.3807 131.962 45.5663C131.489 45.7481 130.957 45.839 130.366 45.839ZM136.099 45.6572V36.93H137.395V38.2481H137.486C137.645 37.8163 137.933 37.4659 138.349 37.197C138.766 36.9281 139.236 36.7936 139.758 36.7936C139.857 36.7936 139.98 36.7955 140.128 36.7993C140.275 36.8031 140.387 36.8087 140.463 36.8163V38.18C140.417 38.1686 140.313 38.1515 140.15 38.1288C139.991 38.1023 139.823 38.089 139.645 38.089C139.22 38.089 138.842 38.1781 138.508 38.3561C138.179 38.5303 137.917 38.7728 137.724 39.0834C137.535 39.3902 137.44 39.7406 137.44 40.1345V45.6572H136.099Z" fill="white"/>
</g>
<defs>
<filter id="filter0_d_165_2817" x="135.871" y="0.632652" width="34.1531" height="38.8157" filterUnits="userSpaceOnUse" color-interpolation-filters="sRGB">
<feFlood flood-opacity="0" result="BackgroundImageFix"/>
<feColorMatrix in="SourceAlpha" type="matrix" values="0 0 0 0 0 0 0 0 0 0 0 0 0 0 0 0 0 0 127 0" result="hardAlpha"/>
<feOffset dy="1.82857"/>
<feGaussianBlur stdDeviation="2.74286"/>
<feColorMatrix type="matrix" values="0 0 0 0 0 0 0 0 0 0 0 0 0 0 0 0 0 0 0.4 0"/>
<feBlend mode="normal" in2="BackgroundImageFix" result="effect1_dropShadow_165_2817"/>
<feBlend mode="normal" in="SourceGraphic" in2="effect1_dropShadow_165_2817" result="shape"/>
</filter>
<filter id="filter1_d_165_2817" x="0.685715" y="23.3429" width="155.257" height="40.9428" filterUnits="userSpaceOnUse" color-interpolation-filters="sRGB">
<feFlood flood-opacity="0" result="BackgroundImageFix"/>
<feColorMatrix in="SourceAlpha" type="matrix" values="0 0 0 0 0 0 0 0 0 0 0 0 0 0 0 0 0 0 127 0" result="hardAlpha"/>
<feOffset dy="3.65714"/>
<feGaussianBlur stdDeviation="3.65714"/>
<feColorMatrix type="matrix" values="0 0 0 0 0 0 0 0 0 0 0 0 0 0 0 0 0 0 0.12 0"/>
<feBlend mode="normal" in2="BackgroundImageFix" result="effect1_dropShadow_165_2817"/>
<feBlend mode="normal" in="SourceGraphic" in2="effect1_dropShadow_165_2817" result="shape"/>
</filter>
</defs>
</svg>
