<svg width="130" height="65" viewBox="0 0 130 65" fill="none" xmlns="http://www.w3.org/2000/svg">
<g filter="url(#filter0_d_165_2813)">
<path d="M25 17.8519L9 8L12.4783 27L16.6522 19.963L25 17.8519Z" fill="#FF23BD"/>
<path d="M9.47949 7.22168L25.4795 17.0732L27.3223 18.208L25.2246 18.7383L17.2441 20.7559L13.2646 27.4668L12.0186 29.5674L11.5791 27.165L8.10059 8.16504L7.73047 6.14453L9.47949 7.22168Z" stroke="white" stroke-width="1.82857"/>
</g>
<g filter="url(#filter1_d_165_2813)">
<rect width="101.629" height="26.3143" transform="translate(21 27)" fill="#FF23BD"/>
<path d="M29.7235 45.6572V34.0209H33.6554C34.5645 34.0209 35.3107 34.1762 35.894 34.4868C36.4773 34.7936 36.9092 35.2159 37.1895 35.7538C37.4698 36.2917 37.6099 36.9034 37.6099 37.589C37.6099 38.2747 37.4698 38.8826 37.1895 39.4129C36.9092 39.9432 36.4792 40.3599 35.8997 40.6629C35.3201 40.9622 34.5796 41.1118 33.6781 41.1118H30.4963V39.839H33.6326C34.2538 39.839 34.7538 39.7481 35.1326 39.5663C35.5152 39.3845 35.7917 39.1269 35.9622 38.7936C36.1364 38.4565 36.2235 38.055 36.2235 37.589C36.2235 37.1231 36.1364 36.7159 35.9622 36.3675C35.7879 36.019 35.5095 35.75 35.127 35.5606C34.7444 35.3675 34.2387 35.2709 33.6099 35.2709H31.1326V45.6572H29.7235ZM35.2008 40.43L38.0645 45.6572H36.4281L33.6099 40.43H35.2008ZM43.4214 45.839C42.5805 45.839 41.8552 45.6534 41.2453 45.2822C40.6392 44.9072 40.1714 44.3845 39.8419 43.714C39.5161 43.0398 39.3533 42.2557 39.3533 41.3618C39.3533 40.4678 39.5161 39.68 39.8419 38.9981C40.1714 38.3125 40.6298 37.7784 41.2169 37.3959C41.8078 37.0095 42.4972 36.8163 43.2851 36.8163C43.7396 36.8163 44.1885 36.8921 44.6317 37.0436C45.0749 37.1951 45.4783 37.4413 45.8419 37.7822C46.2055 38.1193 46.4953 38.5663 46.7112 39.1231C46.9271 39.68 47.0351 40.3656 47.0351 41.18V41.7481H40.3078V40.589H45.6714C45.6714 40.0966 45.573 39.6572 45.376 39.2709C45.1828 38.8845 44.9063 38.5796 44.5464 38.3561C44.1904 38.1326 43.7699 38.0209 43.2851 38.0209C42.751 38.0209 42.2889 38.1534 41.8987 38.4186C41.5124 38.68 41.215 39.0209 41.0067 39.4413C40.7983 39.8618 40.6942 40.3125 40.6942 40.7936V41.5663C40.6942 42.2254 40.8078 42.7841 41.0351 43.2425C41.2661 43.697 41.5862 44.0436 41.9953 44.2822C42.4044 44.5171 42.8798 44.6345 43.4214 44.6345C43.7737 44.6345 44.0919 44.5853 44.376 44.4868C44.6639 44.3845 44.912 44.233 45.1203 44.0322C45.3286 43.8277 45.4896 43.5739 45.6033 43.2709L46.8987 43.6345C46.7624 44.0739 46.5332 44.4603 46.2112 44.7936C45.8892 45.1231 45.4915 45.3807 45.018 45.5663C44.5445 45.7481 44.0124 45.839 43.4214 45.839ZM55.3367 38.8845L54.1321 39.2254C54.0564 39.0247 53.9446 38.8296 53.7969 38.6402C53.653 38.447 53.456 38.2879 53.206 38.1629C52.956 38.0379 52.6359 37.9754 52.2458 37.9754C51.7117 37.9754 51.2666 38.0985 50.9105 38.3447C50.5583 38.5872 50.3821 38.8959 50.3821 39.2709C50.3821 39.6042 50.5033 39.8675 50.7458 40.0606C50.9882 40.2538 51.367 40.4148 51.8821 40.5436L53.1776 40.8618C53.9579 41.0512 54.5393 41.3409 54.9219 41.7311C55.3045 42.1175 55.4958 42.6156 55.4958 43.2254C55.4958 43.7254 55.3518 44.1724 55.0639 44.5663C54.7799 44.9603 54.3821 45.2709 53.8708 45.4981C53.3594 45.7254 52.7647 45.839 52.0867 45.839C51.1965 45.839 50.4598 45.6459 49.8764 45.2595C49.2931 44.8731 48.9238 44.3087 48.7685 43.5663L50.0412 43.2481C50.1624 43.7178 50.3916 44.0701 50.7287 44.305C51.0696 44.5398 51.5147 44.6572 52.0639 44.6572C52.6889 44.6572 53.1852 44.5247 53.5526 44.2595C53.9238 43.9906 54.1094 43.6686 54.1094 43.2936C54.1094 42.9906 54.0033 42.7368 53.7912 42.5322C53.5791 42.3239 53.2533 42.1686 52.8139 42.0663L51.3594 41.7254C50.5602 41.536 49.973 41.2425 49.598 40.8447C49.2268 40.4432 49.0412 39.9413 49.0412 39.339C49.0412 38.8466 49.1795 38.411 49.456 38.0322C49.7363 37.6534 50.117 37.3561 50.598 37.1402C51.0829 36.9243 51.6321 36.8163 52.2458 36.8163C53.1094 36.8163 53.7874 37.0057 54.2799 37.3845C54.7761 37.7633 55.1283 38.2633 55.3367 38.8845ZM61.2533 45.839C60.4124 45.839 59.687 45.6534 59.0772 45.2822C58.4711 44.9072 58.0033 44.3845 57.6738 43.714C57.348 43.0398 57.1851 42.2557 57.1851 41.3618C57.1851 40.4678 57.348 39.68 57.6738 38.9981C58.0033 38.3125 58.4616 37.7784 59.0488 37.3959C59.6397 37.0095 60.3291 36.8163 61.117 36.8163C61.5715 36.8163 62.0204 36.8921 62.4635 37.0436C62.9067 37.1951 63.3101 37.4413 63.6738 37.7822C64.0374 38.1193 64.3272 38.5663 64.5431 39.1231C64.759 39.68 64.867 40.3656 64.867 41.18V41.7481H58.1397V40.589H63.5033C63.5033 40.0966 63.4048 39.6572 63.2079 39.2709C63.0147 38.8845 62.7382 38.5796 62.3783 38.3561C62.0223 38.1326 61.6018 38.0209 61.117 38.0209C60.5829 38.0209 60.1207 38.1534 59.7306 38.4186C59.3442 38.68 59.0469 39.0209 58.8385 39.4413C58.6302 39.8618 58.526 40.3125 58.526 40.7936V41.5663C58.526 42.2254 58.6397 42.7841 58.867 43.2425C59.098 43.697 59.4181 44.0436 59.8272 44.2822C60.2363 44.5171 60.7117 44.6345 61.2533 44.6345C61.6056 44.6345 61.9238 44.5853 62.2079 44.4868C62.4957 44.3845 62.7438 44.233 62.9522 44.0322C63.1605 43.8277 63.3215 43.5739 63.4351 43.2709L64.7306 43.6345C64.5942 44.0739 64.3651 44.4603 64.0431 44.7936C63.7211 45.1231 63.3234 45.3807 62.8499 45.5663C62.3764 45.7481 61.8442 45.839 61.2533 45.839ZM69.5549 45.8618C69.0019 45.8618 68.5 45.7576 68.0492 45.5493C67.5985 45.3372 67.2405 45.0322 66.9754 44.6345C66.7102 44.233 66.5776 43.7481 66.5776 43.18C66.5776 42.68 66.6761 42.2747 66.8731 41.964C67.0701 41.6497 67.3333 41.4034 67.6629 41.2254C67.9924 41.0474 68.356 40.9148 68.7538 40.8277C69.1553 40.7368 69.5587 40.6648 69.964 40.6118C70.4943 40.5436 70.9242 40.4925 71.2538 40.4584C71.5871 40.4205 71.8295 40.358 71.981 40.2709C72.1363 40.1837 72.214 40.0322 72.214 39.8163V39.7709C72.214 39.2103 72.0606 38.7747 71.7538 38.464C71.4507 38.1534 70.9905 37.9981 70.3731 37.9981C69.7329 37.9981 69.231 38.1383 68.8674 38.4186C68.5038 38.6989 68.2481 38.9981 68.1004 39.3163L66.8276 38.8618C67.0549 38.3315 67.3579 37.9186 67.7367 37.6231C68.1193 37.3239 68.536 37.1156 68.9867 36.9981C69.4413 36.8769 69.8882 36.8163 70.3276 36.8163C70.6079 36.8163 70.9299 36.8504 71.2935 36.9186C71.661 36.983 72.0151 37.1175 72.356 37.322C72.7007 37.5265 72.9867 37.8353 73.214 38.2481C73.4413 38.661 73.5549 39.214 73.5549 39.9072V45.6572H72.214V44.4754H72.1458C72.0549 44.6648 71.9034 44.8675 71.6913 45.0834C71.4791 45.2993 71.197 45.483 70.8447 45.6345C70.4924 45.786 70.0625 45.8618 69.5549 45.8618ZM69.7595 44.6572C70.2898 44.6572 70.7367 44.5531 71.1004 44.3447C71.4678 44.1364 71.7443 43.8675 71.9299 43.5379C72.1193 43.2084 72.214 42.8618 72.214 42.4981V41.2709C72.1572 41.339 72.0322 41.4015 71.839 41.4584C71.6496 41.5114 71.4299 41.5587 71.1799 41.6004C70.9337 41.6383 70.6932 41.6724 70.4583 41.7027C70.2273 41.7292 70.0398 41.7519 69.8958 41.7709C69.5473 41.8163 69.2216 41.8902 68.9185 41.9925C68.6193 42.0909 68.3769 42.2406 68.1913 42.4413C68.0095 42.6383 67.9185 42.9072 67.9185 43.2481C67.9185 43.714 68.0909 44.0663 68.4356 44.305C68.7841 44.5398 69.2254 44.6572 69.7595 44.6572ZM76.0824 45.6572V36.93H77.3778V38.2481H77.4687C77.6278 37.8163 77.9157 37.4659 78.3324 37.197C78.749 36.9281 79.2187 36.7936 79.7414 36.7936C79.8399 36.7936 79.963 36.7955 80.1108 36.7993C80.2585 36.8031 80.3702 36.8087 80.446 36.8163V38.18C80.4005 38.1686 80.2964 38.1515 80.1335 38.1288C79.9744 38.1023 79.8058 38.089 79.6278 38.089C79.2036 38.089 78.8248 38.1781 78.4914 38.3561C78.1619 38.5303 77.9005 38.7728 77.7074 39.0834C77.518 39.3902 77.4233 39.7406 77.4233 40.1345V45.6572H76.0824ZM85.3953 45.839C84.5771 45.839 83.8726 45.6459 83.2817 45.2595C82.6908 44.8731 82.2362 44.3409 81.918 43.6629C81.5999 42.9849 81.4408 42.2103 81.4408 41.339C81.4408 40.4527 81.6036 39.6705 81.9294 38.9925C82.2589 38.3106 82.7173 37.7784 83.3044 37.3959C83.8953 37.0095 84.5847 36.8163 85.3726 36.8163C85.9862 36.8163 86.5392 36.93 87.0317 37.1572C87.5241 37.3845 87.9275 37.7027 88.2419 38.1118C88.5563 38.5209 88.7514 38.9981 88.8271 39.5436H87.4862C87.3839 39.1459 87.1567 38.7936 86.8044 38.4868C86.4559 38.1762 85.9862 38.0209 85.3953 38.0209C84.8726 38.0209 84.4142 38.1572 84.0203 38.43C83.6302 38.6989 83.3252 39.0796 83.1055 39.572C82.8896 40.0606 82.7817 40.6345 82.7817 41.2936C82.7817 41.9678 82.8877 42.555 83.0999 43.055C83.3158 43.555 83.6188 43.9432 84.0089 44.2197C84.4029 44.4962 84.865 44.6345 85.3953 44.6345C85.7438 44.6345 86.0601 44.5739 86.3442 44.4527C86.6283 44.3315 86.8688 44.1572 87.0658 43.93C87.2627 43.7027 87.4029 43.43 87.4862 43.1118H88.8271C88.7514 43.6269 88.5639 44.0909 88.2646 44.5038C87.9692 44.9129 87.5771 45.2387 87.0885 45.4811C86.6036 45.7197 86.0392 45.839 85.3953 45.839ZM92.2083 40.4072V45.6572H90.8674V34.0209H92.2083V38.2936H92.3219C92.5264 37.8428 92.8333 37.4849 93.2424 37.2197C93.6552 36.9508 94.2045 36.8163 94.8901 36.8163C95.4848 36.8163 96.0056 36.9356 96.4526 37.1743C96.8995 37.4091 97.2461 37.7709 97.4924 38.2595C97.7424 38.7443 97.8674 39.3618 97.8674 40.1118V45.6572H96.5264V40.2027C96.5264 39.5095 96.3465 38.9735 95.9867 38.5947C95.6306 38.2122 95.1363 38.0209 94.5037 38.0209C94.0643 38.0209 93.6704 38.1137 93.3219 38.2993C92.9772 38.4849 92.7045 38.7557 92.5037 39.1118C92.3067 39.4678 92.2083 39.8997 92.2083 40.4072ZM104.06 45.839C103.219 45.839 102.493 45.6534 101.883 45.2822C101.277 44.9072 100.81 44.3845 100.48 43.714C100.154 43.0398 99.9914 42.2557 99.9914 41.3618C99.9914 40.4678 100.154 39.68 100.48 38.9981C100.81 38.3125 101.268 37.7784 101.855 37.3959C102.446 37.0095 103.135 36.8163 103.923 36.8163C104.378 36.8163 104.827 36.8921 105.27 37.0436C105.713 37.1951 106.116 37.4413 106.48 37.7822C106.844 38.1193 107.133 38.5663 107.349 39.1231C107.565 39.68 107.673 40.3656 107.673 41.18V41.7481H100.946V40.589H106.31C106.31 40.0966 106.211 39.6572 106.014 39.2709C105.821 38.8845 105.544 38.5796 105.185 38.3561C104.829 38.1326 104.408 38.0209 103.923 38.0209C103.389 38.0209 102.927 38.1534 102.537 38.4186C102.15 38.68 101.853 39.0209 101.645 39.4413C101.436 39.8618 101.332 40.3125 101.332 40.7936V41.5663C101.332 42.2254 101.446 42.7841 101.673 43.2425C101.904 43.697 102.224 44.0436 102.633 44.2822C103.043 44.5171 103.518 44.6345 104.06 44.6345C104.412 44.6345 104.73 44.5853 105.014 44.4868C105.302 44.3845 105.55 44.233 105.758 44.0322C105.967 43.8277 106.128 43.5739 106.241 43.2709L107.537 43.6345C107.4 44.0739 107.171 44.4603 106.849 44.7936C106.527 45.1231 106.13 45.3807 105.656 45.5663C105.183 45.7481 104.65 45.839 104.06 45.839ZM109.793 45.6572V36.93H111.088V38.2481H111.179C111.338 37.8163 111.626 37.4659 112.043 37.197C112.46 36.9281 112.929 36.7936 113.452 36.7936C113.551 36.7936 113.674 36.7955 113.821 36.7993C113.969 36.8031 114.081 36.8087 114.157 36.8163V38.18C114.111 38.1686 114.007 38.1515 113.844 38.1288C113.685 38.1023 113.516 38.089 113.338 38.089C112.914 38.089 112.535 38.1781 112.202 38.3561C111.873 38.5303 111.611 38.7728 111.418 39.0834C111.229 39.3902 111.134 39.7406 111.134 40.1345V45.6572H109.793Z" fill="white"/>
</g>
<defs>
<filter id="filter0_d_165_2813" x="0.9762" y="0.632652" width="34.1531" height="38.8157" filterUnits="userSpaceOnUse" color-interpolation-filters="sRGB">
<feFlood flood-opacity="0" result="BackgroundImageFix"/>
<feColorMatrix in="SourceAlpha" type="matrix" values="0 0 0 0 0 0 0 0 0 0 0 0 0 0 0 0 0 0 127 0" result="hardAlpha"/>
<feOffset dy="1.82857"/>
<feGaussianBlur stdDeviation="2.74286"/>
<feColorMatrix type="matrix" values="0 0 0 0 0 0 0 0 0 0 0 0 0 0 0 0 0 0 0.4 0"/>
<feBlend mode="normal" in2="BackgroundImageFix" result="effect1_dropShadow_165_2813"/>
<feBlend mode="normal" in="SourceGraphic" in2="effect1_dropShadow_165_2813" result="shape"/>
</filter>
<filter id="filter1_d_165_2813" x="13.6857" y="23.3429" width="116.257" height="40.9428" filterUnits="userSpaceOnUse" color-interpolation-filters="sRGB">
<feFlood flood-opacity="0" result="BackgroundImageFix"/>
<feColorMatrix in="SourceAlpha" type="matrix" values="0 0 0 0 0 0 0 0 0 0 0 0 0 0 0 0 0 0 127 0" result="hardAlpha"/>
<feOffset dy="3.65714"/>
<feGaussianBlur stdDeviation="3.65714"/>
<feColorMatrix type="matrix" values="0 0 0 0 0 0 0 0 0 0 0 0 0 0 0 0 0 0 0.12 0"/>
<feBlend mode="normal" in2="BackgroundImageFix" result="effect1_dropShadow_165_2813"/>
<feBlend mode="normal" in="SourceGraphic" in2="effect1_dropShadow_165_2813" result="shape"/>
</filter>
</defs>
</svg>
