<svg width="680" height="382" viewBox="0 0 680 382" fill="none" xmlns="http://www.w3.org/2000/svg">
<g clip-path="url(#clip0_30_658)">
<rect width="680" height="382" rx="24" fill="white"/>
<path d="M0 191H680V368C680 381.255 669.255 392 656 392H24C10.7452 392 0 381.255 0 368V191Z" fill="#D6EEFF"/>
<path d="M-1.22392e-05 331C37.1303 331 72.7398 316.25 98.9949 289.995C125.25 263.74 140 228.13 140 191C140 153.87 125.25 118.26 98.995 92.0051C72.7399 65.75 37.1303 51 1.52588e-05 51" stroke="#0897FF" stroke-dasharray="6 6"/>
<path d="M2.22506e-06 261C18.5652 261 36.3699 253.625 49.4975 240.497C62.625 227.37 70 209.565 70 191C70 172.435 62.625 154.63 49.4975 141.503C36.3699 128.375 18.5652 121 1.5974e-05 121" stroke="#D6EEFF"/>
<path d="M680 121C661.435 121 643.63 128.375 630.503 141.503C617.375 154.63 610 172.435 610 191C610 209.565 617.375 227.37 630.503 240.497C643.63 253.625 661.435 261 680 261" stroke="#D6EEFF"/>
<path d="M680 51C642.87 51 607.26 65.75 581.005 92.0051C554.75 118.26 540 153.87 540 191C540 228.13 554.75 263.74 581.005 289.995C607.26 316.25 642.87 331 680 331" stroke="#0897FF" stroke-dasharray="6 6"/>
<circle cx="71" cy="303" r="28" fill="#F4F0FF"/>
<mask id="mask0_30_658" style="mask-type:alpha" maskUnits="userSpaceOnUse" x="55" y="284" width="32" height="32">
<rect x="55" y="284" width="32" height="32" fill="#D9D9D9"/>
</mask>
<g mask="url(#mask0_30_658)">
<path d="M61.083 305.239V299.157C61.083 298.703 61.2421 298.321 61.5604 298.009C61.8788 297.697 62.2646 297.541 62.7177 297.541C63.1708 297.541 63.5535 297.697 63.8657 298.009C64.1777 298.321 64.3337 298.703 64.3337 299.157V305.258C64.3337 305.711 64.1777 306.094 63.8657 306.406C63.5535 306.718 63.1708 306.874 62.7177 306.874C62.2646 306.874 61.8788 306.715 61.5604 306.396C61.2421 306.078 61.083 305.692 61.083 305.239ZM69.3844 305.258V299.157C69.3844 298.703 69.5404 298.321 69.8524 298.009C70.1646 297.697 70.5473 297.541 71.0004 297.541C71.4535 297.541 71.8361 297.697 72.1484 298.009C72.4604 298.321 72.6164 298.703 72.6164 299.157V305.258C72.6164 305.711 72.4604 306.094 72.1484 306.406C71.8361 306.718 71.4535 306.874 71.0004 306.874C70.5473 306.874 70.1646 306.718 69.8524 306.406C69.5404 306.094 69.3844 305.711 69.3844 305.258ZM83.1324 295.439H58.6787C58.2198 295.439 57.8297 295.279 57.5084 294.957C57.187 294.636 57.0264 294.246 57.0264 293.787V292.752C57.0264 292.432 57.1095 292.143 57.2757 291.883C57.4419 291.624 57.6627 291.42 57.938 291.271L69.4237 285.538C69.9144 285.285 70.4399 285.158 71.0004 285.158C71.5608 285.158 72.0864 285.285 72.577 285.538L83.9584 291.219C84.2781 291.368 84.5274 291.594 84.706 291.898C84.8849 292.202 84.9744 292.532 84.9744 292.89V293.578C84.9744 294.094 84.7964 294.533 84.4404 294.896C84.0841 295.258 83.6481 295.439 83.1324 295.439ZM58.793 312.49C58.3024 312.49 57.8853 312.318 57.5417 311.975C57.1981 311.631 57.0264 311.214 57.0264 310.723C57.0264 310.232 57.1981 309.815 57.5417 309.472C57.8853 309.128 58.3024 308.957 58.793 308.957H71.7034C72.194 308.957 72.6111 309.128 72.9547 309.472C73.2983 309.815 73.47 310.232 73.47 310.723C73.47 311.214 73.2983 311.631 72.9547 311.975C72.6111 312.318 72.194 312.49 71.7034 312.49H58.793ZM79.283 301.207C78.8299 301.207 78.4473 301.058 78.135 300.758C77.823 300.458 77.667 300.082 77.667 299.629V299.194C77.667 298.741 77.823 298.352 78.135 298.028C78.4473 297.703 78.8299 297.541 79.283 297.541C79.7488 297.541 80.1377 297.703 80.4497 298.028C80.7617 298.352 80.9115 298.741 80.899 299.194V299.629C80.9115 300.07 80.7586 300.443 80.4404 300.749C80.1219 301.054 79.7361 301.207 79.283 301.207ZM76.1077 308.696V306.261C76.1077 305.929 76.1939 305.62 76.3664 305.335C76.5388 305.05 76.7787 304.833 77.086 304.684L80.8787 302.778C81.1318 302.642 81.3946 302.574 81.667 302.574C81.9395 302.574 82.2023 302.642 82.4554 302.778L86.248 304.684C86.5554 304.833 86.7953 305.05 86.9677 305.335C87.1401 305.62 87.2264 305.929 87.2264 306.261V308.696C87.2264 310.362 86.7899 311.839 85.917 313.125C85.0441 314.412 83.8507 315.372 82.3367 316.007C82.2796 316.03 82.0564 316.075 81.667 316.145C81.5848 316.145 81.3616 316.099 80.9974 316.007C79.4834 315.372 78.2899 314.412 77.417 313.125C76.5441 311.839 76.1077 310.362 76.1077 308.696ZM80.6814 309.167L79.8554 308.341C79.6554 308.141 79.422 308.046 79.1554 308.057C78.8887 308.068 78.6554 308.174 78.4554 308.374C78.2554 308.574 78.1554 308.81 78.1554 309.083C78.1554 309.356 78.2554 309.593 78.4554 309.793L79.4467 310.784C79.8014 311.139 80.2161 311.313 80.691 311.307C81.1659 311.3 81.5806 311.126 81.935 310.784L84.7657 307.949C84.9657 307.749 85.0657 307.513 85.0657 307.24C85.0657 306.967 84.9657 306.73 84.7657 306.53C84.5657 306.33 84.3324 306.233 84.0657 306.238C83.799 306.243 83.5657 306.34 83.3657 306.53L80.6814 309.167Z" fill="#4F2CC4"/>
</g>
<circle cx="616" cy="303" r="28" fill="#F4F0FF"/>
<mask id="mask1_30_658" style="mask-type:alpha" maskUnits="userSpaceOnUse" x="600" y="287" width="32" height="32">
<rect x="600" y="287" width="32" height="32" fill="#D9D9D9"/>
</mask>
<g mask="url(#mask1_30_658)">
<path d="M606.667 315C605.933 315 605.306 314.739 604.783 314.217C604.261 313.694 604 313.067 604 312.333V293.667C604 292.933 604.261 292.305 604.783 291.783C605.306 291.261 605.933 291 606.667 291H612.267C612.556 290.2 613.039 289.555 613.717 289.067C614.394 288.578 615.156 288.333 616 288.333C616.844 288.333 617.606 288.578 618.283 289.067C618.961 289.555 619.444 290.2 619.733 291H625.333C626.067 291 626.694 291.261 627.217 291.783C627.739 292.305 628 292.933 628 293.667V312.333C628 313.067 627.739 313.694 627.217 314.217C626.694 314.739 626.067 315 625.333 315H606.667ZM610.667 309.667H617.333C617.711 309.667 618.028 309.539 618.283 309.283C618.539 309.028 618.667 308.711 618.667 308.333C618.667 307.955 618.539 307.639 618.283 307.383C618.028 307.128 617.711 307 617.333 307H610.667C610.289 307 609.972 307.128 609.717 307.383C609.461 307.639 609.333 307.955 609.333 308.333C609.333 308.711 609.461 309.028 609.717 309.283C609.972 309.539 610.289 309.667 610.667 309.667ZM610.667 304.333H621.333C621.711 304.333 622.028 304.205 622.283 303.95C622.539 303.694 622.667 303.378 622.667 303C622.667 302.622 622.539 302.305 622.283 302.05C622.028 301.794 621.711 301.667 621.333 301.667H610.667C610.289 301.667 609.972 301.794 609.717 302.05C609.461 302.305 609.333 302.622 609.333 303C609.333 303.378 609.461 303.694 609.717 303.95C609.972 304.205 610.289 304.333 610.667 304.333ZM610.667 299H621.333C621.711 299 622.028 298.872 622.283 298.617C622.539 298.361 622.667 298.044 622.667 297.667C622.667 297.289 622.539 296.972 622.283 296.717C622.028 296.461 621.711 296.333 621.333 296.333H610.667C610.289 296.333 609.972 296.461 609.717 296.717C609.461 296.972 609.333 297.289 609.333 297.667C609.333 298.044 609.461 298.361 609.717 298.617C609.972 298.872 610.289 299 610.667 299ZM616 292.667C616.289 292.667 616.528 292.572 616.717 292.383C616.906 292.194 617 291.955 617 291.667C617 291.378 616.906 291.139 616.717 290.95C616.528 290.761 616.289 290.667 616 290.667C615.711 290.667 615.472 290.761 615.283 290.95C615.094 291.139 615 291.378 615 291.667C615 291.955 615.094 292.194 615.283 292.383C615.472 292.572 615.711 292.667 616 292.667Z" fill="#4F2CC4"/>
</g>
<circle cx="71" cy="73" r="28" fill="#F4F0FF"/>
<mask id="mask2_30_658" style="mask-type:alpha" maskUnits="userSpaceOnUse" x="55" y="57" width="32" height="32">
<rect x="55" y="57" width="32" height="32" fill="#D9D9D9"/>
</mask>
<g mask="url(#mask2_30_658)">
<path d="M68.333 78.3334H73.6663C74.0441 78.3334 74.3608 78.2056 74.6163 77.95C74.8719 77.6945 74.9997 77.3778 74.9997 77V73C74.9997 72.6223 74.8719 72.3056 74.6163 72.05C74.3608 71.7945 74.0441 71.6667 73.6663 71.6667V70.3334C73.6663 69.6 73.4052 68.9723 72.883 68.45C72.3608 67.9278 71.733 67.6667 70.9997 67.6667C70.2663 67.6667 69.6386 67.9278 69.1163 68.45C68.5941 68.9723 68.333 69.6 68.333 70.3334V71.6667C67.9552 71.6667 67.6386 71.7945 67.383 72.05C67.1275 72.3056 66.9997 72.6223 66.9997 73V77C66.9997 77.3778 67.1275 77.6945 67.383 77.95C67.6386 78.2056 67.9552 78.3334 68.333 78.3334ZM69.6663 71.6667V70.3334C69.6663 69.9556 69.7941 69.6389 70.0497 69.3834C70.3052 69.1278 70.6219 69 70.9997 69C71.3775 69 71.6941 69.1278 71.9497 69.3834C72.2052 69.6389 72.333 69.9556 72.333 70.3334V71.6667H69.6663ZM70.9997 86.2C70.8441 86.2 70.6997 86.1889 70.5663 86.1667C70.433 86.1445 70.2997 86.1111 70.1663 86.0667C67.1663 85.0667 64.7775 83.2167 62.9997 80.5167C61.2219 77.8167 60.333 74.9111 60.333 71.8V65.5C60.333 64.9445 60.4941 64.4445 60.8163 64C61.1386 63.5556 61.5552 63.2334 62.0663 63.0334L70.0663 60.0334C70.3775 59.9223 70.6886 59.8667 70.9997 59.8667C71.3108 59.8667 71.6219 59.9223 71.933 60.0334L79.933 63.0334C80.4441 63.2334 80.8608 63.5556 81.183 64C81.5052 64.4445 81.6663 64.9445 81.6663 65.5V71.8C81.6663 74.9111 80.7775 77.8167 78.9997 80.5167C77.2219 83.2167 74.833 85.0667 71.833 86.0667C71.6997 86.1111 71.5663 86.1445 71.433 86.1667C71.2997 86.1889 71.1552 86.2 70.9997 86.2Z" fill="#4F2CC4"/>
</g>
<circle cx="616" cy="73" r="28" fill="#F4F0FF"/>
<mask id="mask3_30_658" style="mask-type:alpha" maskUnits="userSpaceOnUse" x="600" y="58" width="32" height="32">
<rect x="600" y="58" width="32" height="32" fill="#D9D9D9"/>
</mask>
<g mask="url(#mask3_30_658)">
<path d="M616.1 63.6333C618.456 63.6333 620.673 64.1445 622.75 65.1667C624.828 66.1889 626.545 67.6667 627.9 69.6C628.145 69.9333 628.223 70.2389 628.134 70.5167C628.045 70.7945 627.889 71.0222 627.667 71.2C627.445 71.3556 627.195 71.4222 626.917 71.4C626.639 71.3778 626.411 71.2222 626.234 70.9333C625.1 69.2667 623.634 68 621.834 67.1333C620.034 66.2667 618.123 65.8222 616.1 65.8C614.078 65.7778 612.173 66.2111 610.384 67.1C608.595 67.9889 607.156 69.2778 606.067 70.9667C605.845 71.3 605.584 71.4778 605.284 71.5C604.984 71.5222 604.723 71.4667 604.5 71.3333C604.256 71.1778 604.095 70.9667 604.017 70.7C603.939 70.4333 603.989 70.1778 604.167 69.9333C605.5 67.9333 607.223 66.3833 609.334 65.2833C611.445 64.1833 613.7 63.6333 616.1 63.6333ZM616.1 66.8333C619.123 66.8333 621.689 67.8722 623.8 69.95C625.911 72.0278 626.967 74.5556 626.967 77.5333C626.967 78.7556 626.55 79.8 625.717 80.6667C624.884 81.5333 623.867 81.9667 622.667 81.9667C621.467 81.9667 620.439 81.5611 619.584 80.75C618.728 79.9389 618.3 78.9333 618.3 77.7333C618.3 77.0889 618.095 76.5389 617.684 76.0833C617.273 75.6278 616.756 75.4 616.134 75.4C615.511 75.4 614.995 75.6278 614.584 76.0833C614.173 76.5389 613.967 77.0889 613.967 77.7333C613.967 79.8222 614.539 81.5889 615.684 83.0333C616.828 84.4778 618.578 85.4333 620.934 85.9C621.245 85.9445 621.456 86.0889 621.567 86.3333C621.678 86.5778 621.7 86.8333 621.634 87.1C621.567 87.3445 621.428 87.5611 621.217 87.75C621.006 87.9389 620.7 88 620.3 87.9333C617.545 87.4222 615.439 86.2333 613.984 84.3667C612.528 82.5 611.8 80.2889 611.8 77.7333C611.8 76.4889 612.223 75.4278 613.067 74.55C613.911 73.6722 614.934 73.2333 616.134 73.2333C617.334 73.2333 618.356 73.65 619.2 74.4833C620.045 75.3167 620.467 76.3333 620.467 77.5333C620.467 78.1556 620.678 78.6945 621.1 79.15C621.523 79.6056 622.045 79.8333 622.667 79.8333C623.289 79.8333 623.806 79.6056 624.217 79.15C624.628 78.6945 624.834 78.1556 624.834 77.5333C624.834 75.1333 623.984 73.1056 622.284 71.45C620.584 69.7945 618.523 68.9667 616.1 68.9667C613.678 68.9667 611.634 69.8222 609.967 71.5333C608.3 73.2445 607.467 75.3111 607.467 77.7333C607.467 78.6667 607.523 79.4889 607.634 80.2C607.745 80.9111 607.911 81.5889 608.134 82.2333C608.245 82.5667 608.245 82.8611 608.134 83.1167C608.023 83.3722 607.834 83.5556 607.567 83.6667C607.256 83.7778 606.973 83.7722 606.717 83.65C606.461 83.5278 606.256 83.2889 606.1 82.9333C605.856 82.3111 605.661 81.5611 605.517 80.6833C605.373 79.8056 605.3 78.8222 605.3 77.7333C605.3 74.6889 606.345 72.1111 608.434 70C610.523 67.8889 613.078 66.8333 616.1 66.8333ZM616.134 60.4333C617.6 60.4333 619.023 60.6056 620.4 60.95C621.778 61.2945 623.111 61.8 624.4 62.4667C624.734 62.6445 624.934 62.8722 625 63.15C625.067 63.4278 625.045 63.6889 624.934 63.9333C624.8 64.1778 624.6 64.3611 624.334 64.4833C624.067 64.6056 623.778 64.5778 623.467 64.4C622.334 63.7778 621.145 63.3167 619.9 63.0167C618.656 62.7167 617.4 62.5667 616.134 62.5667C614.845 62.5667 613.573 62.7167 612.317 63.0167C611.061 63.3167 609.867 63.7778 608.734 64.4C608.423 64.5778 608.117 64.6333 607.817 64.5667C607.517 64.5 607.289 64.3333 607.134 64.0667C607.023 63.8445 607.011 63.5833 607.1 63.2833C607.189 62.9833 607.367 62.7556 607.634 62.6C608.923 61.8222 610.289 61.2667 611.734 60.9333C613.178 60.6 614.645 60.4333 616.134 60.4333ZM616.134 70.0333C618.223 70.0333 620.011 70.7611 621.5 72.2167C622.989 73.6722 623.734 75.4445 623.734 77.5333C623.734 77.8889 623.645 78.1833 623.467 78.4167C623.289 78.65 623.023 78.7667 622.667 78.7667C622.311 78.7667 622.039 78.65 621.85 78.4167C621.661 78.1833 621.567 77.8889 621.567 77.5333C621.567 76.0445 621.039 74.7778 619.984 73.7333C618.928 72.6889 617.645 72.1667 616.134 72.1667C614.6 72.1667 613.311 72.7111 612.267 73.8C611.223 74.8889 610.7 76.2 610.7 77.7333C610.7 79.3556 610.945 80.7889 611.434 82.0333C611.923 83.2778 612.756 84.5222 613.934 85.7667C614.156 85.9889 614.273 86.2389 614.284 86.5167C614.295 86.7945 614.223 87.0333 614.067 87.2333C613.845 87.5 613.556 87.6167 613.2 87.5833C612.845 87.55 612.556 87.4222 612.334 87.2C611.023 85.8667 610.067 84.4278 609.467 82.8833C608.867 81.3389 608.567 79.6222 608.567 77.7333C608.567 75.6 609.3 73.7833 610.767 72.2833C612.234 70.7833 614.023 70.0333 616.134 70.0333ZM616.134 76.4667C616.467 76.4667 616.728 76.5778 616.917 76.8C617.106 77.0222 617.2 77.2889 617.2 77.6C617.2 79.4445 617.767 80.8056 618.9 81.6833C620.034 82.5611 621.434 83 623.1 83C623.323 83 623.573 82.9778 623.85 82.9333C624.128 82.8889 624.389 82.8667 624.634 82.8667C624.923 82.8667 625.173 82.95 625.384 83.1167C625.595 83.2833 625.7 83.5111 625.7 83.8C625.7 84.1111 625.623 84.35 625.467 84.5167C625.311 84.6833 625.123 84.8111 624.9 84.9C624.589 85.0111 624.273 85.0833 623.95 85.1167C623.628 85.15 623.345 85.1667 623.1 85.1667C620.878 85.1667 618.984 84.5278 617.417 83.25C615.85 81.9722 615.067 80.0889 615.067 77.6C615.067 77.2889 615.161 77.0222 615.35 76.8C615.539 76.5778 615.8 76.4667 616.134 76.4667Z" fill="#4F2CC4"/>
</g>
<ellipse cx="340" cy="191" rx="161" ry="161" fill="url(#paint0_radial_30_658)"/>
<rect x="136" y="87" width="408" height="208" rx="16" fill="#F0F9FF"/>
<rect x="136" y="87" width="408" height="208" rx="16" stroke="#262628" stroke-width="8"/>
<rect x="160" y="132" width="66" height="12" rx="6" fill="#63BDFF"/>
<rect x="239" y="132" width="66" height="12" rx="6" fill="#D6EEFF"/>
<circle cx="165" cy="109" r="5" fill="#FB6E71"/>
<circle cx="183" cy="109" r="5" fill="#FFE551"/>
<circle cx="201" cy="109" r="5" fill="#00FFAE"/>
<rect x="160" y="162" width="360" height="111" rx="6" fill="white"/>
<mask id="mask4_30_658" style="mask-type:alpha" maskUnits="userSpaceOnUse" x="308" y="186" width="64" height="64">
<rect x="308" y="186" width="64" height="64" fill="#D9D9D9"/>
</mask>
<g mask="url(#mask4_30_658)">
<path d="M337.2 227.467L352.267 212.4L348.467 208.6L337.2 219.867L331.6 214.267L327.8 218.067L337.2 227.467ZM340 244.667C333.823 243.111 328.723 239.567 324.7 234.033C320.678 228.5 318.667 222.355 318.667 215.6V199.333L340 191.333L361.334 199.333V215.6C361.334 222.355 359.323 228.5 355.3 234.033C351.278 239.567 346.178 243.111 340 244.667Z" fill="#AEDDFF"/>
</g>
</g>
<defs>
<radialGradient id="paint0_radial_30_658" cx="0" cy="0" r="1" gradientUnits="userSpaceOnUse" gradientTransform="translate(340 36.325) rotate(90) scale(174.8 356.219)">
<stop stop-color="#F0F9FF"/>
<stop offset="1" stop-color="#0897FF"/>
</radialGradient>
<clipPath id="clip0_30_658">
<rect width="680" height="382" rx="24" fill="white"/>
</clipPath>
</defs>
</svg>
