<svg width="135" height="65" viewBox="0 0 135 65" fill="none" xmlns="http://www.w3.org/2000/svg">
<g filter="url(#filter0_d_165_2821)">
<path d="M110 17.8519L126 8L122.522 27L118.348 19.963L110 17.8519Z" fill="#907CFF"/>
<path d="M125.521 7.22168L109.521 17.0732L107.678 18.208L109.775 18.7383L117.756 20.7559L121.735 27.4668L122.981 29.5674L123.421 27.165L126.899 8.16504L127.27 6.14453L125.521 7.22168Z" stroke="white" stroke-width="1.82857"/>
</g>
<g filter="url(#filter1_d_165_2821)">
<rect width="106.629" height="26.3143" transform="translate(8 27)" fill="#907CFF"/>
<path d="M23.0872 36.93C23.019 36.3542 22.7425 35.9072 22.2576 35.589C21.7728 35.2709 21.1781 35.1118 20.4735 35.1118C19.9584 35.1118 19.5076 35.1951 19.1213 35.3618C18.7387 35.5284 18.4395 35.7576 18.2235 36.0493C18.0114 36.3409 17.9054 36.6724 17.9054 37.0436C17.9054 37.3542 17.9792 37.6212 18.127 37.8447C18.2785 38.0644 18.4717 38.2481 18.7065 38.3959C18.9413 38.5398 19.1876 38.6591 19.4451 38.7538C19.7027 38.8447 19.9395 38.9186 20.1554 38.9754L21.3372 39.2936C21.6402 39.3731 21.9773 39.483 22.3485 39.6231C22.7235 39.7633 23.0815 39.9546 23.4224 40.197C23.7671 40.4356 24.0512 40.7425 24.2747 41.1175C24.4982 41.4925 24.6099 41.9527 24.6099 42.4981C24.6099 43.1269 24.4451 43.6951 24.1156 44.2027C23.7898 44.7103 23.3126 45.1137 22.6838 45.4129C22.0588 45.7122 21.2993 45.8618 20.4054 45.8618C19.572 45.8618 18.8504 45.7273 18.2406 45.4584C17.6345 45.1894 17.1573 44.8144 16.8088 44.3334C16.4641 43.8523 16.269 43.2936 16.2235 42.6572H17.6781C17.716 43.0966 17.8637 43.4603 18.1213 43.7481C18.3826 44.0322 18.7122 44.2443 19.1099 44.3845C19.5114 44.5209 19.9432 44.589 20.4054 44.589C20.9432 44.589 21.4262 44.5019 21.8542 44.3277C22.2823 44.1497 22.6213 43.9034 22.8713 43.589C23.1213 43.2709 23.2463 42.8997 23.2463 42.4754C23.2463 42.089 23.1383 41.7747 22.9224 41.5322C22.7065 41.2898 22.4224 41.0928 22.0701 40.9413C21.7179 40.7898 21.3372 40.6572 20.9281 40.5436L19.4963 40.1345C18.5872 39.8731 17.8675 39.5 17.3372 39.0152C16.8069 38.5303 16.5417 37.8959 16.5417 37.1118C16.5417 36.4603 16.7179 35.8921 17.0701 35.4072C17.4262 34.9186 17.9035 34.5398 18.502 34.2709C19.1042 33.9981 19.7766 33.8618 20.519 33.8618C21.269 33.8618 21.9357 33.9962 22.519 34.2652C23.1023 34.5303 23.5645 34.894 23.9054 35.3561C24.2501 35.8182 24.4319 36.3428 24.4508 36.93H23.0872ZM30.6203 36.93V38.0663H26.0976V36.93H30.6203ZM27.4158 34.839H28.7567V43.1572C28.7567 43.536 28.8116 43.8201 28.9214 44.0095C29.0351 44.1951 29.179 44.3201 29.3533 44.3845C29.5313 44.4451 29.7188 44.4754 29.9158 44.4754C30.0635 44.4754 30.1847 44.4678 30.2794 44.4527C30.3741 44.4337 30.4499 44.4186 30.5067 44.4072L30.7794 45.6118C30.6885 45.6459 30.5616 45.68 30.3987 45.714C30.2358 45.7519 30.0294 45.7709 29.7794 45.7709C29.4006 45.7709 29.0294 45.6894 28.6658 45.5265C28.3059 45.3637 28.0067 45.1156 27.768 44.7822C27.5332 44.4489 27.4158 44.0284 27.4158 43.5209V34.839ZM35.2855 45.8618C34.7325 45.8618 34.2306 45.7576 33.7799 45.5493C33.3291 45.3372 32.9711 45.0322 32.706 44.6345C32.4408 44.233 32.3083 43.7481 32.3083 43.18C32.3083 42.68 32.4067 42.2747 32.6037 41.964C32.8007 41.6497 33.0639 41.4034 33.3935 41.2254C33.723 41.0474 34.0867 40.9148 34.4844 40.8277C34.8859 40.7368 35.2893 40.6648 35.6946 40.6118C36.2249 40.5436 36.6549 40.4925 36.9844 40.4584C37.3177 40.4205 37.5602 40.358 37.7117 40.2709C37.867 40.1837 37.9446 40.0322 37.9446 39.8163V39.7709C37.9446 39.2103 37.7912 38.7747 37.4844 38.464C37.1814 38.1534 36.7211 37.9981 36.1037 37.9981C35.4636 37.9981 34.9617 38.1383 34.598 38.4186C34.2344 38.6989 33.9787 38.9981 33.831 39.3163L32.5583 38.8618C32.7855 38.3315 33.0886 37.9186 33.4674 37.6231C33.8499 37.3239 34.2666 37.1156 34.7174 36.9981C35.1719 36.8769 35.6189 36.8163 36.0583 36.8163C36.3386 36.8163 36.6605 36.8504 37.0242 36.9186C37.3916 36.983 37.7458 37.1175 38.0867 37.322C38.4314 37.5265 38.7174 37.8353 38.9446 38.2481C39.1719 38.661 39.2855 39.214 39.2855 39.9072V45.6572H37.9446V44.4754H37.8764C37.7855 44.6648 37.634 44.8675 37.4219 45.0834C37.2098 45.2993 36.9276 45.483 36.5753 45.6345C36.223 45.786 35.7931 45.8618 35.2855 45.8618ZM35.4901 44.6572C36.0204 44.6572 36.4674 44.5531 36.831 44.3447C37.1984 44.1364 37.4749 43.8675 37.6605 43.5379C37.8499 43.2084 37.9446 42.8618 37.9446 42.4981V41.2709C37.8878 41.339 37.7628 41.4015 37.5696 41.4584C37.3802 41.5114 37.1605 41.5587 36.9105 41.6004C36.6643 41.6383 36.4238 41.6724 36.1889 41.7027C35.9579 41.7292 35.7704 41.7519 35.6264 41.7709C35.278 41.8163 34.9522 41.8902 34.6492 41.9925C34.3499 42.0909 34.1075 42.2406 33.9219 42.4413C33.7401 42.6383 33.6492 42.9072 33.6492 43.2481C33.6492 43.714 33.8215 44.0663 34.1662 44.305C34.5147 44.5398 34.956 44.6572 35.4901 44.6572ZM43.063 42.4754L43.0402 40.8163H43.313L47.1312 36.93H48.7902L44.7221 41.0436H44.6084L43.063 42.4754ZM41.813 45.6572V34.0209H43.1539V45.6572H41.813ZM47.3584 45.6572L43.9493 41.339L44.9039 40.4072L49.063 45.6572H47.3584ZM53.8958 45.839C53.0549 45.839 52.3295 45.6534 51.7197 45.2822C51.1136 44.9072 50.6458 44.3845 50.3163 43.714C49.9905 43.0398 49.8276 42.2557 49.8276 41.3618C49.8276 40.4678 49.9905 39.68 50.3163 38.9981C50.6458 38.3125 51.1041 37.7784 51.6913 37.3959C52.2822 37.0095 52.9716 36.8163 53.7595 36.8163C54.214 36.8163 54.6629 36.8921 55.106 37.0436C55.5492 37.1951 55.9526 37.4413 56.3163 37.7822C56.6799 38.1193 56.9697 38.5663 57.1856 39.1231C57.4015 39.68 57.5095 40.3656 57.5095 41.18V41.7481H50.7822V40.589H56.1458C56.1458 40.0966 56.0473 39.6572 55.8504 39.2709C55.6572 38.8845 55.3807 38.5796 55.0208 38.3561C54.6648 38.1326 54.2443 38.0209 53.7595 38.0209C53.2254 38.0209 52.7632 38.1534 52.3731 38.4186C51.9867 38.68 51.6894 39.0209 51.481 39.4413C51.2727 39.8618 51.1685 40.3125 51.1685 40.7936V41.5663C51.1685 42.2254 51.2822 42.7841 51.5095 43.2425C51.7405 43.697 52.0606 44.0436 52.4697 44.2822C52.8788 44.5171 53.3542 44.6345 53.8958 44.6345C54.2481 44.6345 54.5663 44.5853 54.8504 44.4868C55.1382 44.3845 55.3863 44.233 55.5947 44.0322C55.803 43.8277 55.964 43.5739 56.0776 43.2709L57.3731 43.6345C57.2367 44.0739 57.0076 44.4603 56.6856 44.7936C56.3636 45.1231 55.9659 45.3807 55.4924 45.5663C55.0189 45.7481 54.4867 45.839 53.8958 45.839ZM60.9701 40.4072V45.6572H59.6292V34.0209H60.9701V38.2936H61.0838C61.2883 37.8428 61.5951 37.4849 62.0042 37.2197C62.4171 36.9508 62.9663 36.8163 63.652 36.8163C64.2467 36.8163 64.7675 36.9356 65.2145 37.1743C65.6614 37.4091 66.008 37.7709 66.2542 38.2595C66.5042 38.7443 66.6292 39.3618 66.6292 40.1118V45.6572H65.2883V40.2027C65.2883 39.5095 65.1084 38.9735 64.7485 38.5947C64.3925 38.2122 63.8982 38.0209 63.2656 38.0209C62.8262 38.0209 62.4323 38.1137 62.0838 38.2993C61.7391 38.4849 61.4663 38.7557 61.2656 39.1118C61.0686 39.4678 60.9701 39.8997 60.9701 40.4072ZM72.7078 45.839C71.9199 45.839 71.2286 45.6515 70.6339 45.2765C70.043 44.9015 69.5809 44.3769 69.2476 43.7027C68.918 43.0284 68.7533 42.2406 68.7533 41.339C68.7533 40.43 68.918 39.6364 69.2476 38.9584C69.5809 38.2803 70.043 37.7538 70.6339 37.3788C71.2286 37.0038 71.9199 36.8163 72.7078 36.8163C73.4957 36.8163 74.1851 37.0038 74.776 37.3788C75.3707 37.7538 75.8328 38.2803 76.1624 38.9584C76.4957 39.6364 76.6624 40.43 76.6624 41.339C76.6624 42.2406 76.4957 43.0284 76.1624 43.7027C75.8328 44.3769 75.3707 44.9015 74.776 45.2765C74.1851 45.6515 73.4957 45.839 72.7078 45.839ZM72.7078 44.6345C73.3063 44.6345 73.7987 44.4811 74.1851 44.1743C74.5714 43.8675 74.8574 43.464 75.043 42.964C75.2286 42.464 75.3214 41.9224 75.3214 41.339C75.3214 40.7557 75.2286 40.2122 75.043 39.7084C74.8574 39.2046 74.5714 38.7974 74.1851 38.4868C73.7987 38.1762 73.3063 38.0209 72.7078 38.0209C72.1093 38.0209 71.6169 38.1762 71.2305 38.4868C70.8442 38.7974 70.5582 39.2046 70.3726 39.7084C70.187 40.2122 70.0942 40.7557 70.0942 41.339C70.0942 41.9224 70.187 42.464 70.3726 42.964C70.5582 43.464 70.8442 43.8675 71.2305 44.1743C71.6169 44.4811 72.1093 44.6345 72.7078 44.6345ZM80.1301 34.0209V45.6572H78.7892V34.0209H80.1301ZM85.9616 45.839C85.2343 45.839 84.5922 45.6553 84.0354 45.2879C83.4786 44.9167 83.043 44.394 82.7286 43.7197C82.4142 43.0417 82.257 42.2406 82.257 41.3163C82.257 40.3997 82.4142 39.6042 82.7286 38.93C83.043 38.2557 83.4805 37.7349 84.0411 37.3675C84.6017 37 85.2494 36.8163 85.9843 36.8163C86.5525 36.8163 87.0013 36.911 87.3309 37.1004C87.6642 37.286 87.918 37.4981 88.0922 37.7368C88.2703 37.9716 88.4085 38.1648 88.507 38.3163H88.6206V34.0209H89.9616V45.6572H88.6661V44.3163H88.507C88.4085 44.4754 88.2684 44.6762 88.0866 44.9186C87.9047 45.1572 87.6453 45.3712 87.3081 45.5606C86.971 45.7462 86.5222 45.839 85.9616 45.839ZM86.1434 44.6345C86.6813 44.6345 87.1358 44.4943 87.507 44.214C87.8782 43.93 88.1604 43.5379 88.3536 43.0379C88.5468 42.5341 88.6434 41.9527 88.6434 41.2936C88.6434 40.6421 88.5487 40.072 88.3593 39.5834C88.1699 39.0909 87.8896 38.7084 87.5184 38.4356C87.1472 38.1591 86.6888 38.0209 86.1434 38.0209C85.5752 38.0209 85.1017 38.1667 84.7229 38.4584C84.3479 38.7462 84.0657 39.1383 83.8763 39.6345C83.6907 40.1269 83.5979 40.68 83.5979 41.2936C83.5979 41.9148 83.6926 42.4792 83.882 42.9868C84.0752 43.4906 84.3593 43.8921 84.7343 44.1913C85.1131 44.4868 85.5828 44.6345 86.1434 44.6345ZM96.3427 45.839C95.5018 45.839 94.7764 45.6534 94.1666 45.2822C93.5605 44.9072 93.0927 44.3845 92.7631 43.714C92.4374 43.0398 92.2745 42.2557 92.2745 41.3618C92.2745 40.4678 92.4374 39.68 92.7631 38.9981C93.0927 38.3125 93.551 37.7784 94.1381 37.3959C94.7291 37.0095 95.4185 36.8163 96.2063 36.8163C96.6609 36.8163 97.1097 36.8921 97.5529 37.0436C97.9961 37.1951 98.3995 37.4413 98.7631 37.7822C99.1268 38.1193 99.4166 38.5663 99.6325 39.1231C99.8484 39.68 99.9563 40.3656 99.9563 41.18V41.7481H93.2291V40.589H98.5927C98.5927 40.0966 98.4942 39.6572 98.2972 39.2709C98.1041 38.8845 97.8275 38.5796 97.4677 38.3561C97.1116 38.1326 96.6912 38.0209 96.2063 38.0209C95.6722 38.0209 95.2101 38.1534 94.82 38.4186C94.4336 38.68 94.1363 39.0209 93.9279 39.4413C93.7196 39.8618 93.6154 40.3125 93.6154 40.7936V41.5663C93.6154 42.2254 93.7291 42.7841 93.9563 43.2425C94.1874 43.697 94.5075 44.0436 94.9166 44.2822C95.3256 44.5171 95.801 44.6345 96.3427 44.6345C96.695 44.6345 97.0131 44.5853 97.2972 44.4868C97.5851 44.3845 97.8332 44.233 98.0416 44.0322C98.2499 43.8277 98.4109 43.5739 98.5245 43.2709L99.82 43.6345C99.6836 44.0739 99.4544 44.4603 99.1325 44.7936C98.8105 45.1231 98.4128 45.3807 97.9393 45.5663C97.4658 45.7481 96.9336 45.839 96.3427 45.839ZM102.076 45.6572V36.93H103.372V38.2481H103.462C103.622 37.8163 103.909 37.4659 104.326 37.197C104.743 36.9281 105.212 36.7936 105.735 36.7936C105.834 36.7936 105.957 36.7955 106.105 36.7993C106.252 36.8031 106.364 36.8087 106.44 36.8163V38.18C106.394 38.1686 106.29 38.1515 106.127 38.1288C105.968 38.1023 105.8 38.089 105.622 38.089C105.197 38.089 104.819 38.1781 104.485 38.3561C104.156 38.5303 103.894 38.7728 103.701 39.0834C103.512 39.3902 103.417 39.7406 103.417 40.1345V45.6572H102.076Z" fill="white"/>
</g>
<defs>
<filter id="filter0_d_165_2821" x="99.8707" y="0.632652" width="34.1531" height="38.8157" filterUnits="userSpaceOnUse" color-interpolation-filters="sRGB">
<feFlood flood-opacity="0" result="BackgroundImageFix"/>
<feColorMatrix in="SourceAlpha" type="matrix" values="0 0 0 0 0 0 0 0 0 0 0 0 0 0 0 0 0 0 127 0" result="hardAlpha"/>
<feOffset dy="1.82857"/>
<feGaussianBlur stdDeviation="2.74286"/>
<feColorMatrix type="matrix" values="0 0 0 0 0 0 0 0 0 0 0 0 0 0 0 0 0 0 0.4 0"/>
<feBlend mode="normal" in2="BackgroundImageFix" result="effect1_dropShadow_165_2821"/>
<feBlend mode="normal" in="SourceGraphic" in2="effect1_dropShadow_165_2821" result="shape"/>
</filter>
<filter id="filter1_d_165_2821" x="0.685715" y="23.3429" width="121.257" height="40.9428" filterUnits="userSpaceOnUse" color-interpolation-filters="sRGB">
<feFlood flood-opacity="0" result="BackgroundImageFix"/>
<feColorMatrix in="SourceAlpha" type="matrix" values="0 0 0 0 0 0 0 0 0 0 0 0 0 0 0 0 0 0 127 0" result="hardAlpha"/>
<feOffset dy="3.65714"/>
<feGaussianBlur stdDeviation="3.65714"/>
<feColorMatrix type="matrix" values="0 0 0 0 0 0 0 0 0 0 0 0 0 0 0 0 0 0 0.12 0"/>
<feBlend mode="normal" in2="BackgroundImageFix" result="effect1_dropShadow_165_2821"/>
<feBlend mode="normal" in="SourceGraphic" in2="effect1_dropShadow_165_2821" result="shape"/>
</filter>
</defs>
</svg>
