<svg width="158" height="140" viewBox="0 0 158 140" fill="none" xmlns="http://www.w3.org/2000/svg">
<g filter="url(#filter0_d_110_452)">
<rect x="9" y="7" width="140" height="122" rx="8" fill="white" shape-rendering="crispEdges"/>
<rect x="9.5" y="7.5" width="139" height="121" rx="7.5" stroke="url(#paint0_linear_110_452)" shape-rendering="crispEdges"/>
<path d="M149 39V38.5H9V39V39.5H149V39Z" fill="#D6EEFF"/>
<path d="M52.49 27L50.8 24.28H49.29V27H47.88V19.6H50.98C52.54 19.6 53.57 20.54 53.57 21.94C53.57 22.9 53.06 23.64 52.2 24.01L54.15 27H52.49ZM49.29 20.77V23.11H50.72C51.56 23.11 52.12 22.64 52.12 21.94C52.12 21.24 51.6 20.77 50.82 20.77H49.29ZM56.6045 25.83H60.3045V27H55.1945V19.6H60.2245V20.77H56.6045V22.67H59.9045V23.83H56.6045V25.83ZM63.1084 25.83H66.3784V27H61.6984V19.6H63.1084V25.83ZM68.8213 25.83H72.5213V27H67.4113V19.6H72.4413V20.77H68.8213V22.67H72.1213V23.83H68.8213V25.83ZM76.1752 27L73.0152 19.6H74.5152L76.8352 25.25L79.1252 19.6H80.6352L77.4852 27H76.1752ZM86.088 27L85.488 25.53H82.078L81.478 27H79.968L83.128 19.6H84.438L87.598 27H86.088ZM82.558 24.36H85.018L83.788 21.35L82.558 24.36ZM88.4562 27V19.6H89.3362L93.9962 24.61L93.9662 19.6H95.3762V27H94.5062L89.8462 21.99L89.8662 27H88.4562ZM100.618 27.1C98.2678 27.1 96.6878 25.57 96.6878 23.28C96.6878 21.01 98.2578 19.5 100.608 19.5C101.818 19.5 102.798 19.9 103.528 20.69L102.638 21.59C102.218 21.05 101.508 20.67 100.628 20.67C99.1378 20.67 98.1478 21.72 98.1478 23.29C98.1478 24.88 99.1578 25.93 100.648 25.93C101.648 25.93 102.338 25.48 102.808 24.76L103.758 25.61C103.048 26.58 101.968 27.1 100.618 27.1ZM106.224 25.83H109.924V27H104.814V19.6H109.844V20.77H106.224V22.67H109.524V23.83H106.224V25.83Z" fill="#5D5C64"/>
<path d="M43.7939 61C51.2339 61 56.2259 65.512 56.2259 72.28C56.2259 76.36 54.8339 79.384 52.3859 82.792L42.3539 97H34.7219L45.0899 83.032C44.3219 83.176 43.4099 83.224 42.4019 83.224C36.3539 83.224 31.3619 78.904 31.3619 72.376C31.3619 65.56 36.3539 61 43.7939 61ZM38.4179 72.328C38.4179 75.736 40.5779 78.088 43.8419 78.088C47.0579 78.088 49.2659 75.736 49.2659 72.328C49.2659 68.872 47.0579 66.616 43.8419 66.616C40.5779 66.616 38.4179 68.872 38.4179 72.328ZM60.2035 97V92.728L71.1955 80.824C73.0675 78.76 77.0515 74.728 77.0515 71.032C77.0515 68.392 75.1795 66.616 72.4435 66.616C69.4195 66.616 67.4515 68.776 67.4515 71.944L60.5875 71.32C60.5875 65.128 65.2435 61 72.2515 61C79.2595 61 83.8675 64.744 83.8675 70.504C83.8675 75.544 80.4115 79.624 75.6595 84.616L69.0355 91.528L84.2995 91.384V97H60.2035ZM97.2486 77.368C91.8726 77.368 88.2246 74.104 88.2246 69.208C88.2246 64.264 91.8726 61 97.2486 61C102.625 61 106.225 64.264 106.225 69.208C106.225 74.104 102.625 77.368 97.2486 77.368ZM98.9766 97.48L95.4726 95.368L115.633 61L119.089 63.112L98.9766 97.48ZM97.2966 73.192C99.4086 73.192 100.897 71.608 100.897 69.208C100.897 66.76 99.4086 65.224 97.2966 65.224C95.0406 65.224 93.5526 66.76 93.5526 69.208C93.5526 71.608 95.0406 73.192 97.2966 73.192ZM117.505 97.48C112.081 97.48 108.481 94.216 108.481 89.272C108.481 84.376 112.081 81.112 117.505 81.112C122.881 81.112 126.433 84.376 126.433 89.272C126.433 94.216 122.881 97.48 117.505 97.48ZM117.505 93.256C119.617 93.256 121.105 91.672 121.105 89.272C121.105 86.872 119.617 85.288 117.505 85.288C115.249 85.288 113.809 86.872 113.809 89.272C113.809 91.672 115.249 93.256 117.505 93.256Z" fill="#00FFAE"/>
</g>
<defs>
<filter id="filter0_d_110_452" x="0.7" y="0.7" width="156.6" height="138.6" filterUnits="userSpaceOnUse" color-interpolation-filters="sRGB">
<feFlood flood-opacity="0" result="BackgroundImageFix"/>
<feColorMatrix in="SourceAlpha" type="matrix" values="0 0 0 0 0 0 0 0 0 0 0 0 0 0 0 0 0 0 127 0" result="hardAlpha"/>
<feOffset dy="2"/>
<feGaussianBlur stdDeviation="4.15"/>
<feComposite in2="hardAlpha" operator="out"/>
<feColorMatrix type="matrix" values="0 0 0 0 0 0 0 0 0 0 0 0 0 0 0 0 0 0 0.15 0"/>
<feBlend mode="normal" in2="BackgroundImageFix" result="effect1_dropShadow_110_452"/>
<feBlend mode="normal" in="SourceGraphic" in2="effect1_dropShadow_110_452" result="shape"/>
</filter>
<linearGradient id="paint0_linear_110_452" x1="79" y1="7" x2="79" y2="129" gradientUnits="userSpaceOnUse">
<stop stop-color="#F2FFFB"/>
<stop offset="1" stop-color="#49FFC7"/>
</linearGradient>
</defs>
</svg>
